Amiamie-Italic.ufo
<glyph name="dollar" format="2">
	<advance width="601"/>
	<unicode hex="0024"/>
	<note>
		dollar
	</note>
	<outline>
		<contour>
			<point x="532" y="183" type="curve" smooth="yes"/>
			<point x="555" y="291"/>
			<point x="511" y="354"/>
			<point x="369" y="402" type="curve"/>
			<point x="415" y="620" type="line"/>
			<point x="471" y="608"/>
			<point x="489" y="565"/>
			<point x="483" y="504" type="curve"/>
			<point x="595" y="504" type="line"/>
			<point x="604" y="609"/>
			<point x="557" y="691"/>
			<point x="433" y="703" type="curve"/>
			<point x="449" y="780" type="line"/>
			<point x="381" y="780" type="line"/>
			<point x="365" y="702" type="line"/>
			<point x="252" y="690"/>
			<point x="152" y="624"/>
			<point x="127" y="506" type="curve" smooth="yes"/>
			<point x="103" y="391"/>
			<point x="167" y="339"/>
			<point x="280" y="303" type="curve"/>
			<point x="231" y="71" type="line"/>
			<point x="171" y="83"/>
			<point x="140" y="125"/>
			<point x="146" y="190" type="curve"/>
			<point x="34" y="190" type="line"/>
			<point x="15" y="68"/>
			<point x="85" y="-3"/>
			<point x="213" y="-13" type="curve"/>
			<point x="197" y="-90" type="line"/>
			<point x="265" y="-90" type="line"/>
			<point x="281" y="-12" type="line"/>
			<point x="403" y="0"/>
			<point x="507" y="69"/>
		</contour>
		<contour>
			<point x="240" y="520" type="curve" smooth="yes"/>
			<point x="252" y="577"/>
			<point x="293" y="611"/>
			<point x="347" y="620" type="curve"/>
			<point x="304" y="414" type="line"/>
			<point x="250" y="433"/>
			<point x="228" y="461"/>
		</contour>
		<contour>
			<point x="299" y="70" type="curve"/>
			<point x="345" y="289" type="line"/>
			<point x="414" y="263"/>
			<point x="428" y="224"/>
			<point x="417" y="173" type="curve" smooth="yes"/>
			<point x="404" y="110"/>
			<point x="359" y="78"/>
		</contour>
	</outline>
</glyph>
<glyph name="percent" format="2">
	<advance width="751"/>
	<unicode hex="0025"/>
	<note>
		percent
	</note>
	<outline>
		<contour>
			<point x="283" y="701" type="curve" smooth="yes"/>
			<point x="190" y="701"/>
			<point x="119" y="640"/>
			<point x="97" y="540" type="curve" smooth="yes"/>
			<point x="76" y="440"/>
			<point x="121" y="378"/>
			<point x="214" y="378" type="curve" smooth="yes"/>
			<point x="306" y="378"/>
			<point x="378" y="440"/>
			<point x="399" y="540" type="curve" smooth="yes"/>
			<point x="421" y="640"/>
			<point x="375" y="701"/>
		</contour>
		<contour>
			<point x="49" y="0" type="line"/>
			<point x="145" y="0" type="line"/>
			<point x="739" y="690" type="line"/>
			<point x="643" y="690" type="line"/>
		</contour>
		<contour>
			<point x="269" y="635" type="curve" smooth="yes"/>
			<point x="306" y="635"/>
			<point x="323" y="602"/>
			<point x="309" y="540" type="curve" smooth="yes"/>
			<point x="296" y="478"/>
			<point x="265" y="444"/>
			<point x="228" y="444" type="curve" smooth="yes"/>
			<point x="190" y="444"/>
			<point x="174" y="478"/>
			<point x="187" y="540" type="curve" smooth="yes"/>
			<point x="201" y="602"/>
			<point x="231" y="635"/>
		</contour>
		<contour>
			<point x="570" y="309" type="curve" smooth="yes"/>
			<point x="478" y="309"/>
			<point x="406" y="248"/>
			<point x="385" y="148" type="curve" smooth="yes"/>
			<point x="364" y="48"/>
			<point x="410" y="-14"/>
			<point x="502" y="-14" type="curve" smooth="yes"/>
			<point x="595" y="-14"/>
			<point x="666" y="48"/>
			<point x="687" y="148" type="curve" smooth="yes"/>
			<point x="708" y="248"/>
			<point x="663" y="309"/>
		</contour>
		<contour>
			<point x="556" y="243" type="curve" smooth="yes"/>
			<point x="594" y="243"/>
			<point x="610" y="210"/>
			<point x="597" y="148" type="curve" smooth="yes"/>
			<point x="584" y="86"/>
			<point x="554" y="52"/>
			<point x="516" y="52" type="curve" smooth="yes"/>
			<point x="479" y="52"/>
			<point x="462" y="86"/>
			<point x="475" y="148" type="curve" smooth="yes"/>
			<point x="488" y="210"/>
			<point x="519" y="243"/>
		</contour>
	</outline>
</glyph>
<glyph name="ampersand" format="2">
	<advance width="663"/>
	<unicode hex="0026"/>
	<note>
		ampersand
	</note>
	<outline>
		<contour>
			<point x="649" y="306" type="line"/>
			<point x="667" y="394" type="line"/>
			<point x="572" y="394" type="line"/>
			<point x="594" y="497" type="line"/>
			<point x="484" y="497" type="line"/>
			<point x="462" y="394" type="line"/>
			<point x="413" y="394" type="line" smooth="yes"/>
			<point x="392" y="394"/>
			<point x="370" y="394"/>
			<point x="353" y="395" type="curve" smooth="yes"/>
			<point x="288" y="398"/>
			<point x="244" y="425"/>
			<point x="262" y="508" type="curve" smooth="yes"/>
			<point x="277" y="578"/>
			<point x="332" y="620"/>
			<point x="415" y="620" type="curve" smooth="yes"/>
			<point x="460" y="620"/>
			<point x="490" y="618"/>
			<point x="529" y="610" type="curve"/>
			<point x="547" y="694" type="line"/>
			<point x="514" y="701"/>
			<point x="481" y="704"/>
			<point x="434" y="704" type="curve" smooth="yes"/>
			<point x="284" y="704"/>
			<point x="168" y="627"/>
			<point x="142" y="507" type="curve" smooth="yes"/>
			<point x="126" y="428"/>
			<point x="167" y="372"/>
			<point x="238" y="352" type="curve"/>
			<point x="135" y="332"/>
			<point x="58" y="262"/>
			<point x="40" y="174" type="curve" smooth="yes"/>
			<point x="9" y="28"/>
			<point x="115" y="-14"/>
			<point x="276" y="-14" type="curve" smooth="yes"/>
			<point x="353" y="-14"/>
			<point x="426" y="-5"/>
			<point x="491" y="9" type="curve"/>
			<point x="554" y="306" type="line"/>
		</contour>
		<contour>
			<point x="162" y="190" type="curve" smooth="yes"/>
			<point x="175" y="250"/>
			<point x="228" y="296"/>
			<point x="332" y="305" type="curve" smooth="yes"/>
			<point x="352" y="306"/>
			<point x="369" y="306"/>
			<point x="391" y="306" type="curve" smooth="yes"/>
			<point x="444" y="306" type="line"/>
			<point x="395" y="78" type="line"/>
			<point x="359" y="72"/>
			<point x="334" y="70"/>
			<point x="296" y="70" type="curve" smooth="yes"/>
			<point x="188" y="70"/>
			<point x="143" y="101"/>
		</contour>
	</outline>
</glyph>
<glyph name="parenleft" format="2">
	<advance width="337"/>
	<unicode hex="0028"/>
	<note>
		parenleft
	</note>
	<outline>
		<contour>
			<point x="409" y="780" type="curve"/>
			<point x="344" y="780" type="line"/>
			<point x="239" y="669"/>
			<point x="158" y="516"/>
			<point x="123" y="350" type="curve" smooth="yes"/>
			<point x="88" y="185"/>
			<point x="103" y="31"/>
			<point x="162" y="-80" type="curve"/>
			<point x="227" y="-80" type="line"/>
			<point x="175" y="46"/>
			<point x="163" y="195"/>
			<point x="196" y="350" type="curve" smooth="yes"/>
			<point x="229" y="505"/>
			<point x="305" y="654"/>
		</contour>
	</outline>
</glyph>
<glyph name="parenright" format="2">
	<advance width="336"/>
	<unicode hex="0029"/>
	<note>
		parenright
	</note>
	<outline>
		<contour>
			<point x="206" y="780" type="curve"/>
			<point x="141" y="780" type="line"/>
			<point x="193" y="654"/>
			<point x="205" y="505"/>
			<point x="172" y="350" type="curve" smooth="yes"/>
			<point x="139" y="195"/>
			<point x="63" y="46"/>
			<point x="-41" y="-80" type="curve"/>
			<point x="24" y="-80" type="line"/>
			<point x="129" y="31"/>
			<point x="210" y="185"/>
			<point x="245" y="350" type="curve" smooth="yes"/>
			<point x="280" y="516"/>
			<point x="265" y="669"/>
		</contour>
	</outline>
</glyph>
<glyph name="asterisk" format="2">
	<advance width="578"/>
	<unicode hex="002A"/>
	<note>
		asterisk
	</note>
	<outline>
		<contour>
			<point x="484" y="364" type="line"/>
			<point x="325" y="305" type="line"/>
			<point x="372" y="475" type="line"/>
			<point x="296" y="475" type="line"/>
			<point x="271" y="305" type="line"/>
			<point x="136" y="364" type="line"/>
			<point x="98" y="292" type="line"/>
			<point x="243" y="254" type="line"/>
			<point x="105" y="123" type="line"/>
			<point x="156" y="78" type="line"/>
			<point x="280" y="224" type="line"/>
			<point x="342" y="78" type="line"/>
			<point x="413" y="123" type="line"/>
			<point x="331" y="254" type="line"/>
			<point x="492" y="292" type="line"/>
		</contour>
	</outline>
</glyph>
<glyph name="one" format="2">
	<advance width="601"/>
	<unicode hex="0031"/>
	<note>
		one
	</note>
	<outline>
		<contour>
			<point x="376" y="0" type="line"/>
			<point x="522" y="690" type="line"/>
			<point x="461" y="690" type="line" smooth="yes"/>
			<point x="430" y="690"/>
			<point x="400" y="683"/>
			<point x="364" y="664" type="curve" smooth="yes"/>
			<point x="192" y="571" type="line"/>
			<point x="169" y="463" type="line"/>
			<point x="388" y="575" type="line"/>
			<point x="266" y="0" type="line"/>
		</contour>
	</outline>
</glyph>
<glyph name="three" format="2">
	<advance width="601"/>
	<unicode hex="0033"/>
	<note>
		three
	</note>
	<outline>
		<contour>
			<point x="432" y="366" type="curve"/>
			<point x="515" y="388"/>
			<point x="575" y="447"/>
			<point x="592" y="527" type="curve" smooth="yes"/>
			<point x="613" y="629"/>
			<point x="550" y="704"/>
			<point x="412" y="704" type="curve" smooth="yes"/>
			<point x="263" y="704"/>
			<point x="159" y="620"/>
			<point x="121" y="497" type="curve" smooth="yes"/>
			<point x="118" y="487" type="line"/>
			<point x="227" y="487" type="line"/>
			<point x="230" y="497" type="line" smooth="yes"/>
			<point x="255" y="576"/>
			<point x="314" y="620"/>
			<point x="382" y="620" type="curve" smooth="yes"/>
			<point x="449" y="620"/>
			<point x="483" y="577"/>
			<point x="470" y="514" type="curve" smooth="yes"/>
			<point x="454" y="437"/>
			<point x="387" y="392"/>
			<point x="309" y="391" type="curve" smooth="yes"/>
			<point x="289" y="390" type="line"/>
			<point x="271" y="309" type="line"/>
			<point x="291" y="309" type="line" smooth="yes"/>
			<point x="393" y="308"/>
			<point x="433" y="266"/>
			<point x="417" y="190" type="curve" smooth="yes"/>
			<point x="401" y="116"/>
			<point x="337" y="70"/>
			<point x="258" y="70" type="curve" smooth="yes"/>
			<point x="180" y="70"/>
			<point x="131" y="113"/>
			<point x="139" y="198" type="curve" smooth="yes"/>
			<point x="140" y="208" type="line"/>
			<point x="30" y="208" type="line"/>
			<point x="29" y="198" type="line" smooth="yes"/>
			<point x="13" y="52"/>
			<point x="93" y="-14"/>
			<point x="235" y="-14" type="curve" smooth="yes"/>
			<point x="379" y="-14"/>
			<point x="510" y="66"/>
			<point x="537" y="195" type="curve" smooth="yes"/>
			<point x="556" y="286"/>
			<point x="517" y="344"/>
		</contour>
	</outline>
</glyph>
<glyph name="four" format="2">
	<advance width="601"/>
	<unicode hex="0034"/>
	<note>
		four
	</note>
	<outline>
		<contour>
			<point x="461" y="169" type="line"/>
			<point x="548" y="169" type="line"/>
			<point x="566" y="257" type="line"/>
			<point x="479" y="257" type="line"/>
			<point x="571" y="690" type="line"/>
			<point x="458" y="690" type="line"/>
			<point x="26" y="226" type="line"/>
			<point x="14" y="169" type="line"/>
			<point x="352" y="169" type="line"/>
			<point x="316" y="0" type="line"/>
			<point x="425" y="0" type="line"/>
		</contour>
		<contour>
			<point x="434" y="556" type="curve"/>
			<point x="370" y="257" type="line"/>
			<point x="161" y="257" type="line"/>
			<point x="365" y="475" type="line" smooth="yes"/>
			<point x="392" y="503"/>
			<point x="413" y="530"/>
		</contour>
	</outline>
</glyph>
<glyph name="six" format="2">
	<advance width="601"/>
	<unicode hex="0036"/>
	<note>
		six
	</note>
	<outline>
		<contour>
			<point x="367" y="465" type="curve" smooth="yes"/>
			<point x="317" y="465"/>
			<point x="276" y="454"/>
			<point x="233" y="423" type="curve"/>
			<point x="182" y="361" type="line"/>
			<point x="229" y="548"/>
			<point x="302" y="620"/>
			<point x="388" y="620" type="curve" smooth="yes"/>
			<point x="451" y="620"/>
			<point x="481" y="585"/>
			<point x="482" y="515" type="curve" smooth="yes"/>
			<point x="482" y="505" type="line"/>
			<point x="596" y="505" type="line"/>
			<point x="597" y="515" type="line" smooth="yes"/>
			<point x="609" y="630"/>
			<point x="541" y="704"/>
			<point x="414" y="704" type="curve" smooth="yes"/>
			<point x="262" y="704"/>
			<point x="114" y="585"/>
			<point x="57" y="317" type="curve" smooth="yes"/>
			<point x="8" y="86"/>
			<point x="78" y="-14"/>
			<point x="240" y="-14" type="curve" smooth="yes"/>
			<point x="381" y="-14"/>
			<point x="513" y="82"/>
			<point x="546" y="235" type="curve" smooth="yes"/>
			<point x="574" y="367"/>
			<point x="514" y="465"/>
		</contour>
		<contour>
			<point x="258" y="70" type="curve" smooth="yes"/>
			<point x="178" y="70"/>
			<point x="141" y="136"/>
			<point x="159" y="224" type="curve" smooth="yes"/>
			<point x="181" y="327"/>
			<point x="253" y="381"/>
			<point x="323" y="381" type="curve" smooth="yes"/>
			<point x="417" y="381"/>
			<point x="443" y="311"/>
			<point x="424" y="222" type="curve" smooth="yes"/>
			<point x="405" y="133"/>
			<point x="338" y="70"/>
		</contour>
	</outline>
</glyph>
<glyph name="seven" format="2">
	<advance width="601"/>
	<unicode hex="0037"/>
	<note>
		seven
	</note>
	<outline>
		<contour>
			<point x="637" y="635" type="line"/>
			<point x="648" y="690" type="line"/>
			<point x="142" y="690" type="line"/>
			<point x="124" y="603" type="line"/>
			<point x="499" y="603" type="line"/>
			<point x="46" y="0" type="line"/>
			<point x="164" y="0" type="line"/>
		</contour>
	</outline>
</glyph>
<glyph name="nine" format="2">
	<advance width="601"/>
	<unicode hex="0039"/>
	<note>
		nine
	</note>
	<outline>
		<contour>
			<point x="394" y="704" type="curve" smooth="yes"/>
			<point x="253" y="704"/>
			<point x="122" y="608"/>
			<point x="89" y="455" type="curve" smooth="yes"/>
			<point x="61" y="323"/>
			<point x="121" y="225"/>
			<point x="268" y="225" type="curve" smooth="yes"/>
			<point x="318" y="225"/>
			<point x="359" y="237"/>
			<point x="402" y="267" type="curve"/>
			<point x="453" y="329" type="line"/>
			<point x="406" y="143"/>
			<point x="333" y="70"/>
			<point x="247" y="70" type="curve" smooth="yes"/>
			<point x="183" y="70"/>
			<point x="153" y="105"/>
			<point x="153" y="176" type="curve" smooth="yes"/>
			<point x="153" y="186" type="line"/>
			<point x="39" y="186" type="line"/>
			<point x="38" y="176" type="line" smooth="yes"/>
			<point x="24" y="60"/>
			<point x="93" y="-14"/>
			<point x="221" y="-14" type="curve" smooth="yes"/>
			<point x="373" y="-14"/>
			<point x="521" y="105"/>
			<point x="578" y="373" type="curve" smooth="yes"/>
			<point x="627" y="605"/>
			<point x="557" y="704"/>
		</contour>
		<contour>
			<point x="311" y="309" type="curve" smooth="yes"/>
			<point x="218" y="309"/>
			<point x="192" y="380"/>
			<point x="211" y="468" type="curve" smooth="yes"/>
			<point x="230" y="557"/>
			<point x="297" y="620"/>
			<point x="377" y="620" type="curve" smooth="yes"/>
			<point x="456" y="620"/>
			<point x="494" y="554"/>
			<point x="476" y="466" type="curve" smooth="yes"/>
			<point x="454" y="363"/>
			<point x="382" y="309"/>
		</contour>
	</outline>
</glyph>
<glyph name="semicolon" format="2">
	<advance width="232"/>
	<unicode hex="003B"/>
	<note>
		semicolon
	</note>
	<outline>
		<contour>
			<point x="-16" y="-121" type="line"/>
			<point x="128" y="112" type="line"/>
			<point x="131" y="126" type="line"/>
			<point x="19" y="126" type="line"/>
			<point x="-112" y="-121" type="line"/>
		</contour>
		<contour>
			<point x="109" y="545" type="line"/>
			<point x="77" y="399" type="line"/>
			<point x="189" y="399" type="line"/>
			<point x="221" y="545" type="line"/>
		</contour>
	</outline>
</glyph>
<glyph name="greater" format="2">
	<advance width="601"/>
	<unicode hex="003E"/>
	<note>
		greater
	</note>
	<outline>
		<contour>
			<point x="478" y="223" type="line"/>
			<point x="496" y="308" type="line"/>
			<point x="120" y="503" type="line"/>
			<point x="102" y="420" type="line"/>
			<point x="416" y="264" type="line"/>
			<point x="36" y="108" type="line"/>
			<point x="19" y="28" type="line"/>
		</contour>
	</outline>
</glyph>
<glyph name="question" format="2">
	<advance width="522"/>
	<unicode hex="003F"/>
	<note>
		question
	</note>
	<outline>
		<contour>
			<point x="362" y="704" type="curve" smooth="yes"/>
			<point x="224" y="704"/>
			<point x="114" y="621"/>
			<point x="82" y="489" type="curve"/>
			<point x="194" y="489" type="line"/>
			<point x="218" y="576"/>
			<point x="271" y="620"/>
			<point x="339" y="620" type="curve" smooth="yes"/>
			<point x="405" y="620"/>
			<point x="434" y="579"/>
			<point x="420" y="515" type="curve" smooth="yes"/>
			<point x="409" y="461"/>
			<point x="379" y="423"/>
			<point x="296" y="348" type="curve" smooth="yes"/>
			<point x="231" y="289"/>
			<point x="204" y="252"/>
			<point x="186" y="188" type="curve"/>
			<point x="287" y="188" type="line"/>
			<point x="301" y="238"/>
			<point x="323" y="264"/>
			<point x="393" y="320" type="curve" smooth="yes"/>
			<point x="478" y="388"/>
			<point x="524" y="446"/>
			<point x="540" y="519" type="curve" smooth="yes"/>
			<point x="563" y="627"/>
			<point x="501" y="704"/>
		</contour>
		<contour>
			<point x="174" y="132" type="line"/>
			<point x="143" y="-14" type="line"/>
			<point x="246" y="-14" type="line"/>
			<point x="277" y="132" type="line"/>
		</contour>
	</outline>
</glyph>
<glyph name="D" format="2">
	<advance width="719"/>
	<unicode hex="0044"/>
	<note>
		D
	</note>
	<outline>
		<contour>
			<point x="495" y="686" type="curve" smooth="yes"/>
			<point x="461" y="690"/>
			<point x="445" y="690"/>
			<point x="408" y="690" type="curve" smooth="yes"/>
			<point x="185" y="690" type="line"/>
			<point x="39" y="0" type="line"/>
			<point x="258" y="0" type="line" smooth="yes"/>
			<point x="295" y="0"/>
			<point x="311" y="0"/>
			<point x="347" y="4" type="curve" smooth="yes"/>
			<point x="511" y="24"/>
			<point x="659" y="147"/>
			<point x="703" y="353" type="curve" smooth="yes"/>
			<point x="747" y="562"/>
			<point x="651" y="667"/>
		</contour>
		<contour>
			<point x="346" y="92" type="curve" smooth="yes"/>
			<point x="323" y="88"/>
			<point x="300" y="88"/>
			<point x="266" y="88" type="curve" smooth="yes"/>
			<point x="167" y="88" type="line"/>
			<point x="277" y="603" type="line"/>
			<point x="380" y="603" type="line" smooth="yes"/>
			<point x="413" y="603"/>
			<point x="437" y="602"/>
			<point x="458" y="598" type="curve" smooth="yes"/>
			<point x="564" y="582"/>
			<point x="616" y="498"/>
			<point x="585" y="353" type="curve" smooth="yes"/>
			<point x="552" y="200"/>
			<point x="461" y="108"/>
		</contour>
	</outline>
</glyph>
<glyph name="E" format="2">
	<advance width="600"/>
	<unicode hex="0045"/>
	<note>
		E
	</note>
	<outline>
		<contour>
			<point x="516" y="0" type="line"/>
			<point x="534" y="88" type="line"/>
			<point x="167" y="88" type="line"/>
			<point x="213" y="302" type="line"/>
			<point x="542" y="302" type="line"/>
			<point x="560" y="389" type="line"/>
			<point x="231" y="389" type="line"/>
			<point x="277" y="603" type="line"/>
			<point x="634" y="603" type="line"/>
			<point x="652" y="690" type="line"/>
			<point x="185" y="690" type="line"/>
			<point x="39" y="0" type="line"/>
		</contour>
	</outline>
</glyph>
<glyph name="I" format="2">
	<advance width="277"/>
	<unicode hex="0049"/>
	<note>
		I
	</note>
	<outline>
		<contour>
			<point x="39" y="0" type="line"/>
			<point x="149" y="0" type="line"/>
			<point x="295" y="690" type="line"/>
			<point x="185" y="690" type="line"/>
		</contour>
	</outline>
</glyph>
<glyph name="M" format="2">
	<advance width="880"/>
	<unicode hex="004D"/>
	<note>
		M
	</note>
	<outline>
		<contour>
			<point x="752" y="0" type="line"/>
			<point x="898" y="690" type="line"/>
			<point x="726" y="690" type="line"/>
			<point x="419" y="98" type="line"/>
			<point x="362" y="690" type="line"/>
			<point x="185" y="690" type="line"/>
			<point x="39" y="0" type="line"/>
			<point x="149" y="0" type="line"/>
			<point x="221" y="339" type="line" smooth="yes"/>
			<point x="238" y="418"/>
			<point x="257" y="511"/>
			<point x="271" y="585" type="curve"/>
			<point x="275" y="512"/>
			<point x="284" y="418"/>
			<point x="292" y="341" type="curve" smooth="yes"/>
			<point x="332" y="0" type="line"/>
			<point x="459" y="0" type="line"/>
			<point x="642" y="340" type="line" smooth="yes"/>
			<point x="685" y="418"/>
			<point x="734" y="513"/>
			<point x="769" y="586" type="curve"/>
			<point x="752" y="513"/>
			<point x="732" y="418"/>
			<point x="715" y="339" type="curve" smooth="yes"/>
			<point x="643" y="0" type="line"/>
		</contour>
	</outline>
</glyph>
<glyph name="Q" format="2">
	<advance width="748"/>
	<unicode hex="0051"/>
	<note>
		Q
	</note>
	<outline>
		<contour>
			<point x="557" y="87" type="curve"/>
			<point x="647" y="144"/>
			<point x="708" y="238"/>
			<point x="731" y="345" type="curve" smooth="yes"/>
			<point x="776" y="559"/>
			<point x="686" y="704"/>
			<point x="475" y="704" type="curve" smooth="yes"/>
			<point x="263" y="704"/>
			<point x="111" y="559"/>
			<point x="66" y="345" type="curve" smooth="yes"/>
			<point x="21" y="132"/>
			<point x="111" y="-14"/>
			<point x="323" y="-14" type="curve" smooth="yes"/>
			<point x="349" y="-14"/>
			<point x="372" y="-12"/>
			<point x="395" y="-7" type="curve" smooth="yes"/>
			<point x="424" y="-1"/>
			<point x="442" y="2"/>
			<point x="470" y="2" type="curve" smooth="yes"/>
			<point x="508" y="2"/>
			<point x="537" y="-7"/>
			<point x="595" y="-51" type="curve"/>
			<point x="669" y="22" type="line"/>
			<point x="635" y="57"/>
			<point x="600" y="79"/>
		</contour>
		<contour>
			<point x="184" y="345" type="curve" smooth="yes"/>
			<point x="221" y="517"/>
			<point x="322" y="620"/>
			<point x="457" y="620" type="curve" smooth="yes"/>
			<point x="591" y="620"/>
			<point x="650" y="517"/>
			<point x="613" y="345" type="curve" smooth="yes"/>
			<point x="577" y="174"/>
			<point x="475" y="70"/>
			<point x="341" y="70" type="curve" smooth="yes"/>
			<point x="206" y="70"/>
			<point x="148" y="174"/>
		</contour>
	</outline>
</glyph>
<glyph name="V" format="2">
	<advance width="652"/>
	<unicode hex="0056"/>
	<note>
		V
	</note>
	<outline>
		<contour>
			<point x="217" y="0" type="line"/>
			<point x="359" y="0" type="line"/>
			<point x="753" y="690" type="line"/>
			<point x="636" y="690" type="line"/>
			<point x="308" y="84" type="line"/>
			<point x="241" y="690" type="line"/>
			<point x="122" y="690" type="line"/>
		</contour>
	</outline>
</glyph>
<glyph name="bracketright" format="2">
	<advance width="324"/>
	<unicode hex="005D"/>
	<note>
		bracketright
	</note>
	<outline>
		<contour>
			<point x="-40" y="-80" type="line"/>
			<point x="150" y="-80" type="line"/>
			<point x="332" y="780" type="line"/>
			<point x="142" y="780" type="line"/>
			<point x="128" y="714" type="line"/>
			<point x="250" y="714" type="line"/>
			<point x="96" y="-14" type="line"/>
			<point x="-26" y="-14" type="line"/>
		</contour>
	</outline>
</glyph>
<glyph name="grave" format="2">
	<advance width="300"/>
	<unicode hex="0060"/>
	<note>
		grave
	</note>
	<outline>
		<contour>
			<point x="192" y="578" type="line"/>
			<point x="258" y="578" type="line"/>
			<point x="214" y="692" type="line"/>
			<point x="114" y="692" type="line"/>
		</contour>
	</outline>
</glyph>
<glyph name="j" format="2">
	<advance width="245"/>
	<unicode hex="006A"/>
	<note>
		j
	</note>
	<outline>
		<contour>
			<point x="111" y="-31" type="curve" smooth="yes"/>
			<point x="231" y="531" type="line"/>
			<point x="122" y="531" type="line"/>
			<point x="1" y="-34" type="line" smooth="yes"/>
			<point x="-2" y="-49"/>
			<point x="-5" y="-65"/>
			<point x="-10" y="-79" type="curve" smooth="yes"/>
			<point x="-22" y="-115"/>
			<point x="-49" y="-130"/>
			<point x="-105" y="-125" type="curve"/>
			<point x="-123" y="-208" type="line"/>
			<point x="-109" y="-210"/>
			<point x="-95" y="-210"/>
			<point x="-77" y="-210" type="curve" smooth="yes"/>
			<point x="23" y="-210"/>
			<point x="73" y="-168"/>
			<point x="95" y="-95" type="curve" smooth="yes"/>
			<point x="100" y="-77"/>
			<point x="107" y="-51"/>
		</contour>
		<contour>
			<point x="160" y="718" type="line"/>
			<point x="133" y="591" type="line"/>
			<point x="244" y="591" type="line"/>
			<point x="271" y="718" type="line"/>
		</contour>
	</outline>
</glyph>
<glyph name="m" format="2">
	<advance width="883"/>
	<unicode hex="006D"/>
	<note>
		m
	</note>
	<outline>
		<contour>
			<point x="845" y="415" type="curve" smooth="yes"/>
			<point x="848" y="488"/>
			<point x="805" y="545"/>
			<point x="707" y="545" type="curve" smooth="yes"/>
			<point x="660" y="545"/>
			<point x="621" y="536"/>
			<point x="587" y="514" type="curve"/>
			<point x="523" y="444" type="line"/>
			<point x="516" y="503"/>
			<point x="472" y="545"/>
			<point x="388" y="545" type="curve" smooth="yes"/>
			<point x="340" y="545"/>
			<point x="301" y="536"/>
			<point x="268" y="514" type="curve"/>
			<point x="219" y="452" type="line"/>
			<point x="236" y="531" type="line"/>
			<point x="126" y="531" type="line"/>
			<point x="13" y="0" type="line"/>
			<point x="123" y="0" type="line"/>
			<point x="179" y="267" type="line" smooth="yes"/>
			<point x="210" y="411"/>
			<point x="263" y="464"/>
			<point x="328" y="464" type="curve" smooth="yes"/>
			<point x="385" y="464"/>
			<point x="413" y="434"/>
			<point x="409" y="377" type="curve" smooth="yes"/>
			<point x="406" y="350"/>
			<point x="401" y="321"/>
			<point x="392" y="281" type="curve" smooth="yes"/>
			<point x="333" y="0" type="line"/>
			<point x="442" y="0" type="line"/>
			<point x="498" y="267" type="line" smooth="yes"/>
			<point x="529" y="411"/>
			<point x="583" y="464"/>
			<point x="647" y="464" type="curve" smooth="yes"/>
			<point x="704" y="464"/>
			<point x="733" y="434"/>
			<point x="728" y="377" type="curve" smooth="yes"/>
			<point x="725" y="350"/>
			<point x="720" y="321"/>
			<point x="711" y="281" type="curve" smooth="yes"/>
			<point x="652" y="0" type="line"/>
			<point x="762" y="0" type="line"/>
			<point x="830" y="321" type="line" smooth="yes"/>
			<point x="839" y="364"/>
			<point x="843" y="388"/>
		</contour>
	</outline>
</glyph>
<glyph name="n" format="2">
	<advance width="606"/>
	<unicode hex="006E"/>
	<note>
		n
	</note>
	<outline>
		<contour>
			<point x="565" y="393" type="curve" smooth="yes"/>
			<point x="575" y="486"/>
			<point x="523" y="545"/>
			<point x="409" y="545" type="curve" smooth="yes"/>
			<point x="356" y="545"/>
			<point x="315" y="536"/>
			<point x="266" y="504" type="curve"/>
			<point x="217" y="443" type="line"/>
			<point x="236" y="531" type="line"/>
			<point x="126" y="531" type="line"/>
			<point x="13" y="0" type="line"/>
			<point x="123" y="0" type="line"/>
			<point x="173" y="238" type="line" smooth="yes"/>
			<point x="209" y="404"/>
			<point x="283" y="464"/>
			<point x="359" y="464" type="curve" smooth="yes"/>
			<point x="434" y="464"/>
			<point x="457" y="422"/>
			<point x="450" y="362" type="curve" smooth="yes"/>
			<point x="446" y="335"/>
			<point x="441" y="312"/>
			<point x="436" y="287" type="curve" smooth="yes"/>
			<point x="375" y="0" type="line"/>
			<point x="485" y="0" type="line"/>
			<point x="548" y="299" type="line" smooth="yes"/>
			<point x="557" y="342"/>
			<point x="561" y="366"/>
		</contour>
	</outline>
</glyph>
<glyph name="p" format="2">
	<advance width="626"/>
	<unicode hex="0070"/>
	<note>
		p
	</note>
	<outline>
		<contour>
			<point x="418" y="545" type="curve" smooth="yes"/>
			<point x="364" y="545"/>
			<point x="305" y="530"/>
			<point x="270" y="505" type="curve"/>
			<point x="218" y="448" type="line"/>
			<point x="236" y="531" type="line"/>
			<point x="126" y="531" type="line"/>
			<point x="-29" y="-196" type="line"/>
			<point x="81" y="-196" type="line"/>
			<point x="138" y="72" type="line"/>
			<point x="162" y="19" type="line"/>
			<point x="184" y="-2"/>
			<point x="237" y="-14"/>
			<point x="281" y="-14" type="curve" smooth="yes"/>
			<point x="418" y="-14"/>
			<point x="558" y="80"/>
			<point x="599" y="275" type="curve" smooth="yes"/>
			<point x="632" y="430"/>
			<point x="570" y="545"/>
		</contour>
		<contour>
			<point x="285" y="66" type="curve" smooth="yes"/>
			<point x="215" y="66"/>
			<point x="147" y="114"/>
			<point x="175" y="244" type="curve" smooth="yes"/>
			<point x="180" y="271" type="line" smooth="yes"/>
			<point x="210" y="413"/>
			<point x="293" y="465"/>
			<point x="375" y="465" type="curve" smooth="yes"/>
			<point x="471" y="465"/>
			<point x="505" y="380"/>
			<point x="481" y="265" type="curve" smooth="yes"/>
			<point x="453" y="133"/>
			<point x="373" y="66"/>
		</contour>
	</outline>
</glyph>
<glyph name="y" format="2">
	<advance width="537"/>
	<unicode hex="0079"/>
	<note>
		y
	</note>
	<outline>
		<contour>
			<point x="254" y="-34" type="curve" smooth="yes"/>
			<point x="591" y="531" type="line"/>
			<point x="472" y="531" type="line"/>
			<point x="231" y="82" type="line"/>
			<point x="181" y="531" type="line"/>
			<point x="58" y="531" type="line"/>
			<point x="153" y="-25" type="line"/>
			<point x="141" y="-44" type="line" smooth="yes"/>
			<point x="104" y="-106"/>
			<point x="66" y="-127"/>
			<point x="16" y="-127" type="curve" smooth="yes"/>
			<point x="5" y="-127"/>
			<point x="-6" y="-127"/>
			<point x="-19" y="-126" type="curve"/>
			<point x="-36" y="-207" type="line"/>
			<point x="-21" y="-210"/>
			<point x="-7" y="-210"/>
			<point x="15" y="-210" type="curve" smooth="yes"/>
			<point x="111" y="-210"/>
			<point x="179" y="-160"/>
		</contour>
	</outline>
</glyph>
<glyph name="asciitilde" format="2">
	<advance width="601"/>
	<unicode hex="007E"/>
	<note>
		asciitilde
	</note>
	<outline>
		<contour>
			<point x="543" y="369" type="curve"/>
			<point x="477" y="369" type="line"/>
			<point x="466" y="319"/>
			<point x="449" y="293"/>
			<point x="413" y="293" type="curve" smooth="yes"/>
			<point x="386" y="293"/>
			<point x="362" y="307"/>
			<point x="327" y="328" type="curve" smooth="yes"/>
			<point x="282" y="355"/>
			<point x="258" y="369"/>
			<point x="217" y="369" type="curve" smooth="yes"/>
			<point x="140" y="369"/>
			<point x="91" y="319"/>
			<point x="71" y="223" type="curve"/>
			<point x="137" y="223" type="line"/>
			<point x="147" y="271"/>
			<point x="164" y="299"/>
			<point x="201" y="299" type="curve" smooth="yes"/>
			<point x="227" y="299"/>
			<point x="250" y="286"/>
			<point x="287" y="264" type="curve" smooth="yes"/>
			<point x="332" y="237"/>
			<point x="356" y="223"/>
			<point x="396" y="223" type="curve" smooth="yes"/>
			<point x="473" y="223"/>
			<point x="523" y="273"/>
		</contour>
	</outline>
</glyph>
<glyph name="cent" format="2">
	<advance width="586"/>
	<unicode hex="00A2"/>
	<note>
		cent
	</note>
	<outline>
		<contour>
			<point x="295" y="70" type="curve"/>
			<point x="378" y="461" type="line"/>
			<point x="426" y="451"/>
			<point x="454" y="414"/>
			<point x="453" y="346" type="curve"/>
			<point x="559" y="346" type="line"/>
			<point x="570" y="455"/>
			<point x="512" y="533"/>
			<point x="395" y="543" type="curve"/>
			<point x="411" y="620" type="line"/>
			<point x="343" y="620" type="line"/>
			<point x="327" y="541" type="line"/>
			<point x="203" y="522"/>
			<point x="87" y="424"/>
			<point x="53" y="263" type="curve" smooth="yes"/>
			<point x="15" y="88"/>
			<point x="87" y="-1"/>
			<point x="209" y="-13" type="curve"/>
			<point x="193" y="-90" type="line"/>
			<point x="261" y="-90" type="line"/>
			<point x="277" y="-12" type="line"/>
			<point x="385" y="0"/>
			<point x="474" y="63"/>
			<point x="520" y="176" type="curve"/>
			<point x="413" y="176" type="line"/>
			<point x="388" y="117"/>
			<point x="344" y="81"/>
		</contour>
		<contour>
			<point x="165" y="270" type="curve" smooth="yes"/>
			<point x="188" y="380"/>
			<point x="246" y="441"/>
			<point x="309" y="458" type="curve"/>
			<point x="227" y="71" type="line"/>
			<point x="172" y="88"/>
			<point x="139" y="149"/>
		</contour>
	</outline>
</glyph>
<glyph name="sterling" format="2">
	<advance width="601"/>
	<unicode hex="00A3"/>
	<note>
		sterling
	</note>
	<outline>
		<contour>
			<point x="483" y="0" type="line"/>
			<point x="501" y="88" type="line"/>
			<point x="165" y="88" type="line"/>
			<point x="227" y="118"/>
			<point x="265" y="160"/>
			<point x="278" y="224" type="curve" smooth="yes"/>
			<point x="284" y="253"/>
			<point x="286" y="279"/>
			<point x="282" y="310" type="curve"/>
			<point x="467" y="310" type="line"/>
			<point x="480" y="374" type="line"/>
			<point x="270" y="374" type="line"/>
			<point x="257" y="433"/>
			<point x="254" y="462"/>
			<point x="264" y="511" type="curve" smooth="yes"/>
			<point x="276" y="566"/>
			<point x="320" y="620"/>
			<point x="389" y="620" type="curve" smooth="yes"/>
			<point x="453" y="620"/>
			<point x="479" y="581"/>
			<point x="472" y="504" type="curve"/>
			<point x="586" y="504" type="line"/>
			<point x="602" y="616"/>
			<point x="551" y="704"/>
			<point x="409" y="704" type="curve" smooth="yes"/>
			<point x="282" y="704"/>
			<point x="169" y="622"/>
			<point x="142" y="496" type="curve" smooth="yes"/>
			<point x="132" y="450"/>
			<point x="136" y="416"/>
			<point x="145" y="374" type="curve"/>
			<point x="99" y="374" type="line"/>
			<point x="86" y="310" type="line"/>
			<point x="161" y="310" type="line"/>
			<point x="168" y="272"/>
			<point x="169" y="245"/>
			<point x="161" y="208" type="curve" smooth="yes"/>
			<point x="149" y="151"/>
			<point x="111" y="96"/>
			<point x="27" y="78" type="curve"/>
			<point x="11" y="0" type="line"/>
		</contour>
	</outline>
</glyph>
<glyph name="currency" format="2">
	<advance width="601"/>
	<unicode hex="00A4"/>
	<note>
		currency
	</note>
	<outline>
		<contour>
			<point x="488" y="301" type="curve" smooth="yes"/>
			<point x="496" y="339"/>
			<point x="491" y="375"/>
			<point x="478" y="404" type="curve"/>
			<point x="549" y="462" type="line"/>
			<point x="513" y="507" type="line"/>
			<point x="442" y="449" type="line"/>
			<point x="417" y="469"/>
			<point x="384" y="481"/>
			<point x="346" y="481" type="curve" smooth="yes"/>
			<point x="308" y="481"/>
			<point x="270" y="469"/>
			<point x="237" y="449" type="curve"/>
			<point x="191" y="507" type="line"/>
			<point x="137" y="462" type="line"/>
			<point x="182" y="405" type="line"/>
			<point x="155" y="375"/>
			<point x="136" y="340"/>
			<point x="128" y="301" type="curve" smooth="yes"/>
			<point x="120" y="263"/>
			<point x="124" y="227"/>
			<point x="138" y="198" type="curve"/>
			<point x="69" y="141" type="line"/>
			<point x="104" y="96" type="line"/>
			<point x="173" y="153" type="line"/>
			<point x="198" y="133"/>
			<point x="231" y="121"/>
			<point x="269" y="121" type="curve" smooth="yes"/>
			<point x="308" y="121"/>
			<point x="346" y="133"/>
			<point x="380" y="154" type="curve"/>
			<point x="426" y="96" type="line"/>
			<point x="481" y="141" type="line"/>
			<point x="434" y="199" type="line"/>
			<point x="460" y="228"/>
			<point x="480" y="263"/>
		</contour>
		<contour>
			<point x="284" y="188" type="curve" smooth="yes"/>
			<point x="223" y="188"/>
			<point x="187" y="235"/>
			<point x="201" y="301" type="curve" smooth="yes"/>
			<point x="215" y="367"/>
			<point x="271" y="414"/>
			<point x="332" y="414" type="curve" smooth="yes"/>
			<point x="394" y="414"/>
			<point x="430" y="367"/>
			<point x="416" y="301" type="curve" smooth="yes"/>
			<point x="402" y="235"/>
			<point x="346" y="188"/>
		</contour>
	</outline>
</glyph>
<glyph name="yen" format="2">
	<advance width="601"/>
	<unicode hex="00A5"/>
	<note>
		yen
	</note>
	<outline>
		<contour>
			<point x="535" y="363" type="line"/>
			<point x="417" y="363" type="line"/>
			<point x="667" y="690" type="line"/>
			<point x="546" y="690" type="line"/>
			<point x="326" y="367" type="line"/>
			<point x="239" y="690" type="line"/>
			<point x="113" y="690" type="line"/>
			<point x="225" y="363" type="line"/>
			<point x="108" y="363" type="line"/>
			<point x="94" y="297" type="line"/>
			<point x="248" y="297" type="line"/>
			<point x="251" y="287" type="line"/>
			<point x="240" y="235" type="line"/>
			<point x="81" y="235" type="line"/>
			<point x="67" y="169" type="line"/>
			<point x="226" y="169" type="line"/>
			<point x="190" y="0" type="line"/>
			<point x="299" y="0" type="line"/>
			<point x="335" y="169" type="line"/>
			<point x="494" y="169" type="line"/>
			<point x="508" y="235" type="line"/>
			<point x="349" y="235" type="line"/>
			<point x="360" y="289" type="line"/>
			<point x="366" y="297" type="line"/>
			<point x="521" y="297" type="line"/>
		</contour>
	</outline>
</glyph>
<glyph name="brokenbar" format="2">
	<advance width="262"/>
	<unicode hex="00A6"/>
	<note>
		brokenbar
	</note>
	<outline>
		<contour>
			<point x="115" y="350" type="line"/>
			<point x="183" y="350" type="line"/>
			<point x="255" y="690" type="line"/>
			<point x="187" y="690" type="line"/>
		</contour>
		<contour>
			<point x="7" y="-160" type="line"/>
			<point x="75" y="-160" type="line"/>
			<point x="147" y="180" type="line"/>
			<point x="79" y="180" type="line"/>
		</contour>
	</outline>
</glyph>
<glyph name="guillemotleft" format="2">
	<advance width="592"/>
	<unicode hex="00AB"/>
	<note>
		guillemotleft
	</note>
	<outline>
		<contour>
			<point x="210" y="248" type="line"/>
			<point x="383" y="414" type="line"/>
			<point x="296" y="414" type="line"/>
			<point x="123" y="248" type="line"/>
			<point x="225" y="82" type="line"/>
			<point x="312" y="82" type="line"/>
		</contour>
		<contour>
			<point x="397" y="248" type="line"/>
			<point x="570" y="414" type="line"/>
			<point x="483" y="414" type="line"/>
			<point x="310" y="248" type="line"/>
			<point x="412" y="82" type="line"/>
			<point x="499" y="82" type="line"/>
		</contour>
	</outline>
</glyph>
<glyph name="registered" format="2">
	<advance width="503"/>
	<unicode hex="00AE"/>
	<note>
		registered
	</note>
	<outline>
		<contour>
			<point x="357" y="764" type="curve" smooth="yes"/>
			<point x="234" y="764"/>
			<point x="129" y="677"/>
			<point x="102" y="554" type="curve" smooth="yes"/>
			<point x="76" y="431"/>
			<point x="145" y="344"/>
			<point x="268" y="344" type="curve" smooth="yes"/>
			<point x="392" y="344"/>
			<point x="496" y="431"/>
			<point x="522" y="554" type="curve" smooth="yes"/>
			<point x="549" y="677"/>
			<point x="481" y="764"/>
		</contour>
		<contour>
			<point x="278" y="393" type="curve" smooth="yes"/>
			<point x="185" y="393"/>
			<point x="133" y="460"/>
			<point x="153" y="554" type="curve" smooth="yes"/>
			<point x="174" y="649"/>
			<point x="254" y="716"/>
			<point x="347" y="716" type="curve" smooth="yes"/>
			<point x="441" y="716"/>
			<point x="492" y="649"/>
			<point x="471" y="554" type="curve" smooth="yes"/>
			<point x="451" y="460"/>
			<point x="372" y="393"/>
		</contour>
		<contour>
			<point x="361" y="554" type="curve"/>
			<point x="386" y="561"/>
			<point x="407" y="577"/>
			<point x="413" y="604" type="curve" smooth="yes"/>
			<point x="420" y="638"/>
			<point x="398" y="656"/>
			<point x="358" y="660" type="curve" smooth="yes"/>
			<point x="349" y="661"/>
			<point x="341" y="661"/>
			<point x="331" y="661" type="curve" smooth="yes"/>
			<point x="259" y="661" type="line"/>
			<point x="215" y="455" type="line"/>
			<point x="267" y="455" type="line"/>
			<point x="282" y="523" type="line"/>
			<point x="303" y="523" type="line" smooth="yes"/>
			<point x="319" y="523"/>
			<point x="329" y="517"/>
			<point x="327" y="499" type="curve" smooth="yes"/>
			<point x="325" y="481"/>
			<point x="324" y="467"/>
			<point x="324" y="455" type="curve"/>
			<point x="383" y="455" type="line"/>
			<point x="381" y="466"/>
			<point x="379" y="482"/>
			<point x="382" y="509" type="curve" smooth="yes"/>
			<point x="385" y="531"/>
			<point x="380" y="549"/>
		</contour>
		<contour>
			<point x="328" y="567" type="curve" smooth="yes"/>
			<point x="322" y="566"/>
			<point x="317" y="566"/>
			<point x="309" y="566" type="curve" smooth="yes"/>
			<point x="291" y="566" type="line"/>
			<point x="302" y="619" type="line"/>
			<point x="320" y="619" type="line" smooth="yes"/>
			<point x="329" y="619"/>
			<point x="333" y="619"/>
			<point x="339" y="618" type="curve" smooth="yes"/>
			<point x="350" y="615"/>
			<point x="357" y="608"/>
			<point x="354" y="593" type="curve" smooth="yes"/>
			<point x="351" y="579"/>
			<point x="343" y="570"/>
		</contour>
	</outline>
</glyph>
<glyph name="paragraph" format="2">
	<advance width="579"/>
	<unicode hex="00B6"/>
	<note>
		paragraph
	</note>
	<outline>
		<contour>
			<point x="427" y="-110" type="line"/>
			<point x="597" y="690" type="line"/>
			<point x="346" y="690" type="line" smooth="yes"/>
			<point x="328" y="690"/>
			<point x="307" y="690"/>
			<point x="290" y="689" type="curve" smooth="yes"/>
			<point x="187" y="683"/>
			<point x="114" y="600"/>
			<point x="94" y="505" type="curve" smooth="yes"/>
			<point x="74" y="410"/>
			<point x="111" y="327"/>
			<point x="212" y="321" type="curve" smooth="yes"/>
			<point x="229" y="320"/>
			<point x="250" y="320"/>
			<point x="268" y="320" type="curve" smooth="yes"/>
			<point x="285" y="320" type="line"/>
			<point x="193" y="-110" type="line"/>
			<point x="261" y="-110" type="line"/>
			<point x="417" y="624" type="line"/>
			<point x="515" y="624" type="line"/>
			<point x="359" y="-110" type="line"/>
		</contour>
	</outline>
</glyph>
<glyph name="cedilla" format="2">
	<advance width="300"/>
	<unicode hex="00B8"/>
	<note>
		cedilla
	</note>
	<outline>
		<contour>
			<point x="96" y="-41" type="curve"/>
			<point x="133" y="9" type="line"/>
			<point x="72" y="9" type="line"/>
			<point x="5" y="-81" type="line"/>
			<point x="77" y="-76"/>
			<point x="99" y="-91"/>
			<point x="93" y="-122" type="curve" smooth="yes"/>
			<point x="88" y="-146"/>
			<point x="64" y="-161"/>
			<point x="22" y="-161" type="curve" smooth="yes"/>
			<point x="3" y="-161"/>
			<point x="-13" y="-159"/>
			<point x="-29" y="-151" type="curve"/>
			<point x="-40" y="-202" type="line"/>
			<point x="-27" y="-208"/>
			<point x="-9" y="-210"/>
			<point x="10" y="-210" type="curve" smooth="yes"/>
			<point x="88" y="-210"/>
			<point x="150" y="-181"/>
			<point x="163" y="-122" type="curve" smooth="yes"/>
			<point x="173" y="-76"/>
			<point x="149" y="-48"/>
		</contour>
	</outline>
</glyph>
<glyph name="questiondown" format="2">
	<advance width="508"/>
	<unicode hex="00BF"/>
	<note>
		questiondown
	</note>
	<outline>
		<contour>
			<point x="186" y="-173" type="curve" smooth="yes"/>
			<point x="324" y="-173"/>
			<point x="435" y="-90"/>
			<point x="467" y="42" type="curve"/>
			<point x="355" y="42" type="line"/>
			<point x="330" y="-45"/>
			<point x="277" y="-89"/>
			<point x="209" y="-89" type="curve" smooth="yes"/>
			<point x="143" y="-89"/>
			<point x="114" y="-48"/>
			<point x="128" y="16" type="curve" smooth="yes"/>
			<point x="140" y="70"/>
			<point x="170" y="108"/>
			<point x="253" y="183" type="curve" smooth="yes"/>
			<point x="317" y="242"/>
			<point x="344" y="279"/>
			<point x="363" y="344" type="curve"/>
			<point x="262" y="344" type="line"/>
			<point x="247" y="294"/>
			<point x="225" y="267"/>
			<point x="156" y="211" type="curve" smooth="yes"/>
			<point x="70" y="144"/>
			<point x="24" y="85"/>
			<point x="8" y="13" type="curve" smooth="yes"/>
			<point x="-15" y="-96"/>
			<point x="47" y="-173"/>
		</contour>
		<contour>
			<point x="303" y="544" type="line"/>
			<point x="272" y="398" type="line"/>
			<point x="375" y="398" type="line"/>
			<point x="406" y="544" type="line"/>
		</contour>
	</outline>
</glyph>
<glyph name="Adieresis" format="2">
	<advance width="656"/>
	<unicode hex="00C4"/>
	<note>
		Adieresis
	</note>
	<outline>
		<contour>
			<point x="207" y="228" type="line"/>
			<point x="452" y="228" type="line"/>
			<point x="479" y="0" type="line"/>
			<point x="598" y="0" type="line"/>
			<point x="503" y="690" type="line"/>
			<point x="361" y="690" type="line"/>
			<point x="-33" y="0" type="line"/>
			<point x="84" y="0" type="line"/>
		</contour>
		<contour>
			<point x="442" y="315" type="line"/>
			<point x="255" y="315" type="line"/>
			<point x="411" y="599" type="line"/>
		</contour>
		<contour>
			<point x="333" y="839" type="line"/>
			<point x="310" y="733" type="line"/>
			<point x="418" y="733" type="line"/>
			<point x="441" y="839" type="line"/>
		</contour>
		<contour>
			<point x="488" y="839" type="line"/>
			<point x="465" y="733" type="line"/>
			<point x="573" y="733" type="line"/>
			<point x="596" y="839" type="line"/>
		</contour>
	</outline>
</glyph>
<glyph name="AE" format="2">
	<advance width="930"/>
	<unicode hex="00C6"/>
	<note>
		AE
	</note>
	<outline>
		<contour>
			<point x="846" y="0" type="line"/>
			<point x="864" y="88" type="line"/>
			<point x="517" y="88" type="line"/>
			<point x="547" y="302" type="line"/>
			<point x="872" y="302" type="line"/>
			<point x="890" y="389" type="line"/>
			<point x="559" y="389" type="line"/>
			<point x="589" y="603" type="line"/>
			<point x="964" y="603" type="line"/>
			<point x="982" y="690" type="line"/>
			<point x="442" y="690" type="line"/>
			<point x="-93" y="0" type="line"/>
			<point x="25" y="0" type="line"/>
			<point x="202" y="235" type="line"/>
			<point x="428" y="235" type="line"/>
			<point x="395" y="0" type="line"/>
		</contour>
		<contour>
			<point x="479" y="602" type="line"/>
			<point x="440" y="323" type="line"/>
			<point x="268" y="323" type="line"/>
		</contour>
	</outline>
</glyph>
<glyph name="Egrave" format="2">
	<advance width="600"/>
	<unicode hex="00C8"/>
	<note>
		Egrave
	</note>
	<outline>
		<contour>
			<point x="335" y="838" type="line"/>
			<point x="410" y="736" type="line"/>
			<point x="476" y="736" type="line"/>
			<point x="435" y="838" type="line"/>
		</contour>
		<contour>
			<point x="516" y="0" type="line"/>
			<point x="534" y="88" type="line"/>
			<point x="167" y="88" type="line"/>
			<point x="213" y="302" type="line"/>
			<point x="542" y="302" type="line"/>
			<point x="560" y="389" type="line"/>
			<point x="231" y="389" type="line"/>
			<point x="277" y="603" type="line"/>
			<point x="634" y="603" type="line"/>
			<point x="652" y="690" type="line"/>
			<point x="185" y="690" type="line"/>
			<point x="39" y="0" type="line"/>
		</contour>
	</outline>
</glyph>
<glyph name="Ecircumflex" format="2">
	<advance width="600"/>
	<unicode hex="00CA"/>
	<note>
		Ecircumflex
	</note>
	<outline>
		<contour>
			<point x="331" y="736" type="line"/>
			<point x="406" y="736" type="line"/>
			<point x="450" y="796" type="line"/>
			<point x="468" y="736" type="line"/>
			<point x="544" y="736" type="line"/>
			<point x="500" y="838" type="line"/>
			<point x="419" y="838" type="line"/>
		</contour>
		<contour>
			<point x="516" y="0" type="line"/>
			<point x="534" y="88" type="line"/>
			<point x="167" y="88" type="line"/>
			<point x="213" y="302" type="line"/>
			<point x="542" y="302" type="line"/>
			<point x="560" y="389" type="line"/>
			<point x="231" y="389" type="line"/>
			<point x="277" y="603" type="line"/>
			<point x="634" y="603" type="line"/>
			<point x="652" y="690" type="line"/>
			<point x="185" y="690" type="line"/>
			<point x="39" y="0" type="line"/>
		</contour>
	</outline>
</glyph>
<glyph name="Igrave" format="2">
	<advance width="277"/>
	<unicode hex="00CC"/>
	<note>
		Igrave
	</note>
	<outline>
		<contour>
			<point x="223" y="736" type="line"/>
			<point x="289" y="736" type="line"/>
			<point x="248" y="838" type="line"/>
			<point x="148" y="838" type="line"/>
		</contour>
		<contour>
			<point x="39" y="0" type="line"/>
			<point x="149" y="0" type="line"/>
			<point x="295" y="690" type="line"/>
			<point x="185" y="690" type="line"/>
		</contour>
	</outline>
</glyph>
<glyph name="Iacute" format="2">
	<advance width="277"/>
	<unicode hex="00CD"/>
	<note>
		Iacute
	</note>
	<outline>
		<contour>
			<point x="212" y="736" type="line"/>
			<point x="278" y="736" type="line"/>
			<point x="397" y="838" type="line"/>
			<point x="297" y="838" type="line"/>
		</contour>
		<contour>
			<point x="39" y="0" type="line"/>
			<point x="149" y="0" type="line"/>
			<point x="295" y="690" type="line"/>
			<point x="185" y="690" type="line"/>
		</contour>
	</outline>
</glyph>
<glyph name="Icircumflex" format="2">
	<advance width="277"/>
	<unicode hex="00CE"/>
	<note>
		Icircumflex
	</note>
	<outline>
		<contour>
			<point x="144" y="736" type="line"/>
			<point x="219" y="736" type="line"/>
			<point x="263" y="796" type="line"/>
			<point x="281" y="736" type="line"/>
			<point x="357" y="736" type="line"/>
			<point x="313" y="838" type="line"/>
			<point x="232" y="838" type="line"/>
		</contour>
		<contour>
			<point x="295" y="690" type="line"/>
			<point x="185" y="690" type="line"/>
			<point x="39" y="0" type="line"/>
			<point x="149" y="0" type="line"/>
		</contour>
	</outline>
</glyph>
<glyph name="Eth" format="2">
	<advance width="716"/>
	<unicode hex="00D0"/>
	<note>
		Eth
	</note>
	<outline>
		<contour>
			<point x="491" y="686" type="curve" smooth="yes"/>
			<point x="457" y="690"/>
			<point x="441" y="690"/>
			<point x="404" y="690" type="curve" smooth="yes"/>
			<point x="182" y="690" type="line"/>
			<point x="114" y="368" type="line"/>
			<point x="55" y="368" type="line"/>
			<point x="41" y="302" type="line"/>
			<point x="100" y="302" type="line"/>
			<point x="36" y="0" type="line"/>
			<point x="255" y="0" type="line" smooth="yes"/>
			<point x="292" y="0"/>
			<point x="308" y="0"/>
			<point x="344" y="4" type="curve" smooth="yes"/>
			<point x="508" y="24"/>
			<point x="655" y="147"/>
			<point x="699" y="353" type="curve" smooth="yes"/>
			<point x="743" y="562"/>
			<point x="647" y="667"/>
		</contour>
		<contour>
			<point x="343" y="92" type="curve" smooth="yes"/>
			<point x="320" y="88"/>
			<point x="296" y="88"/>
			<point x="263" y="88" type="curve" smooth="yes"/>
			<point x="163" y="88" type="line"/>
			<point x="209" y="302" type="line"/>
			<point x="337" y="302" type="line"/>
			<point x="351" y="368" type="line"/>
			<point x="223" y="368" type="line"/>
			<point x="273" y="603" type="line"/>
			<point x="376" y="603" type="line" smooth="yes"/>
			<point x="410" y="603"/>
			<point x="433" y="602"/>
			<point x="455" y="598" type="curve" smooth="yes"/>
			<point x="561" y="582"/>
			<point x="613" y="498"/>
			<point x="582" y="353" type="curve" smooth="yes"/>
			<point x="549" y="200"/>
			<point x="457" y="108"/>
		</contour>
	</outline>
</glyph>
<glyph name="Otilde" format="2">
	<advance width="750"/>
	<unicode hex="00D5"/>
	<note>
		Otilde
	</note>
	<outline>
		<contour>
			<point x="438" y="771" type="curve" smooth="yes"/>
			<point x="447" y="771"/>
			<point x="457" y="767"/>
			<point x="479" y="759" type="curve" smooth="yes"/>
			<point x="507" y="748"/>
			<point x="522" y="744"/>
			<point x="543" y="744" type="curve" smooth="yes"/>
			<point x="583" y="744"/>
			<point x="609" y="766"/>
			<point x="623" y="831" type="curve"/>
			<point x="570" y="831" type="line"/>
			<point x="567" y="814"/>
			<point x="560" y="808"/>
			<point x="549" y="808" type="curve" smooth="yes"/>
			<point x="541" y="808"/>
			<point x="530" y="812"/>
			<point x="508" y="820" type="curve" smooth="yes"/>
			<point x="481" y="831"/>
			<point x="466" y="835"/>
			<point x="444" y="835" type="curve" smooth="yes"/>
			<point x="405" y="835"/>
			<point x="378" y="813"/>
			<point x="365" y="748" type="curve"/>
			<point x="417" y="748" type="line"/>
			<point x="420" y="765"/>
			<point x="428" y="771"/>
		</contour>
		<contour>
			<point x="475" y="704" type="curve" smooth="yes"/>
			<point x="263" y="704"/>
			<point x="111" y="559"/>
			<point x="66" y="345" type="curve" smooth="yes"/>
			<point x="21" y="132"/>
			<point x="111" y="-14"/>
			<point x="323" y="-14" type="curve" smooth="yes"/>
			<point x="534" y="-14"/>
			<point x="686" y="132"/>
			<point x="731" y="345" type="curve" smooth="yes"/>
			<point x="776" y="559"/>
			<point x="686" y="704"/>
		</contour>
		<contour>
			<point x="341" y="70" type="curve" smooth="yes"/>
			<point x="206" y="70"/>
			<point x="148" y="174"/>
			<point x="184" y="345" type="curve" smooth="yes"/>
			<point x="221" y="517"/>
			<point x="322" y="620"/>
			<point x="457" y="620" type="curve" smooth="yes"/>
			<point x="591" y="620"/>
			<point x="650" y="517"/>
			<point x="613" y="345" type="curve" smooth="yes"/>
			<point x="577" y="174"/>
			<point x="475" y="70"/>
		</contour>
	</outline>
</glyph>
<glyph name="Oslash" format="2">
	<advance width="756"/>
	<unicode hex="00D8"/>
	<note>
		Oslash
	</note>
	<outline>
		<contour>
			<point x="723" y="570" type="curve"/>
			<point x="804" y="637" type="line"/>
			<point x="766" y="685" type="line"/>
			<point x="690" y="622" type="line"/>
			<point x="645" y="674"/>
			<point x="574" y="704"/>
			<point x="478" y="704" type="curve" smooth="yes"/>
			<point x="267" y="704"/>
			<point x="114" y="559"/>
			<point x="69" y="345" type="curve" smooth="yes"/>
			<point x="50" y="257"/>
			<point x="55" y="180"/>
			<point x="81" y="120" type="curve"/>
			<point x="0" y="53" type="line"/>
			<point x="38" y="5" type="line"/>
			<point x="114" y="68" type="line"/>
			<point x="159" y="16"/>
			<point x="231" y="-14"/>
			<point x="326" y="-14" type="curve" smooth="yes"/>
			<point x="537" y="-14"/>
			<point x="690" y="132"/>
			<point x="735" y="345" type="curve" smooth="yes"/>
			<point x="754" y="434"/>
			<point x="749" y="510"/>
		</contour>
		<contour>
			<point x="187" y="345" type="curve" smooth="yes"/>
			<point x="224" y="517"/>
			<point x="325" y="620"/>
			<point x="460" y="620" type="curve" smooth="yes"/>
			<point x="526" y="620"/>
			<point x="574" y="595"/>
			<point x="601" y="549" type="curve"/>
			<point x="181" y="202" type="line"/>
			<point x="173" y="242"/>
			<point x="175" y="290"/>
		</contour>
		<contour>
			<point x="617" y="345" type="curve" smooth="yes"/>
			<point x="581" y="174"/>
			<point x="479" y="70"/>
			<point x="344" y="70" type="curve" smooth="yes"/>
			<point x="278" y="70"/>
			<point x="230" y="95"/>
			<point x="203" y="141" type="curve"/>
			<point x="623" y="488" type="line"/>
			<point x="631" y="448"/>
			<point x="629" y="400"/>
		</contour>
	</outline>
</glyph>
<glyph name="Ucircumflex" format="2">
	<advance width="691"/>
	<unicode hex="00DB"/>
	<note>
		Ucircumflex
	</note>
	<outline>
		<contour>
			<point x="352" y="736" type="line"/>
			<point x="427" y="736" type="line"/>
			<point x="471" y="796" type="line"/>
			<point x="489" y="736" type="line"/>
			<point x="565" y="736" type="line"/>
			<point x="521" y="838" type="line"/>
			<point x="440" y="838" type="line"/>
		</contour>
		<contour>
			<point x="629" y="267" type="curve" smooth="yes"/>
			<point x="719" y="690" type="line"/>
			<point x="610" y="690" type="line"/>
			<point x="520" y="265" type="line" smooth="yes"/>
			<point x="516" y="244"/>
			<point x="511" y="225"/>
			<point x="506" y="209" type="curve" smooth="yes"/>
			<point x="481" y="126"/>
			<point x="417" y="70"/>
			<point x="317" y="70" type="curve" smooth="yes"/>
			<point x="218" y="70"/>
			<point x="176" y="126"/>
			<point x="187" y="209" type="curve" smooth="yes"/>
			<point x="188" y="225"/>
			<point x="193" y="244"/>
			<point x="197" y="265" type="curve" smooth="yes"/>
			<point x="287" y="690" type="line"/>
			<point x="178" y="690" type="line"/>
			<point x="88" y="267" type="line" smooth="yes"/>
			<point x="83" y="242"/>
			<point x="79" y="222"/>
			<point x="75" y="196" type="curve" smooth="yes"/>
			<point x="60" y="81"/>
			<point x="119" y="-14"/>
			<point x="299" y="-14" type="curve" smooth="yes"/>
			<point x="479" y="-14"/>
			<point x="578" y="81"/>
			<point x="612" y="196" type="curve" smooth="yes"/>
			<point x="620" y="222"/>
			<point x="624" y="242"/>
		</contour>
	</outline>
</glyph>
<glyph name="Thorn" format="2">
	<advance width="636"/>
	<unicode hex="00DE"/>
	<note>
		Thorn
	</note>
	<outline>
		<contour>
			<point x="492" y="598" type="curve" smooth="yes"/>
			<point x="461" y="602"/>
			<point x="436" y="602"/>
			<point x="399" y="602" type="curve" smooth="yes"/>
			<point x="277" y="602" type="line"/>
			<point x="295" y="690" type="line"/>
			<point x="185" y="690" type="line"/>
			<point x="39" y="0" type="line"/>
			<point x="149" y="0" type="line"/>
			<point x="192" y="202" type="line"/>
			<point x="314" y="202" type="line" smooth="yes"/>
			<point x="351" y="202"/>
			<point x="376" y="202"/>
			<point x="408" y="206" type="curve" smooth="yes"/>
			<point x="511" y="219"/>
			<point x="601" y="285"/>
			<point x="626" y="403" type="curve" smooth="yes"/>
			<point x="651" y="521"/>
			<point x="589" y="585"/>
		</contour>
		<contour>
			<point x="398" y="295" type="curve" smooth="yes"/>
			<point x="380" y="292"/>
			<point x="356" y="291"/>
			<point x="328" y="291" type="curve" smooth="yes"/>
			<point x="211" y="291" type="line"/>
			<point x="258" y="513" type="line"/>
			<point x="375" y="513" type="line" smooth="yes"/>
			<point x="403" y="513"/>
			<point x="427" y="512"/>
			<point x="444" y="509" type="curve" smooth="yes"/>
			<point x="490" y="500"/>
			<point x="525" y="470"/>
			<point x="510" y="402" type="curve" smooth="yes"/>
			<point x="495" y="333"/>
			<point x="448" y="304"/>
		</contour>
	</outline>
</glyph>
<glyph name="germandbls" format="2">
	<advance width="623"/>
	<unicode hex="00DF"/>
	<note>
		germandbls
	</note>
	<outline>
		<contour>
			<point x="417" y="754" type="curve" smooth="yes"/>
			<point x="284" y="754"/>
			<point x="168" y="683"/>
			<point x="130" y="542" type="curve" smooth="yes"/>
			<point x="125" y="524"/>
			<point x="119" y="498"/>
			<point x="112" y="468" type="curve" smooth="yes"/>
			<point x="13" y="0" type="line"/>
			<point x="123" y="0" type="line"/>
			<point x="224" y="476" type="line" smooth="yes"/>
			<point x="230" y="507"/>
			<point x="235" y="526"/>
			<point x="239" y="540" type="curve" smooth="yes"/>
			<point x="264" y="626"/>
			<point x="324" y="670"/>
			<point x="395" y="670" type="curve" smooth="yes"/>
			<point x="474" y="670"/>
			<point x="504" y="633"/>
			<point x="491" y="573" type="curve" smooth="yes"/>
			<point x="487" y="552"/>
			<point x="479" y="535"/>
			<point x="462" y="514" type="curve"/>
			<point x="396" y="483"/>
			<point x="363" y="446"/>
			<point x="353" y="398" type="curve" smooth="yes"/>
			<point x="341" y="341"/>
			<point x="359" y="311"/>
			<point x="406" y="257" type="curve" smooth="yes"/>
			<point x="445" y="214"/>
			<point x="450" y="187"/>
			<point x="444" y="156" type="curve" smooth="yes"/>
			<point x="434" y="109"/>
			<point x="400" y="79"/>
			<point x="341" y="79" type="curve" smooth="yes"/>
			<point x="319" y="79"/>
			<point x="292" y="81"/>
			<point x="250" y="92" type="curve"/>
			<point x="232" y="6" type="line"/>
			<point x="269" y="-2"/>
			<point x="295" y="-4"/>
			<point x="338" y="-4" type="curve" smooth="yes"/>
			<point x="441" y="-4"/>
			<point x="540" y="49"/>
			<point x="560" y="145" type="curve" smooth="yes"/>
			<point x="576" y="218"/>
			<point x="559" y="256"/>
			<point x="513" y="305" type="curve" smooth="yes"/>
			<point x="478" y="342"/>
			<point x="465" y="364"/>
			<point x="472" y="398" type="curve" smooth="yes"/>
			<point x="478" y="426"/>
			<point x="506" y="450"/>
			<point x="560" y="476" type="curve"/>
			<point x="589" y="510"/>
			<point x="604" y="544"/>
			<point x="611" y="574" type="curve" smooth="yes"/>
			<point x="634" y="682"/>
			<point x="562" y="754"/>
		</contour>
	</outline>
</glyph>
<glyph name="aring" format="2">
	<advance width="545"/>
	<unicode hex="00E5"/>
	<note>
		aring
	</note>
	<outline>
		<contour>
			<point x="335" y="566" type="curve" smooth="yes"/>
			<point x="392" y="566"/>
			<point x="441" y="603"/>
			<point x="452" y="655" type="curve" smooth="yes"/>
			<point x="463" y="708"/>
			<point x="430" y="745"/>
			<point x="373" y="745" type="curve" smooth="yes"/>
			<point x="316" y="745"/>
			<point x="267" y="708"/>
			<point x="256" y="655" type="curve" smooth="yes"/>
			<point x="245" y="603"/>
			<point x="278" y="566"/>
		</contour>
		<contour>
			<point x="364" y="702" type="curve" smooth="yes"/>
			<point x="387" y="702"/>
			<point x="400" y="684"/>
			<point x="394" y="655" type="curve" smooth="yes"/>
			<point x="388" y="626"/>
			<point x="367" y="609"/>
			<point x="344" y="609" type="curve" smooth="yes"/>
			<point x="321" y="609"/>
			<point x="308" y="626"/>
			<point x="314" y="655" type="curve" smooth="yes"/>
			<point x="320" y="684"/>
			<point x="341" y="702"/>
		</contour>
		<contour>
			<point x="325" y="77" type="line"/>
			<point x="319" y="0" type="line"/>
			<point x="428" y="0" type="line"/>
			<point x="432" y="59"/>
			<point x="438" y="95"/>
			<point x="446" y="135" type="curve" smooth="yes"/>
			<point x="486" y="322" type="line" smooth="yes"/>
			<point x="491" y="347"/>
			<point x="496" y="375"/>
			<point x="499" y="397" type="curve" smooth="yes"/>
			<point x="509" y="487"/>
			<point x="468" y="545"/>
			<point x="331" y="545" type="curve" smooth="yes"/>
			<point x="210" y="545"/>
			<point x="108" y="479"/>
			<point x="77" y="363" type="curve"/>
			<point x="187" y="363" type="line"/>
			<point x="207" y="429"/>
			<point x="248" y="465"/>
			<point x="312" y="465" type="curve" smooth="yes"/>
			<point x="375" y="465"/>
			<point x="395" y="435"/>
			<point x="389" y="392" type="curve" smooth="yes"/>
			<point x="387" y="372"/>
			<point x="383" y="354"/>
			<point x="379" y="334" type="curve" smooth="yes"/>
			<point x="376" y="321" type="line"/>
			<point x="342" y="321" type="line" smooth="yes"/>
			<point x="141" y="321"/>
			<point x="33" y="257"/>
			<point x="8" y="139" type="curve" smooth="yes"/>
			<point x="-13" y="40"/>
			<point x="53" y="-14"/>
			<point x="147" y="-14" type="curve" smooth="yes"/>
			<point x="197" y="-14"/>
			<point x="245" y="-5"/>
			<point x="286" y="20" type="curve"/>
		</contour>
		<contour>
			<point x="204" y="66" type="curve" smooth="yes"/>
			<point x="146" y="66"/>
			<point x="114" y="92"/>
			<point x="126" y="148" type="curve" smooth="yes"/>
			<point x="143" y="229"/>
			<point x="234" y="258"/>
			<point x="360" y="248" type="curve"/>
			<point x="350" y="199" type="line" smooth="yes"/>
			<point x="332" y="113"/>
			<point x="273" y="66"/>
		</contour>
	</outline>
</glyph>
<glyph name="ae" format="2">
	<advance width="910"/>
	<unicode hex="00E6"/>
	<note>
		ae
	</note>
	<outline>
		<contour>
			<point x="877" y="279" type="curve" smooth="yes"/>
			<point x="909" y="429"/>
			<point x="850" y="545"/>
			<point x="699" y="545" type="curve" smooth="yes"/>
			<point x="616" y="545"/>
			<point x="544" y="511"/>
			<point x="490" y="450" type="curve"/>
			<point x="477" y="511"/>
			<point x="429" y="545"/>
			<point x="331" y="545" type="curve" smooth="yes"/>
			<point x="204" y="545"/>
			<point x="104" y="479"/>
			<point x="77" y="363" type="curve"/>
			<point x="187" y="363" type="line"/>
			<point x="204" y="429"/>
			<point x="248" y="465"/>
			<point x="315" y="465" type="curve" smooth="yes"/>
			<point x="390" y="465"/>
			<point x="410" y="415"/>
			<point x="393" y="334" type="curve" smooth="yes"/>
			<point x="388" y="312" type="line"/>
			<point x="348" y="312" type="line" smooth="yes"/>
			<point x="149" y="312"/>
			<point x="34" y="261"/>
			<point x="8" y="140" type="curve" smooth="yes"/>
			<point x="-13" y="40"/>
			<point x="58" y="-14"/>
			<point x="162" y="-14" type="curve" smooth="yes"/>
			<point x="220" y="-14"/>
			<point x="279" y="0"/>
			<point x="336" y="41" type="curve"/>
			<point x="387" y="103" type="line"/>
			<point x="411" y="19"/>
			<point x="478" y="-14"/>
			<point x="567" y="-14" type="curve" smooth="yes"/>
			<point x="683" y="-14"/>
			<point x="795" y="46"/>
			<point x="846" y="172" type="curve"/>
			<point x="734" y="172" type="line"/>
			<point x="709" y="105"/>
			<point x="652" y="66"/>
			<point x="587" y="66" type="curve" smooth="yes"/>
			<point x="516" y="66"/>
			<point x="468" y="114"/>
			<point x="486" y="235" type="curve"/>
			<point x="865" y="235" type="line"/>
			<point x="871" y="254"/>
			<point x="875" y="269"/>
		</contour>
		<contour>
			<point x="771" y="312" type="curve"/>
			<point x="503" y="312" type="line"/>
			<point x="536" y="413"/>
			<point x="600" y="465"/>
			<point x="676" y="465" type="curve" smooth="yes"/>
			<point x="753" y="465"/>
			<point x="783" y="410"/>
		</contour>
		<contour>
			<point x="372" y="235" type="curve"/>
			<point x="366" y="210" type="line" smooth="yes"/>
			<point x="347" y="121"/>
			<point x="280" y="66"/>
			<point x="207" y="66" type="curve" smooth="yes"/>
			<point x="146" y="66"/>
			<point x="114" y="92"/>
			<point x="126" y="149" type="curve" smooth="yes"/>
			<point x="142" y="225"/>
			<point x="228" y="241"/>
		</contour>
	</outline>
</glyph>
<glyph name="ccedilla" format="2">
	<advance width="544"/>
	<unicode hex="00E7"/>
	<note>
		ccedilla
	</note>
	<outline>
		<contour>
			<point x="237" y="66" type="curve" smooth="yes"/>
			<point x="163" y="66"/>
			<point x="116" y="127"/>
			<point x="146" y="271" type="curve" smooth="yes"/>
			<point x="175" y="404"/>
			<point x="249" y="465"/>
			<point x="326" y="465" type="curve" smooth="yes"/>
			<point x="391" y="465"/>
			<point x="426" y="428"/>
			<point x="424" y="347" type="curve"/>
			<point x="535" y="347" type="line"/>
			<point x="547" y="464"/>
			<point x="480" y="545"/>
			<point x="346" y="545" type="curve" smooth="yes"/>
			<point x="207" y="545"/>
			<point x="67" y="444"/>
			<point x="29" y="263" type="curve" smooth="yes"/>
			<point x="-8" y="92"/>
			<point x="59" y="4"/>
			<point x="174" y="-11" type="curve"/>
			<point x="123" y="-81" type="line"/>
			<point x="195" y="-76"/>
			<point x="217" y="-91"/>
			<point x="211" y="-122" type="curve" smooth="yes"/>
			<point x="206" y="-146"/>
			<point x="182" y="-161"/>
			<point x="140" y="-161" type="curve" smooth="yes"/>
			<point x="121" y="-161"/>
			<point x="105" y="-159"/>
			<point x="89" y="-151" type="curve"/>
			<point x="78" y="-202" type="line"/>
			<point x="91" y="-208"/>
			<point x="109" y="-210"/>
			<point x="128" y="-210" type="curve" smooth="yes"/>
			<point x="206" y="-210"/>
			<point x="268" y="-181"/>
			<point x="281" y="-122" type="curve" smooth="yes"/>
			<point x="291" y="-76"/>
			<point x="267" y="-48"/>
			<point x="214" y="-41" type="curve"/>
			<point x="234" y="-13" type="line"/>
			<point x="350" y="-7"/>
			<point x="447" y="56"/>
			<point x="496" y="176" type="curve"/>
			<point x="384" y="176" type="line"/>
			<point x="353" y="104"/>
			<point x="300" y="66"/>
		</contour>
	</outline>
</glyph>
<glyph name="edieresis" format="2">
	<advance width="562"/>
	<unicode hex="00EB"/>
	<note>
		edieresis
	</note>
	<outline>
		<contour>
			<point x="529" y="279" type="curve" smooth="yes"/>
			<point x="561" y="429"/>
			<point x="503" y="545"/>
			<point x="349" y="545" type="curve" smooth="yes"/>
			<point x="196" y="545"/>
			<point x="64" y="432"/>
			<point x="29" y="264" type="curve" smooth="yes"/>
			<point x="-11" y="76"/>
			<point x="77" y="-14"/>
			<point x="219" y="-14" type="curve" smooth="yes"/>
			<point x="335" y="-14"/>
			<point x="448" y="46"/>
			<point x="498" y="172" type="curve"/>
			<point x="387" y="172" type="line"/>
			<point x="362" y="105"/>
			<point x="304" y="66"/>
			<point x="240" y="66" type="curve" smooth="yes"/>
			<point x="168" y="66"/>
			<point x="119" y="108"/>
			<point x="137" y="235" type="curve"/>
			<point x="518" y="235" type="line"/>
			<point x="524" y="254"/>
			<point x="527" y="269"/>
		</contour>
		<contour>
			<point x="328" y="465" type="curve" smooth="yes"/>
			<point x="405" y="465"/>
			<point x="436" y="410"/>
			<point x="423" y="312" type="curve"/>
			<point x="154" y="312" type="line"/>
			<point x="188" y="414"/>
			<point x="253" y="465"/>
		</contour>
		<contour>
			<point x="244" y="686" type="line"/>
			<point x="222" y="580" type="line"/>
			<point x="330" y="580" type="line"/>
			<point x="352" y="686" type="line"/>
		</contour>
		<contour>
			<point x="399" y="686" type="line"/>
			<point x="377" y="580" type="line"/>
			<point x="485" y="580" type="line"/>
			<point x="507" y="686" type="line"/>
		</contour>
	</outline>
</glyph>
<glyph name="igrave" format="2">
	<advance width="251"/>
	<unicode hex="00EC"/>
	<note>
		igrave
	</note>
	<outline>
		<contour>
			<point x="166" y="578" type="line"/>
			<point x="232" y="578" type="line"/>
			<point x="188" y="692" type="line"/>
			<point x="88" y="692" type="line"/>
		</contour>
		<contour>
			<point x="13" y="0" type="line"/>
			<point x="123" y="0" type="line"/>
			<point x="236" y="531" type="line"/>
			<point x="126" y="531" type="line"/>
		</contour>
	</outline>
</glyph>
<glyph name="icircumflex" format="2">
	<advance width="251"/>
	<unicode hex="00EE"/>
	<note>
		icircumflex
	</note>
	<outline>
		<contour>
			<point x="85" y="578" type="line"/>
			<point x="158" y="578" type="line"/>
			<point x="204" y="643" type="line"/>
			<point x="224" y="578" type="line"/>
			<point x="298" y="578" type="line"/>
			<point x="256" y="692" type="line"/>
			<point x="175" y="692" type="line"/>
		</contour>
		<contour>
			<point x="236" y="531" type="line"/>
			<point x="126" y="531" type="line"/>
			<point x="13" y="0" type="line"/>
			<point x="123" y="0" type="line"/>
		</contour>
	</outline>
</glyph>
<glyph name="otilde" format="2">
	<advance width="595"/>
	<unicode hex="00F5"/>
	<note>
		otilde
	</note>
	<outline>
		<contour>
			<point x="321" y="616" type="curve" smooth="yes"/>
			<point x="330" y="616"/>
			<point x="340" y="613"/>
			<point x="362" y="604" type="curve" smooth="yes"/>
			<point x="390" y="594"/>
			<point x="405" y="590"/>
			<point x="426" y="590" type="curve" smooth="yes"/>
			<point x="466" y="590"/>
			<point x="493" y="611"/>
			<point x="507" y="677" type="curve"/>
			<point x="454" y="677" type="line"/>
			<point x="450" y="660"/>
			<point x="444" y="654"/>
			<point x="433" y="654" type="curve" smooth="yes"/>
			<point x="425" y="654"/>
			<point x="413" y="657"/>
			<point x="391" y="666" type="curve" smooth="yes"/>
			<point x="365" y="677"/>
			<point x="349" y="680"/>
			<point x="327" y="680" type="curve" smooth="yes"/>
			<point x="288" y="680"/>
			<point x="262" y="659"/>
			<point x="248" y="594" type="curve"/>
			<point x="300" y="594" type="line"/>
			<point x="303" y="610"/>
			<point x="311" y="616"/>
		</contour>
		<contour>
			<point x="358" y="545" type="curve" smooth="yes"/>
			<point x="179" y="545"/>
			<point x="62" y="421"/>
			<point x="29" y="266" type="curve" smooth="yes"/>
			<point x="-4" y="111"/>
			<point x="60" y="-14"/>
			<point x="239" y="-14" type="curve" smooth="yes"/>
			<point x="417" y="-14"/>
			<point x="534" y="111"/>
			<point x="567" y="266" type="curve" smooth="yes"/>
			<point x="600" y="421"/>
			<point x="536" y="545"/>
		</contour>
		<contour>
			<point x="256" y="66" type="curve" smooth="yes"/>
			<point x="159" y="66"/>
			<point x="120" y="146"/>
			<point x="145" y="266" type="curve" smooth="yes"/>
			<point x="171" y="386"/>
			<point x="244" y="465"/>
			<point x="341" y="465" type="curve" smooth="yes"/>
			<point x="437" y="465"/>
			<point x="476" y="386"/>
			<point x="450" y="266" type="curve" smooth="yes"/>
			<point x="425" y="146"/>
			<point x="352" y="66"/>
		</contour>
	</outline>
</glyph>
<glyph name="oslash" format="2">
	<advance width="625"/>
	<unicode hex="00F8"/>
	<note>
		oslash
	</note>
	<outline>
		<contour>
			<point x="565" y="434" type="curve"/>
			<point x="651" y="505" type="line"/>
			<point x="613" y="553" type="line"/>
			<point x="531" y="485" type="line"/>
			<point x="496" y="523"/>
			<point x="441" y="545"/>
			<point x="365" y="545" type="curve" smooth="yes"/>
			<point x="187" y="545"/>
			<point x="69" y="421"/>
			<point x="36" y="266" type="curve" smooth="yes"/>
			<point x="22" y="199"/>
			<point x="26" y="137"/>
			<point x="49" y="88" type="curve"/>
			<point x="-26" y="26" type="line"/>
			<point x="12" y="-22" type="line"/>
			<point x="86" y="39" type="line"/>
			<point x="122" y="6"/>
			<point x="175" y="-14"/>
			<point x="246" y="-14" type="curve" smooth="yes"/>
			<point x="425" y="-14"/>
			<point x="541" y="111"/>
			<point x="574" y="266" type="curve" smooth="yes"/>
			<point x="588" y="329"/>
			<point x="585" y="387"/>
		</contour>
		<contour>
			<point x="153" y="266" type="curve" smooth="yes"/>
			<point x="179" y="386"/>
			<point x="252" y="465"/>
			<point x="348" y="465" type="curve" smooth="yes"/>
			<point x="394" y="465"/>
			<point x="427" y="447"/>
			<point x="446" y="415" type="curve"/>
			<point x="148" y="169" type="line"/>
			<point x="144" y="197"/>
			<point x="146" y="230"/>
		</contour>
		<contour>
			<point x="458" y="266" type="curve" smooth="yes"/>
			<point x="433" y="146"/>
			<point x="360" y="66"/>
			<point x="263" y="66" type="curve" smooth="yes"/>
			<point x="221" y="66"/>
			<point x="189" y="81"/>
			<point x="170" y="108" type="curve"/>
			<point x="464" y="352" type="line"/>
			<point x="467" y="326"/>
			<point x="465" y="298"/>
		</contour>
	</outline>
</glyph>
<glyph name="Abreve" format="2">
	<advance width="656"/>
	<unicode hex="0102"/>
	<note>
		Abreve
	</note>
	<outline>
		<contour>
			<point x="440" y="724" type="curve" smooth="yes"/>
			<point x="511" y="724"/>
			<point x="557" y="761"/>
			<point x="574" y="838" type="curve"/>
			<point x="512" y="838" type="line"/>
			<point x="503" y="803"/>
			<point x="482" y="786"/>
			<point x="453" y="786" type="curve" smooth="yes"/>
			<point x="424" y="786"/>
			<point x="409" y="803"/>
			<point x="416" y="838" type="curve"/>
			<point x="354" y="838" type="line"/>
			<point x="337" y="761"/>
			<point x="368" y="724"/>
		</contour>
		<contour>
			<point x="207" y="228" type="line"/>
			<point x="452" y="228" type="line"/>
			<point x="479" y="0" type="line"/>
			<point x="598" y="0" type="line"/>
			<point x="503" y="690" type="line"/>
			<point x="361" y="690" type="line"/>
			<point x="-33" y="0" type="line"/>
			<point x="84" y="0" type="line"/>
		</contour>
		<contour>
			<point x="442" y="315" type="line"/>
			<point x="255" y="315" type="line"/>
			<point x="411" y="599" type="line"/>
		</contour>
	</outline>
</glyph>
<glyph name="Aogonek" format="2">
	<advance width="656"/>
	<unicode hex="0104"/>
	<note>
		Aogonek
	</note>
	<outline>
		<contour>
			<point x="450" y="-107" type="curve" smooth="yes"/>
			<point x="462" y="-50"/>
			<point x="509" y="-7"/>
			<point x="555" y="0" type="curve"/>
			<point x="598" y="0" type="line"/>
			<point x="503" y="690" type="line"/>
			<point x="361" y="690" type="line"/>
			<point x="-33" y="0" type="line"/>
			<point x="84" y="0" type="line"/>
			<point x="207" y="228" type="line"/>
			<point x="452" y="228" type="line"/>
			<point x="478" y="10" type="line"/>
			<point x="418" y="-14"/>
			<point x="356" y="-67"/>
			<point x="341" y="-138" type="curve" smooth="yes"/>
			<point x="328" y="-201"/>
			<point x="363" y="-223"/>
			<point x="421" y="-223" type="curve" smooth="yes"/>
			<point x="462" y="-223"/>
			<point x="499" y="-212"/>
			<point x="529" y="-192" type="curve"/>
			<point x="541" y="-137" type="line"/>
			<point x="520" y="-151"/>
			<point x="501" y="-157"/>
			<point x="483" y="-157" type="curve" smooth="yes"/>
			<point x="456" y="-157"/>
			<point x="442" y="-144"/>
		</contour>
		<contour>
			<point x="442" y="315" type="line"/>
			<point x="255" y="315" type="line"/>
			<point x="411" y="599" type="line"/>
		</contour>
	</outline>
</glyph>
<glyph name="Cacute" format="2">
	<advance width="708"/>
	<unicode hex="0106"/>
	<note>
		Cacute
	</note>
	<outline>
		<contour>
			<point x="433" y="736" type="line"/>
			<point x="499" y="736" type="line"/>
			<point x="618" y="838" type="line"/>
			<point x="518" y="838" type="line"/>
		</contour>
		<contour>
			<point x="472" y="704" type="curve" smooth="yes"/>
			<point x="278" y="704"/>
			<point x="111" y="559"/>
			<point x="65" y="342" type="curve" smooth="yes"/>
			<point x="21" y="132"/>
			<point x="111" y="-14"/>
			<point x="308" y="-14" type="curve" smooth="yes"/>
			<point x="488" y="-14"/>
			<point x="611" y="89"/>
			<point x="653" y="224" type="curve" smooth="yes"/>
			<point x="656" y="234" type="line"/>
			<point x="547" y="234" type="line"/>
			<point x="543" y="224" type="line" smooth="yes"/>
			<point x="505" y="131"/>
			<point x="435" y="70"/>
			<point x="331" y="70" type="curve" smooth="yes"/>
			<point x="209" y="70"/>
			<point x="149" y="176"/>
			<point x="185" y="347" type="curve" smooth="yes"/>
			<point x="220" y="510"/>
			<point x="324" y="620"/>
			<point x="452" y="620" type="curve" smooth="yes"/>
			<point x="556" y="620"/>
			<point x="601" y="561"/>
			<point x="600" y="468" type="curve" smooth="yes"/>
			<point x="600" y="458" type="line"/>
			<point x="709" y="458" type="line"/>
			<point x="710" y="468" type="line" smooth="yes"/>
			<point x="725" y="604"/>
			<point x="652" y="704"/>
		</contour>
	</outline>
</glyph>
<glyph name="cdotaccent" format="2">
	<advance width="544"/>
	<unicode hex="010B"/>
	<note>
		cdotaccent
	</note>
	<outline>
		<contour>
			<point x="371" y="716" type="curve" smooth="yes"/>
			<point x="334" y="716"/>
			<point x="301" y="689"/>
			<point x="293" y="653" type="curve" smooth="yes"/>
			<point x="286" y="616"/>
			<point x="307" y="589"/>
			<point x="344" y="589" type="curve" smooth="yes"/>
			<point x="381" y="589"/>
			<point x="415" y="616"/>
			<point x="422" y="653" type="curve" smooth="yes"/>
			<point x="430" y="689"/>
			<point x="408" y="716"/>
		</contour>
		<contour>
			<point x="346" y="545" type="curve" smooth="yes"/>
			<point x="207" y="545"/>
			<point x="67" y="444"/>
			<point x="29" y="263" type="curve" smooth="yes"/>
			<point x="-12" y="74"/>
			<point x="75" y="-14"/>
			<point x="214" y="-14" type="curve" smooth="yes"/>
			<point x="339" y="-14"/>
			<point x="444" y="49"/>
			<point x="496" y="176" type="curve"/>
			<point x="384" y="176" type="line"/>
			<point x="353" y="104"/>
			<point x="300" y="66"/>
			<point x="237" y="66" type="curve" smooth="yes"/>
			<point x="163" y="66"/>
			<point x="116" y="127"/>
			<point x="146" y="271" type="curve" smooth="yes"/>
			<point x="175" y="404"/>
			<point x="249" y="465"/>
			<point x="326" y="465" type="curve" smooth="yes"/>
			<point x="391" y="465"/>
			<point x="426" y="428"/>
			<point x="424" y="347" type="curve"/>
			<point x="535" y="347" type="line"/>
			<point x="547" y="464"/>
			<point x="480" y="545"/>
		</contour>
	</outline>
</glyph>
<glyph name="dcroat" format="2">
	<advance width="632"/>
	<unicode hex="0111"/>
	<note>
		dcroat
	</note>
	<outline>
		<contour>
			<point x="626" y="590" type="line"/>
			<point x="669" y="590" type="line"/>
			<point x="683" y="656" type="line"/>
			<point x="640" y="656" type="line"/>
			<point x="657" y="735" type="line"/>
			<point x="547" y="735" type="line"/>
			<point x="530" y="656" type="line"/>
			<point x="413" y="656" type="line"/>
			<point x="399" y="590" type="line"/>
			<point x="516" y="590" type="line"/>
			<point x="488" y="459" type="line"/>
			<point x="465" y="512" type="line"/>
			<point x="442" y="533"/>
			<point x="390" y="545"/>
			<point x="346" y="545" type="curve" smooth="yes"/>
			<point x="209" y="545"/>
			<point x="69" y="451"/>
			<point x="27" y="257" type="curve" smooth="yes"/>
			<point x="-6" y="101"/>
			<point x="57" y="-14"/>
			<point x="209" y="-14" type="curve" smooth="yes"/>
			<point x="263" y="-14"/>
			<point x="321" y="2"/>
			<point x="356" y="26" type="curve"/>
			<point x="409" y="84" type="line"/>
			<point x="391" y="0" type="line"/>
			<point x="501" y="0" type="line"/>
		</contour>
		<contour>
			<point x="251" y="66" type="curve" smooth="yes"/>
			<point x="156" y="66"/>
			<point x="121" y="151"/>
			<point x="145" y="266" type="curve" smooth="yes"/>
			<point x="173" y="398"/>
			<point x="254" y="465"/>
			<point x="341" y="465" type="curve" smooth="yes"/>
			<point x="412" y="465"/>
			<point x="479" y="417"/>
			<point x="452" y="288" type="curve" smooth="yes"/>
			<point x="446" y="260" type="line" smooth="yes"/>
			<point x="416" y="118"/>
			<point x="334" y="66"/>
		</contour>
	</outline>
</glyph>
<glyph name="eogonek" format="2">
	<advance width="562"/>
	<unicode hex="0119"/>
	<note>
		eogonek
	</note>
	<outline>
		<contour>
			<point x="529" y="279" type="curve" smooth="yes"/>
			<point x="561" y="429"/>
			<point x="503" y="545"/>
			<point x="349" y="545" type="curve" smooth="yes"/>
			<point x="196" y="545"/>
			<point x="64" y="432"/>
			<point x="29" y="264" type="curve" smooth="yes"/>
			<point x="-9" y="88"/>
			<point x="66" y="-2"/>
			<point x="193" y="-13" type="curve"/>
			<point x="150" y="-41"/>
			<point x="112" y="-84"/>
			<point x="100" y="-138" type="curve" smooth="yes"/>
			<point x="87" y="-201"/>
			<point x="122" y="-223"/>
			<point x="180" y="-223" type="curve" smooth="yes"/>
			<point x="221" y="-223"/>
			<point x="258" y="-212"/>
			<point x="288" y="-192" type="curve"/>
			<point x="300" y="-137" type="line"/>
			<point x="279" y="-151"/>
			<point x="260" y="-157"/>
			<point x="242" y="-157" type="curve" smooth="yes"/>
			<point x="215" y="-157"/>
			<point x="201" y="-144"/>
			<point x="209" y="-107" type="curve" smooth="yes"/>
			<point x="219" y="-58"/>
			<point x="255" y="-20"/>
			<point x="294" y="-5" type="curve"/>
			<point x="300" y="-4"/>
			<point x="306" y="-2"/>
			<point x="314" y="0" type="curve" smooth="yes"/>
			<point x="393" y="24"/>
			<point x="462" y="81"/>
			<point x="498" y="172" type="curve"/>
			<point x="387" y="172" type="line"/>
			<point x="362" y="105"/>
			<point x="304" y="66"/>
			<point x="240" y="66" type="curve" smooth="yes"/>
			<point x="168" y="66"/>
			<point x="119" y="108"/>
			<point x="137" y="235" type="curve"/>
			<point x="518" y="235" type="line"/>
			<point x="524" y="254"/>
			<point x="527" y="269"/>
		</contour>
		<contour>
			<point x="328" y="465" type="curve" smooth="yes"/>
			<point x="405" y="465"/>
			<point x="436" y="410"/>
			<point x="423" y="312" type="curve"/>
			<point x="154" y="312" type="line"/>
			<point x="188" y="414"/>
			<point x="253" y="465"/>
		</contour>
	</outline>
</glyph>
<glyph name="Gbreve" format="2">
	<advance width="722"/>
	<unicode hex="011E"/>
	<note>
		Gbreve
	</note>
	<outline>
		<contour>
			<point x="467" y="724" type="curve" smooth="yes"/>
			<point x="538" y="724"/>
			<point x="584" y="761"/>
			<point x="601" y="838" type="curve"/>
			<point x="539" y="838" type="line"/>
			<point x="530" y="803"/>
			<point x="509" y="786"/>
			<point x="480" y="786" type="curve" smooth="yes"/>
			<point x="451" y="786"/>
			<point x="436" y="803"/>
			<point x="443" y="838" type="curve"/>
			<point x="381" y="838" type="line"/>
			<point x="364" y="761"/>
			<point x="395" y="724"/>
		</contour>
		<contour>
			<point x="679" y="342" type="line"/>
			<point x="418" y="342" type="line"/>
			<point x="400" y="254" type="line"/>
			<point x="554" y="254" type="line"/>
			<point x="524" y="143"/>
			<point x="435" y="70"/>
			<point x="333" y="70" type="curve" smooth="yes"/>
			<point x="210" y="70"/>
			<point x="149" y="176"/>
			<point x="185" y="347" type="curve" smooth="yes"/>
			<point x="220" y="510"/>
			<point x="326" y="620"/>
			<point x="454" y="620" type="curve" smooth="yes"/>
			<point x="559" y="620"/>
			<point x="604" y="561"/>
			<point x="602" y="468" type="curve" smooth="yes"/>
			<point x="602" y="458" type="line"/>
			<point x="712" y="458" type="line"/>
			<point x="713" y="468" type="line" smooth="yes"/>
			<point x="728" y="604"/>
			<point x="655" y="704"/>
			<point x="474" y="704" type="curve" smooth="yes"/>
			<point x="280" y="704"/>
			<point x="111" y="559"/>
			<point x="65" y="342" type="curve" smooth="yes"/>
			<point x="21" y="132"/>
			<point x="106" y="-14"/>
			<point x="303" y="-14" type="curve" smooth="yes"/>
			<point x="380" y="-14"/>
			<point x="442" y="8"/>
			<point x="490" y="50" type="curve"/>
			<point x="536" y="117" type="line"/>
			<point x="515" y="0" type="line"/>
			<point x="607" y="0" type="line"/>
		</contour>
	</outline>
</glyph>
<glyph name="Gdotaccent" format="2">
	<advance width="722"/>
	<unicode hex="0120"/>
	<note>
		Gdotaccent
	</note>
	<outline>
		<contour>
			<point x="469" y="734" type="curve" smooth="yes"/>
			<point x="502" y="734"/>
			<point x="532" y="758"/>
			<point x="539" y="791" type="curve" smooth="yes"/>
			<point x="546" y="823"/>
			<point x="526" y="847"/>
			<point x="493" y="847" type="curve" smooth="yes"/>
			<point x="460" y="847"/>
			<point x="430" y="823"/>
			<point x="423" y="791" type="curve" smooth="yes"/>
			<point x="416" y="758"/>
			<point x="436" y="734"/>
		</contour>
		<contour>
			<point x="679" y="342" type="line"/>
			<point x="418" y="342" type="line"/>
			<point x="400" y="254" type="line"/>
			<point x="554" y="254" type="line"/>
			<point x="524" y="143"/>
			<point x="435" y="70"/>
			<point x="333" y="70" type="curve" smooth="yes"/>
			<point x="210" y="70"/>
			<point x="149" y="176"/>
			<point x="185" y="347" type="curve" smooth="yes"/>
			<point x="220" y="510"/>
			<point x="326" y="620"/>
			<point x="454" y="620" type="curve" smooth="yes"/>
			<point x="559" y="620"/>
			<point x="604" y="561"/>
			<point x="602" y="468" type="curve" smooth="yes"/>
			<point x="602" y="458" type="line"/>
			<point x="712" y="458" type="line"/>
			<point x="713" y="468" type="line" smooth="yes"/>
			<point x="728" y="604"/>
			<point x="655" y="704"/>
			<point x="474" y="704" type="curve" smooth="yes"/>
			<point x="280" y="704"/>
			<point x="111" y="559"/>
			<point x="65" y="342" type="curve" smooth="yes"/>
			<point x="21" y="132"/>
			<point x="106" y="-14"/>
			<point x="303" y="-14" type="curve" smooth="yes"/>
			<point x="380" y="-14"/>
			<point x="442" y="8"/>
			<point x="490" y="50" type="curve"/>
			<point x="536" y="117" type="line"/>
			<point x="515" y="0" type="line"/>
			<point x="607" y="0" type="line"/>
		</contour>
	</outline>
</glyph>
<glyph name="uni0122" format="2">
	<advance width="722"/>
	<unicode hex="0122"/>
	<note>
		Gcommaaccent
	</note>
	<outline>
		<contour>
			<point x="679" y="342" type="line"/>
			<point x="418" y="342" type="line"/>
			<point x="400" y="254" type="line"/>
			<point x="554" y="254" type="line"/>
			<point x="524" y="143"/>
			<point x="435" y="70"/>
			<point x="333" y="70" type="curve" smooth="yes"/>
			<point x="210" y="70"/>
			<point x="149" y="176"/>
			<point x="185" y="347" type="curve" smooth="yes"/>
			<point x="220" y="510"/>
			<point x="326" y="620"/>
			<point x="454" y="620" type="curve" smooth="yes"/>
			<point x="559" y="620"/>
			<point x="604" y="561"/>
			<point x="602" y="468" type="curve" smooth="yes"/>
			<point x="602" y="458" type="line"/>
			<point x="712" y="458" type="line"/>
			<point x="713" y="468" type="line" smooth="yes"/>
			<point x="728" y="604"/>
			<point x="655" y="704"/>
			<point x="474" y="704" type="curve" smooth="yes"/>
			<point x="280" y="704"/>
			<point x="111" y="559"/>
			<point x="65" y="342" type="curve" smooth="yes"/>
			<point x="21" y="132"/>
			<point x="106" y="-14"/>
			<point x="303" y="-14" type="curve" smooth="yes"/>
			<point x="380" y="-14"/>
			<point x="442" y="8"/>
			<point x="490" y="50" type="curve"/>
			<point x="536" y="117" type="line"/>
			<point x="515" y="0" type="line"/>
			<point x="607" y="0" type="line"/>
		</contour>
		<contour>
			<point x="355" y="-48" type="line"/>
			<point x="274" y="-48" type="line"/>
			<point x="182" y="-200" type="line"/>
			<point x="252" y="-200" type="line"/>
			<point x="353" y="-59" type="line"/>
		</contour>
	</outline>
</glyph>
<glyph name="uni0123" format="2">
	<advance width="629"/>
	<unicode hex="0123"/>
	<note>
		gcommaaccent
	</note>
	<outline>
		<contour>
			<point x="330" y="578" type="line"/>
			<point x="410" y="578" type="line"/>
			<point x="502" y="730" type="line"/>
			<point x="432" y="730" type="line"/>
			<point x="332" y="589" type="line"/>
		</contour>
		<contour>
			<point x="529" y="132" type="curve" smooth="yes"/>
			<point x="614" y="531" type="line"/>
			<point x="504" y="531" type="line"/>
			<point x="488" y="459" type="line"/>
			<point x="465" y="512" type="line"/>
			<point x="442" y="533"/>
			<point x="390" y="545"/>
			<point x="346" y="545" type="curve" smooth="yes"/>
			<point x="209" y="545"/>
			<point x="69" y="453"/>
			<point x="28" y="259" type="curve" smooth="yes"/>
			<point x="-5" y="103"/>
			<point x="60" y="-9"/>
			<point x="213" y="-9" type="curve" smooth="yes"/>
			<point x="267" y="-9"/>
			<point x="322" y="7"/>
			<point x="357" y="31" type="curve"/>
			<point x="410" y="89" type="line"/>
			<point x="407" y="78" type="line" smooth="yes"/>
			<point x="403" y="59"/>
			<point x="399" y="40"/>
			<point x="393" y="17" type="curve" smooth="yes"/>
			<point x="369" y="-78"/>
			<point x="303" y="-130"/>
			<point x="207" y="-130" type="curve" smooth="yes"/>
			<point x="125" y="-130"/>
			<point x="84" y="-91"/>
			<point x="89" y="-34" type="curve" smooth="yes"/>
			<point x="90" y="-25" type="line"/>
			<point x="-18" y="-25" type="line"/>
			<point x="-19" y="-35" type="line" smooth="yes"/>
			<point x="-32" y="-149"/>
			<point x="35" y="-213"/>
			<point x="188" y="-213" type="curve" smooth="yes"/>
			<point x="348" y="-213"/>
			<point x="466" y="-132"/>
			<point x="506" y="29" type="curve" smooth="yes"/>
			<point x="513" y="58"/>
			<point x="522" y="99"/>
		</contour>
		<contour>
			<point x="252" y="71" type="curve" smooth="yes"/>
			<point x="157" y="71"/>
			<point x="121" y="154"/>
			<point x="146" y="269" type="curve" smooth="yes"/>
			<point x="174" y="401"/>
			<point x="254" y="465"/>
			<point x="341" y="465" type="curve" smooth="yes"/>
			<point x="412" y="465"/>
			<point x="479" y="417"/>
			<point x="452" y="288" type="curve" smooth="yes"/>
			<point x="447" y="265" type="line" smooth="yes"/>
			<point x="417" y="123"/>
			<point x="335" y="71"/>
		</contour>
	</outline>
</glyph>
<glyph name="Hbar" format="2">
	<advance width="740"/>
	<unicode hex="0126"/>
	<note>
		Hbar
	</note>
	<outline>
		<contour>
			<point x="717" y="497" type="line"/>
			<point x="757" y="497" type="line"/>
			<point x="771" y="563" type="line"/>
			<point x="731" y="563" type="line"/>
			<point x="758" y="690" type="line"/>
			<point x="649" y="690" type="line"/>
			<point x="622" y="563" type="line"/>
			<point x="268" y="563" type="line"/>
			<point x="295" y="690" type="line"/>
			<point x="185" y="690" type="line"/>
			<point x="158" y="563" type="line"/>
			<point x="118" y="563" type="line"/>
			<point x="104" y="497" type="line"/>
			<point x="144" y="497" type="line"/>
			<point x="39" y="0" type="line"/>
			<point x="149" y="0" type="line"/>
			<point x="211" y="294" type="line"/>
			<point x="565" y="294" type="line"/>
			<point x="503" y="0" type="line"/>
			<point x="612" y="0" type="line"/>
		</contour>
		<contour>
			<point x="254" y="497" type="line"/>
			<point x="608" y="497" type="line"/>
			<point x="584" y="383" type="line"/>
			<point x="230" y="383" type="line"/>
		</contour>
	</outline>
</glyph>
<glyph name="imacron" format="2">
	<advance width="251"/>
	<unicode hex="012B"/>
	<note>
		imacron
	</note>
	<outline>
		<contour>
			<point x="67" y="600" type="line"/>
			<point x="323" y="600" type="line"/>
			<point x="337" y="663" type="line"/>
			<point x="81" y="663" type="line"/>
		</contour>
		<contour>
			<point x="13" y="0" type="line"/>
			<point x="123" y="0" type="line"/>
			<point x="236" y="531" type="line"/>
			<point x="126" y="531" type="line"/>
		</contour>
	</outline>
</glyph>
<glyph name="Idotaccent" format="2">
	<advance width="304"/>
	<unicode hex="0130"/>
	<outline>
		<contour>
			<point x="39" y="0" type="line"/>
			<point x="149" y="0" type="line"/>
			<point x="295" y="690" type="line"/>
			<point x="185" y="690" type="line"/>
		</contour>
		<contour>
			<point x="252" y="734" type="curve" smooth="yes"/>
			<point x="285" y="734"/>
			<point x="315" y="758"/>
			<point x="322" y="791" type="curve" smooth="yes"/>
			<point x="329" y="823"/>
			<point x="309" y="847"/>
			<point x="276" y="847" type="curve" smooth="yes"/>
			<point x="243" y="847"/>
			<point x="213" y="823"/>
			<point x="206" y="791" type="curve" smooth="yes"/>
			<point x="199" y="758"/>
			<point x="219" y="734"/>
		</contour>
	</outline>
</glyph>
<glyph name="IJ" format="2">
	<advance width="844"/>
	<unicode hex="0132"/>
	<note>
		IJ
	</note>
	<outline>
		<contour>
			<point x="39" y="0" type="line"/>
			<point x="149" y="0" type="line"/>
			<point x="295" y="690" type="line"/>
			<point x="185" y="690" type="line"/>
		</contour>
		<contour>
			<point x="792" y="273" type="curve" smooth="yes"/>
			<point x="880" y="690" type="line"/>
			<point x="770" y="690" type="line"/>
			<point x="681" y="268" type="line" smooth="yes"/>
			<point x="674" y="236"/>
			<point x="669" y="212"/>
			<point x="663" y="191" type="curve" smooth="yes"/>
			<point x="641" y="116"/>
			<point x="596" y="70"/>
			<point x="523" y="70" type="curve" smooth="yes"/>
			<point x="449" y="70"/>
			<point x="414" y="110"/>
			<point x="429" y="204" type="curve" smooth="yes"/>
			<point x="435" y="242" type="line"/>
			<point x="325" y="242" type="line"/>
			<point x="318" y="204" type="line" smooth="yes"/>
			<point x="294" y="70"/>
			<point x="352" y="-14"/>
			<point x="495" y="-14" type="curve" smooth="yes"/>
			<point x="649" y="-14"/>
			<point x="738" y="67"/>
			<point x="770" y="184" type="curve" smooth="yes"/>
			<point x="781" y="223"/>
			<point x="786" y="245"/>
		</contour>
	</outline>
</glyph>
<glyph name="ij" format="2">
	<advance width="496"/>
	<unicode hex="0133"/>
	<note>
		ij
	</note>
	<outline>
		<contour>
			<point x="13" y="0" type="line"/>
			<point x="123" y="0" type="line"/>
			<point x="236" y="531" type="line"/>
			<point x="126" y="531" type="line"/>
		</contour>
		<contour>
			<point x="362" y="-31" type="curve" smooth="yes"/>
			<point x="482" y="531" type="line"/>
			<point x="373" y="531" type="line"/>
			<point x="252" y="-34" type="line" smooth="yes"/>
			<point x="249" y="-49"/>
			<point x="246" y="-65"/>
			<point x="241" y="-79" type="curve" smooth="yes"/>
			<point x="229" y="-115"/>
			<point x="202" y="-130"/>
			<point x="146" y="-125" type="curve"/>
			<point x="128" y="-208" type="line"/>
			<point x="142" y="-210"/>
			<point x="156" y="-210"/>
			<point x="174" y="-210" type="curve" smooth="yes"/>
			<point x="274" y="-210"/>
			<point x="324" y="-168"/>
			<point x="346" y="-95" type="curve" smooth="yes"/>
			<point x="351" y="-77"/>
			<point x="358" y="-51"/>
		</contour>
		<contour>
			<point x="165" y="716" type="line"/>
			<point x="138" y="589" type="line"/>
			<point x="249" y="589" type="line"/>
			<point x="276" y="716" type="line"/>
		</contour>
		<contour>
			<point x="412" y="716" type="line"/>
			<point x="385" y="589" type="line"/>
			<point x="496" y="589" type="line"/>
			<point x="523" y="716" type="line"/>
		</contour>
	</outline>
</glyph>
<glyph name="uni0136" format="2">
	<advance width="643"/>
	<unicode hex="0136"/>
	<note>
		Kcommaaccent
	</note>
	<outline>
		<contour>
			<point x="584" y="0" type="line"/>
			<point x="365" y="356" type="line"/>
			<point x="746" y="690" type="line"/>
			<point x="616" y="690" type="line"/>
			<point x="221" y="339" type="line"/>
			<point x="295" y="690" type="line"/>
			<point x="185" y="690" type="line"/>
			<point x="39" y="0" type="line"/>
			<point x="149" y="0" type="line"/>
			<point x="196" y="222" type="line"/>
			<point x="271" y="288" type="line"/>
			<point x="437" y="0" type="line"/>
		</contour>
		<contour>
			<point x="327" y="-48" type="line"/>
			<point x="246" y="-48" type="line"/>
			<point x="154" y="-200" type="line"/>
			<point x="224" y="-200" type="line"/>
			<point x="325" y="-59" type="line"/>
		</contour>
	</outline>
</glyph>
<glyph name="Lcaron" format="2">
	<advance width="588"/>
	<unicode hex="013D"/>
	<note>
		Lcaron
	</note>
	<outline>
		<contour>
			<point x="516" y="0" type="line"/>
			<point x="535" y="91" type="line"/>
			<point x="168" y="91" type="line"/>
			<point x="295" y="690" type="line"/>
			<point x="185" y="690" type="line"/>
			<point x="39" y="0" type="line"/>
		</contour>
	</outline>
</glyph>
<glyph name="lcaron" format="2">
	<advance width="262"/>
	<unicode hex="013E"/>
	<note>
		lcaron
	</note>
	<outline>
		<contour>
			<point x="153" y="162" type="curve" smooth="yes"/>
			<point x="275" y="735" type="line"/>
			<point x="165" y="735" type="line"/>
			<point x="42" y="159" type="line" smooth="yes"/>
			<point x="36" y="127"/>
			<point x="31" y="103"/>
			<point x="27" y="83" type="curve" smooth="yes"/>
			<point x="17" y="15"/>
			<point x="51" y="-6"/>
			<point x="109" y="-6" type="curve" smooth="yes"/>
			<point x="134" y="-6"/>
			<point x="160" y="-4"/>
			<point x="182" y="-1" type="curve"/>
			<point x="199" y="76" type="line"/>
			<point x="151" y="72"/>
			<point x="139" y="82"/>
			<point x="143" y="112" type="curve" smooth="yes"/>
			<point x="146" y="128"/>
			<point x="149" y="144"/>
		</contour>
	</outline>
</glyph>
<glyph name="Ldot" format="2">
	<advance width="588"/>
	<unicode hex="013F"/>
	<note>
		Ldot
	</note>
	<outline>
		<contour>
			<point x="516" y="0" type="line"/>
			<point x="535" y="91" type="line"/>
			<point x="168" y="91" type="line"/>
			<point x="295" y="690" type="line"/>
			<point x="185" y="690" type="line"/>
			<point x="39" y="0" type="line"/>
		</contour>
		<contour>
			<point x="422" y="334" type="curve" smooth="yes"/>
			<point x="459" y="334"/>
			<point x="494" y="363"/>
			<point x="502" y="400" type="curve" smooth="yes"/>
			<point x="510" y="438"/>
			<point x="487" y="466"/>
			<point x="450" y="466" type="curve" smooth="yes"/>
			<point x="412" y="466"/>
			<point x="377" y="438"/>
			<point x="369" y="400" type="curve" smooth="yes"/>
			<point x="361" y="363"/>
			<point x="384" y="334"/>
		</contour>
	</outline>
</glyph>
<glyph name="Nacute" format="2">
	<advance width="737"/>
	<unicode hex="0143"/>
	<note>
		Nacute
	</note>
	<outline>
		<contour>
			<point x="441" y="736" type="line"/>
			<point x="507" y="736" type="line"/>
			<point x="626" y="838" type="line"/>
			<point x="526" y="838" type="line"/>
		</contour>
		<contour>
			<point x="451" y="0" type="line"/>
			<point x="609" y="0" type="line"/>
			<point x="754" y="690" type="line"/>
			<point x="646" y="690" type="line"/>
			<point x="576" y="358" type="line" smooth="yes"/>
			<point x="561" y="287"/>
			<point x="542" y="195"/>
			<point x="528" y="117" type="curve"/>
			<point x="340" y="690" type="line"/>
			<point x="185" y="690" type="line"/>
			<point x="39" y="0" type="line"/>
			<point x="149" y="0" type="line"/>
			<point x="219" y="330" type="line" smooth="yes"/>
			<point x="234" y="401"/>
			<point x="252" y="490"/>
			<point x="266" y="569" type="curve"/>
		</contour>
	</outline>
</glyph>
<glyph name="OE" format="2">
	<advance width="1101"/>
	<unicode hex="0152"/>
	<note>
		OE
	</note>
	<outline>
		<contour>
			<point x="1017" y="0" type="line"/>
			<point x="1035" y="88" type="line"/>
			<point x="668" y="88" type="line"/>
			<point x="714" y="302" type="line"/>
			<point x="1043" y="302" type="line"/>
			<point x="1061" y="389" type="line"/>
			<point x="732" y="389" type="line"/>
			<point x="778" y="603" type="line"/>
			<point x="1135" y="603" type="line"/>
			<point x="1153" y="690" type="line"/>
			<point x="686" y="690" type="line"/>
			<point x="658" y="559" type="line"/>
			<point x="645" y="628" type="line"/>
			<point x="605" y="684"/>
			<point x="555" y="704"/>
			<point x="457" y="704" type="curve" smooth="yes"/>
			<point x="263" y="704"/>
			<point x="110" y="551"/>
			<point x="66" y="345" type="curve" smooth="yes"/>
			<point x="22" y="140"/>
			<point x="111" y="-14"/>
			<point x="305" y="-14" type="curve" smooth="yes"/>
			<point x="394" y="-14"/>
			<point x="461" y="6"/>
			<point x="524" y="60" type="curve"/>
			<point x="567" y="129" type="line"/>
			<point x="540" y="0" type="line"/>
		</contour>
		<contour>
			<point x="341" y="70" type="curve" smooth="yes"/>
			<point x="206" y="70"/>
			<point x="149" y="180"/>
			<point x="184" y="345" type="curve" smooth="yes"/>
			<point x="220" y="512"/>
			<point x="322" y="620"/>
			<point x="457" y="620" type="curve" smooth="yes"/>
			<point x="591" y="620"/>
			<point x="649" y="512"/>
			<point x="613" y="345" type="curve" smooth="yes"/>
			<point x="578" y="180"/>
			<point x="475" y="70"/>
		</contour>
	</outline>
</glyph>
<glyph name="oe" format="2">
	<advance width="984"/>
	<unicode hex="0153"/>
	<note>
		oe
	</note>
	<outline>
		<contour>
			<point x="951" y="279" type="curve" smooth="yes"/>
			<point x="983" y="429"/>
			<point x="924" y="545"/>
			<point x="773" y="545" type="curve" smooth="yes"/>
			<point x="687" y="545"/>
			<point x="607" y="509"/>
			<point x="543" y="424" type="curve"/>
			<point x="517" y="506"/>
			<point x="454" y="545"/>
			<point x="358" y="545" type="curve" smooth="yes"/>
			<point x="179" y="545"/>
			<point x="62" y="421"/>
			<point x="29" y="266" type="curve" smooth="yes"/>
			<point x="-4" y="111"/>
			<point x="60" y="-14"/>
			<point x="239" y="-14" type="curve" smooth="yes"/>
			<point x="333" y="-14"/>
			<point x="411" y="23"/>
			<point x="471" y="103" type="curve"/>
			<point x="497" y="19"/>
			<point x="561" y="-14"/>
			<point x="642" y="-14" type="curve" smooth="yes"/>
			<point x="757" y="-14"/>
			<point x="869" y="46"/>
			<point x="920" y="172" type="curve"/>
			<point x="808" y="172" type="line"/>
			<point x="783" y="105"/>
			<point x="726" y="66"/>
			<point x="661" y="66" type="curve" smooth="yes"/>
			<point x="590" y="66"/>
			<point x="542" y="114"/>
			<point x="560" y="235" type="curve"/>
			<point x="939" y="235" type="line"/>
			<point x="945" y="254"/>
			<point x="949" y="269"/>
		</contour>
		<contour>
			<point x="256" y="66" type="curve" smooth="yes"/>
			<point x="159" y="66"/>
			<point x="120" y="146"/>
			<point x="145" y="266" type="curve" smooth="yes"/>
			<point x="171" y="386"/>
			<point x="244" y="465"/>
			<point x="341" y="465" type="curve" smooth="yes"/>
			<point x="437" y="465"/>
			<point x="476" y="386"/>
			<point x="450" y="266" type="curve" smooth="yes"/>
			<point x="425" y="146"/>
			<point x="352" y="66"/>
		</contour>
		<contour>
			<point x="845" y="312" type="curve"/>
			<point x="577" y="312" type="line"/>
			<point x="610" y="413"/>
			<point x="674" y="465"/>
			<point x="750" y="465" type="curve" smooth="yes"/>
			<point x="827" y="465"/>
			<point x="857" y="410"/>
		</contour>
	</outline>
</glyph>
<glyph name="Sacute" format="2">
	<advance width="595"/>
	<unicode hex="015A"/>
	<note>
		Sacute
	</note>
	<outline>
		<contour>
			<point x="372" y="736" type="line"/>
			<point x="438" y="736" type="line"/>
			<point x="557" y="838" type="line"/>
			<point x="457" y="838" type="line"/>
		</contour>
		<contour>
			<point x="409" y="704" type="curve" smooth="yes"/>
			<point x="280" y="704"/>
			<point x="155" y="629"/>
			<point x="129" y="507" type="curve" smooth="yes"/>
			<point x="104" y="387"/>
			<point x="181" y="338"/>
			<point x="305" y="307" type="curve" smooth="yes"/>
			<point x="411" y="281"/>
			<point x="446" y="244"/>
			<point x="430" y="172" type="curve" smooth="yes"/>
			<point x="417" y="109"/>
			<point x="352" y="70"/>
			<point x="280" y="70" type="curve" smooth="yes"/>
			<point x="199" y="70"/>
			<point x="148" y="115"/>
			<point x="148" y="200" type="curve"/>
			<point x="34" y="200" type="line"/>
			<point x="19" y="61"/>
			<point x="104" y="-14"/>
			<point x="262" y="-14" type="curve" smooth="yes"/>
			<point x="396" y="-14"/>
			<point x="523" y="62"/>
			<point x="549" y="187" type="curve" smooth="yes"/>
			<point x="574" y="302"/>
			<point x="516" y="367"/>
			<point x="371" y="402" type="curve" smooth="yes"/>
			<point x="269" y="427"/>
			<point x="235" y="458"/>
			<point x="249" y="525" type="curve" smooth="yes"/>
			<point x="263" y="590"/>
			<point x="320" y="620"/>
			<point x="385" y="620" type="curve" smooth="yes"/>
			<point x="465" y="620"/>
			<point x="501" y="573"/>
			<point x="493" y="494" type="curve"/>
			<point x="607" y="494" type="line"/>
			<point x="618" y="614"/>
			<point x="562" y="704"/>
		</contour>
	</outline>
</glyph>
<glyph name="uni0162" format="2">
	<advance width="617"/>
	<unicode hex="0162"/>
	<note>
		Tcedilla
	</note>
	<outline>
		<contour>
			<point x="270" y="-41" type="curve"/>
			<point x="300" y="0" type="line"/>
			<point x="323" y="0" type="line"/>
			<point x="451" y="603" type="line"/>
			<point x="692" y="603" type="line"/>
			<point x="710" y="690" type="line"/>
			<point x="119" y="690" type="line"/>
			<point x="101" y="603" type="line"/>
			<point x="342" y="603" type="line"/>
			<point x="214" y="0" type="line"/>
			<point x="239" y="0" type="line"/>
			<point x="179" y="-81" type="line"/>
			<point x="251" y="-76"/>
			<point x="273" y="-91"/>
			<point x="267" y="-122" type="curve" smooth="yes"/>
			<point x="262" y="-146"/>
			<point x="238" y="-161"/>
			<point x="196" y="-161" type="curve" smooth="yes"/>
			<point x="177" y="-161"/>
			<point x="161" y="-159"/>
			<point x="145" y="-151" type="curve"/>
			<point x="134" y="-202" type="line"/>
			<point x="147" y="-208"/>
			<point x="165" y="-210"/>
			<point x="184" y="-210" type="curve" smooth="yes"/>
			<point x="262" y="-210"/>
			<point x="324" y="-181"/>
			<point x="337" y="-122" type="curve" smooth="yes"/>
			<point x="347" y="-76"/>
			<point x="323" y="-48"/>
		</contour>
	</outline>
</glyph>
<glyph name="uni0163" format="2">
	<advance width="335"/>
	<unicode hex="0163"/>
	<note>
		tcedilla
	</note>
	<outline>
		<contour>
			<point x="180" y="172" type="curve" smooth="yes"/>
			<point x="239" y="450" type="line"/>
			<point x="343" y="450" type="line"/>
			<point x="360" y="527" type="line"/>
			<point x="256" y="527" type="line"/>
			<point x="283" y="654" type="line"/>
			<point x="174" y="654" type="line"/>
			<point x="147" y="527" type="line"/>
			<point x="72" y="527" type="line"/>
			<point x="55" y="450" type="line"/>
			<point x="130" y="450" type="line"/>
			<point x="69" y="162" type="line" smooth="yes"/>
			<point x="63" y="132"/>
			<point x="58" y="109"/>
			<point x="55" y="91" type="curve" smooth="yes"/>
			<point x="48" y="41"/>
			<point x="61" y="10"/>
			<point x="100" y="-3" type="curve"/>
			<point x="42" y="-81" type="line"/>
			<point x="114" y="-76"/>
			<point x="136" y="-91"/>
			<point x="130" y="-122" type="curve" smooth="yes"/>
			<point x="125" y="-146"/>
			<point x="101" y="-161"/>
			<point x="59" y="-161" type="curve" smooth="yes"/>
			<point x="40" y="-161"/>
			<point x="24" y="-159"/>
			<point x="8" y="-151" type="curve"/>
			<point x="-3" y="-202" type="line"/>
			<point x="10" y="-208"/>
			<point x="28" y="-210"/>
			<point x="47" y="-210" type="curve" smooth="yes"/>
			<point x="125" y="-210"/>
			<point x="187" y="-181"/>
			<point x="200" y="-122" type="curve" smooth="yes"/>
			<point x="210" y="-76"/>
			<point x="186" y="-48"/>
			<point x="133" y="-41" type="curve"/>
			<point x="156" y="-10" type="line"/>
			<point x="158" y="-10" type="line" smooth="yes"/>
			<point x="185" y="-10"/>
			<point x="211" y="-8"/>
			<point x="240" y="-4" type="curve"/>
			<point x="256" y="72" type="line"/>
			<point x="182" y="65"/>
			<point x="165" y="76"/>
			<point x="172" y="128" type="curve" smooth="yes"/>
			<point x="174" y="142"/>
			<point x="176" y="154"/>
		</contour>
	</outline>
</glyph>
<glyph name="Tcaron" format="2">
	<advance width="617"/>
	<unicode hex="0164"/>
	<note>
		Tcaron
	</note>
	<outline>
		<contour>
			<point x="340" y="838" type="line"/>
			<point x="384" y="736" type="line"/>
			<point x="465" y="736" type="line"/>
			<point x="553" y="838" type="line"/>
			<point x="478" y="838" type="line"/>
			<point x="434" y="777" type="line"/>
			<point x="416" y="838" type="line"/>
		</contour>
		<contour>
			<point x="451" y="603" type="line"/>
			<point x="692" y="603" type="line"/>
			<point x="710" y="690" type="line"/>
			<point x="119" y="690" type="line"/>
			<point x="101" y="603" type="line"/>
			<point x="342" y="603" type="line"/>
			<point x="214" y="0" type="line"/>
			<point x="323" y="0" type="line"/>
		</contour>
	</outline>
</glyph>
<glyph name="tcaron" format="2">
	<advance width="326"/>
	<unicode hex="0165"/>
	<note>
		tcaron
	</note>
	<outline>
		<contour>
			<point x="474" y="724" type="line"/>
			<point x="476" y="735" type="line"/>
			<point x="395" y="735" type="line"/>
			<point x="302" y="582" type="line"/>
			<point x="372" y="582" type="line"/>
		</contour>
		<contour>
			<point x="360" y="527" type="line"/>
			<point x="256" y="527" type="line"/>
			<point x="283" y="654" type="line"/>
			<point x="174" y="654" type="line"/>
			<point x="147" y="527" type="line"/>
			<point x="72" y="527" type="line"/>
			<point x="55" y="450" type="line"/>
			<point x="130" y="450" type="line"/>
			<point x="69" y="162" type="line" smooth="yes"/>
			<point x="63" y="132"/>
			<point x="58" y="109"/>
			<point x="55" y="91" type="curve" smooth="yes"/>
			<point x="45" y="21"/>
			<point x="75" y="-10"/>
			<point x="158" y="-10" type="curve" smooth="yes"/>
			<point x="185" y="-10"/>
			<point x="211" y="-8"/>
			<point x="240" y="-4" type="curve"/>
			<point x="256" y="72" type="line"/>
			<point x="182" y="65"/>
			<point x="165" y="76"/>
			<point x="172" y="128" type="curve" smooth="yes"/>
			<point x="174" y="142"/>
			<point x="176" y="154"/>
			<point x="180" y="172" type="curve" smooth="yes"/>
			<point x="239" y="450" type="line"/>
			<point x="343" y="450" type="line"/>
		</contour>
	</outline>
</glyph>
<glyph name="Tbar" format="2">
	<advance width="617"/>
	<unicode hex="0166"/>
	<note>
		Tbar
	</note>
	<outline>
		<contour>
			<point x="401" y="368" type="line"/>
			<point x="451" y="603" type="line"/>
			<point x="692" y="603" type="line"/>
			<point x="710" y="690" type="line"/>
			<point x="119" y="690" type="line"/>
			<point x="101" y="603" type="line"/>
			<point x="342" y="603" type="line"/>
			<point x="292" y="368" type="line"/>
			<point x="185" y="368" type="line"/>
			<point x="171" y="302" type="line"/>
			<point x="278" y="302" type="line"/>
			<point x="214" y="0" type="line"/>
			<point x="323" y="0" type="line"/>
			<point x="387" y="302" type="line"/>
			<point x="494" y="302" type="line"/>
			<point x="508" y="368" type="line"/>
		</contour>
	</outline>
</glyph>
<glyph name="Uring" format="2">
	<advance width="691"/>
	<unicode hex="016E"/>
	<note>
		Uring
	</note>
	<outline>
		<contour>
			<point x="491" y="889" type="curve" smooth="yes"/>
			<point x="434" y="889"/>
			<point x="385" y="853"/>
			<point x="374" y="803" type="curve" smooth="yes"/>
			<point x="364" y="753"/>
			<point x="397" y="718"/>
			<point x="454" y="718" type="curve" smooth="yes"/>
			<point x="511" y="718"/>
			<point x="560" y="753"/>
			<point x="570" y="803" type="curve" smooth="yes"/>
			<point x="581" y="853"/>
			<point x="548" y="889"/>
		</contour>
		<contour>
			<point x="481" y="845" type="curve" smooth="yes"/>
			<point x="504" y="845"/>
			<point x="518" y="828"/>
			<point x="512" y="803" type="curve" smooth="yes"/>
			<point x="507" y="779"/>
			<point x="486" y="761"/>
			<point x="463" y="761" type="curve" smooth="yes"/>
			<point x="440" y="761"/>
			<point x="427" y="779"/>
			<point x="432" y="803" type="curve" smooth="yes"/>
			<point x="438" y="828"/>
			<point x="458" y="845"/>
		</contour>
		<contour>
			<point x="629" y="267" type="curve" smooth="yes"/>
			<point x="719" y="690" type="line"/>
			<point x="610" y="690" type="line"/>
			<point x="520" y="265" type="line" smooth="yes"/>
			<point x="516" y="244"/>
			<point x="511" y="225"/>
			<point x="506" y="209" type="curve" smooth="yes"/>
			<point x="481" y="126"/>
			<point x="417" y="70"/>
			<point x="317" y="70" type="curve" smooth="yes"/>
			<point x="218" y="70"/>
			<point x="176" y="126"/>
			<point x="187" y="209" type="curve" smooth="yes"/>
			<point x="188" y="225"/>
			<point x="193" y="244"/>
			<point x="197" y="265" type="curve" smooth="yes"/>
			<point x="287" y="690" type="line"/>
			<point x="178" y="690" type="line"/>
			<point x="88" y="267" type="line" smooth="yes"/>
			<point x="83" y="242"/>
			<point x="79" y="222"/>
			<point x="75" y="196" type="curve" smooth="yes"/>
			<point x="60" y="81"/>
			<point x="119" y="-14"/>
			<point x="299" y="-14" type="curve" smooth="yes"/>
			<point x="479" y="-14"/>
			<point x="578" y="81"/>
			<point x="612" y="196" type="curve" smooth="yes"/>
			<point x="620" y="222"/>
			<point x="624" y="242"/>
		</contour>
	</outline>
</glyph>
<glyph name="uring" format="2">
	<advance width="604"/>
	<unicode hex="016F"/>
	<note>
		uring
	</note>
	<outline>
		<contour>
			<point x="360" y="566" type="curve" smooth="yes"/>
			<point x="417" y="566"/>
			<point x="466" y="603"/>
			<point x="477" y="655" type="curve" smooth="yes"/>
			<point x="488" y="708"/>
			<point x="455" y="745"/>
			<point x="398" y="745" type="curve" smooth="yes"/>
			<point x="341" y="745"/>
			<point x="292" y="708"/>
			<point x="281" y="655" type="curve" smooth="yes"/>
			<point x="270" y="603"/>
			<point x="303" y="566"/>
		</contour>
		<contour>
			<point x="389" y="702" type="curve" smooth="yes"/>
			<point x="412" y="702"/>
			<point x="425" y="684"/>
			<point x="419" y="655" type="curve" smooth="yes"/>
			<point x="413" y="626"/>
			<point x="392" y="609"/>
			<point x="369" y="609" type="curve" smooth="yes"/>
			<point x="346" y="609"/>
			<point x="333" y="626"/>
			<point x="339" y="655" type="curve" smooth="yes"/>
			<point x="345" y="684"/>
			<point x="366" y="702"/>
		</contour>
		<contour>
			<point x="476" y="0" type="line"/>
			<point x="589" y="531" type="line"/>
			<point x="480" y="531" type="line"/>
			<point x="426" y="281" type="line" smooth="yes"/>
			<point x="394" y="127"/>
			<point x="323" y="68"/>
			<point x="246" y="68" type="curve" smooth="yes"/>
			<point x="178" y="68"/>
			<point x="148" y="106"/>
			<point x="153" y="164" type="curve" smooth="yes"/>
			<point x="155" y="191"/>
			<point x="160" y="220"/>
			<point x="164" y="237" type="curve" smooth="yes"/>
			<point x="227" y="531" type="line"/>
			<point x="118" y="531" type="line"/>
			<point x="50" y="215" type="line" smooth="yes"/>
			<point x="41" y="172"/>
			<point x="37" y="148"/>
			<point x="35" y="121" type="curve" smooth="yes"/>
			<point x="32" y="48"/>
			<point x="83" y="-14"/>
			<point x="193" y="-14" type="curve" smooth="yes"/>
			<point x="246" y="-14"/>
			<point x="287" y="-5"/>
			<point x="335" y="25" type="curve"/>
			<point x="386" y="91" type="line"/>
			<point x="367" y="0" type="line"/>
		</contour>
	</outline>
</glyph>
<glyph name="uogonek" format="2">
	<advance width="604"/>
	<unicode hex="0173"/>
	<note>
		uogonek
	</note>
	<outline>
		<contour>
			<point x="445" y="0" type="curve"/>
			<point x="476" y="0" type="line"/>
			<point x="589" y="531" type="line"/>
			<point x="480" y="531" type="line"/>
			<point x="426" y="281" type="line" smooth="yes"/>
			<point x="394" y="127"/>
			<point x="323" y="68"/>
			<point x="246" y="68" type="curve" smooth="yes"/>
			<point x="178" y="68"/>
			<point x="148" y="106"/>
			<point x="153" y="164" type="curve" smooth="yes"/>
			<point x="155" y="191"/>
			<point x="160" y="220"/>
			<point x="164" y="237" type="curve" smooth="yes"/>
			<point x="227" y="531" type="line"/>
			<point x="118" y="531" type="line"/>
			<point x="50" y="215" type="line" smooth="yes"/>
			<point x="41" y="172"/>
			<point x="37" y="148"/>
			<point x="35" y="121" type="curve" smooth="yes"/>
			<point x="32" y="48"/>
			<point x="83" y="-14"/>
			<point x="193" y="-14" type="curve" smooth="yes"/>
			<point x="246" y="-14"/>
			<point x="287" y="-5"/>
			<point x="335" y="25" type="curve"/>
			<point x="386" y="91" type="line"/>
			<point x="369" y="10" type="line"/>
			<point x="309" y="-13"/>
			<point x="247" y="-66"/>
			<point x="231" y="-138" type="curve" smooth="yes"/>
			<point x="218" y="-201"/>
			<point x="253" y="-223"/>
			<point x="311" y="-223" type="curve" smooth="yes"/>
			<point x="352" y="-223"/>
			<point x="389" y="-212"/>
			<point x="419" y="-192" type="curve"/>
			<point x="431" y="-137" type="line"/>
			<point x="410" y="-151"/>
			<point x="391" y="-157"/>
			<point x="373" y="-157" type="curve" smooth="yes"/>
			<point x="346" y="-157"/>
			<point x="332" y="-144"/>
			<point x="340" y="-107" type="curve" smooth="yes"/>
			<point x="352" y="-50"/>
			<point x="399" y="-7"/>
		</contour>
	</outline>
</glyph>
<glyph name="wcircumflex" format="2">
	<advance width="806"/>
	<unicode hex="0175"/>
	<note>
		wcircumflex
	</note>
	<outline>
		<contour>
			<point x="365" y="578" type="line"/>
			<point x="438" y="578" type="line"/>
			<point x="484" y="643" type="line"/>
			<point x="504" y="578" type="line"/>
			<point x="578" y="578" type="line"/>
			<point x="536" y="692" type="line"/>
			<point x="455" y="692" type="line"/>
		</contour>
		<contour>
			<point x="578" y="0" type="line"/>
			<point x="860" y="531" type="line"/>
			<point x="743" y="531" type="line"/>
			<point x="541" y="97" type="line"/>
			<point x="527" y="530" type="line"/>
			<point x="393" y="530" type="line"/>
			<point x="199" y="98" type="line"/>
			<point x="182" y="531" type="line"/>
			<point x="58" y="531" type="line"/>
			<point x="114" y="0" type="line"/>
			<point x="241" y="0" type="line"/>
			<point x="438" y="429" type="line"/>
			<point x="452" y="0" type="line"/>
		</contour>
	</outline>
</glyph>
<glyph name="Ycircumflex" format="2">
	<advance width="602"/>
	<unicode hex="0176"/>
	<note>
		Ycircumflex
	</note>
	<outline>
		<contour>
			<point x="310" y="736" type="line"/>
			<point x="385" y="736" type="line"/>
			<point x="429" y="796" type="line"/>
			<point x="447" y="736" type="line"/>
			<point x="523" y="736" type="line"/>
			<point x="479" y="838" type="line"/>
			<point x="398" y="838" type="line"/>
		</contour>
		<contour>
			<point x="315" y="0" type="line"/>
			<point x="372" y="270" type="line"/>
			<point x="705" y="690" type="line"/>
			<point x="583" y="690" type="line"/>
			<point x="344" y="371" type="line"/>
			<point x="233" y="690" type="line"/>
			<point x="108" y="690" type="line"/>
			<point x="263" y="270" type="line"/>
			<point x="206" y="0" type="line"/>
		</contour>
	</outline>
</glyph>
<glyph name="zacute" format="2">
	<advance width="478"/>
	<unicode hex="017A"/>
	<note>
		zacute
	</note>
	<outline>
		<contour>
			<point x="270" y="578" type="line"/>
			<point x="336" y="578" type="line"/>
			<point x="463" y="692" type="line"/>
			<point x="363" y="692" type="line"/>
		</contour>
		<contour>
			<point x="393" y="0" type="line"/>
			<point x="409" y="79" type="line"/>
			<point x="108" y="79" type="line"/>
			<point x="484" y="448" type="line"/>
			<point x="501" y="527" type="line"/>
			<point x="100" y="527" type="line"/>
			<point x="83" y="448" type="line"/>
			<point x="362" y="448" type="line"/>
			<point x="-16" y="76" type="line"/>
			<point x="-32" y="0" type="line"/>
		</contour>
	</outline>
</glyph>
<glyph name="circumflex" format="2">
	<advance width="300"/>
	<unicode hex="02C6"/>
	<note>
		circumflex
	</note>
	<outline>
		<contour>
			<point x="230" y="643" type="line"/>
			<point x="250" y="578" type="line"/>
			<point x="324" y="578" type="line"/>
			<point x="282" y="692" type="line"/>
			<point x="201" y="692" type="line"/>
			<point x="111" y="578" type="line"/>
			<point x="184" y="578" type="line"/>
		</contour>
	</outline>
</glyph>
<glyph name="breve" format="2">
	<advance width="300"/>
	<unicode hex="02D8"/>
	<note>
		breve
	</note>
	<outline>
		<contour>
			<point x="351" y="692" type="curve"/>
			<point x="289" y="692" type="line"/>
			<point x="278" y="646"/>
			<point x="256" y="629"/>
			<point x="227" y="629" type="curve" smooth="yes"/>
			<point x="198" y="629"/>
			<point x="184" y="646"/>
			<point x="193" y="692" type="curve"/>
			<point x="131" y="692" type="line"/>
			<point x="112" y="605"/>
			<point x="142" y="567"/>
			<point x="214" y="567" type="curve" smooth="yes"/>
			<point x="285" y="567"/>
			<point x="332" y="605"/>
		</contour>
	</outline>
</glyph>
<glyph name="dotaccent" format="2">
	<advance width="300"/>
	<unicode hex="02D9"/>
	<note>
		dotaccent
	</note>
	<outline>
		<contour>
			<point x="185" y="716" type="line"/>
			<point x="158" y="590" type="line"/>
			<point x="284" y="590" type="line"/>
			<point x="311" y="716" type="line"/>
		</contour>
	</outline>
</glyph>
<glyph name="ogonek" format="2">
	<advance width="300"/>
	<unicode hex="02DB"/>
	<note>
		ogonek
	</note>
	<outline>
		<contour>
			<point x="172" y="0" type="curve"/>
			<point x="96" y="10" type="line"/>
			<point x="36" y="-13"/>
			<point x="-26" y="-66"/>
			<point x="-42" y="-138" type="curve" smooth="yes"/>
			<point x="-55" y="-201"/>
			<point x="-20" y="-223"/>
			<point x="38" y="-223" type="curve" smooth="yes"/>
			<point x="79" y="-223"/>
			<point x="116" y="-212"/>
			<point x="146" y="-192" type="curve"/>
			<point x="158" y="-137" type="line"/>
			<point x="137" y="-151"/>
			<point x="118" y="-157"/>
			<point x="100" y="-157" type="curve" smooth="yes"/>
			<point x="73" y="-157"/>
			<point x="59" y="-144"/>
			<point x="67" y="-107" type="curve" smooth="yes"/>
			<point x="79" y="-50"/>
			<point x="126" y="-7"/>
		</contour>
	</outline>
</glyph>
<glyph name="uni0326" format="2">
	<advance width="0"/>
	<unicode hex="0326"/>
	<note>
		uni0326
	</note>
	<outline>
		<contour>
			<point x="32" y="-200" type="line"/>
			<point x="133" y="-59" type="line"/>
			<point x="135" y="-48" type="line"/>
			<point x="54" y="-48" type="line"/>
			<point x="-38" y="-200" type="line"/>
		</contour>
	</outline>
</glyph>
<glyph name="wgrave" format="2">
	<advance width="806"/>
	<unicode hex="1E81"/>
	<note>
		wgrave
	</note>
	<outline>
		<contour>
			<point x="368" y="692" type="line"/>
			<point x="446" y="578" type="line"/>
			<point x="512" y="578" type="line"/>
			<point x="468" y="692" type="line"/>
		</contour>
		<contour>
			<point x="578" y="0" type="line"/>
			<point x="860" y="531" type="line"/>
			<point x="743" y="531" type="line"/>
			<point x="541" y="97" type="line"/>
			<point x="527" y="530" type="line"/>
			<point x="393" y="530" type="line"/>
			<point x="199" y="98" type="line"/>
			<point x="182" y="531" type="line"/>
			<point x="58" y="531" type="line"/>
			<point x="114" y="0" type="line"/>
			<point x="241" y="0" type="line"/>
			<point x="438" y="429" type="line"/>
			<point x="452" y="0" type="line"/>
		</contour>
	</outline>
</glyph>
<glyph name="Wacute" format="2">
	<advance width="968"/>
	<unicode hex="1E82"/>
	<note>
		Wacute
	</note>
	<outline>
		<contour>
			<point x="559" y="736" type="line"/>
			<point x="625" y="736" type="line"/>
			<point x="744" y="838" type="line"/>
			<point x="644" y="838" type="line"/>
		</contour>
		<contour>
			<point x="722" y="0" type="line"/>
			<point x="1056" y="690" type="line"/>
			<point x="942" y="690" type="line"/>
			<point x="674" y="88" type="line"/>
			<point x="661" y="680" type="line"/>
			<point x="510" y="680" type="line"/>
			<point x="242" y="91" type="line"/>
			<point x="237" y="690" type="line"/>
			<point x="116" y="690" type="line"/>
			<point x="148" y="0" type="line"/>
			<point x="294" y="0" type="line"/>
			<point x="564" y="588" type="line"/>
			<point x="577" y="0" type="line"/>
		</contour>
	</outline>
</glyph>
<glyph name="Wdieresis" format="2">
	<advance width="968"/>
	<unicode hex="1E84"/>
	<note>
		Wdieresis
	</note>
	<outline>
		<contour>
			<point x="722" y="0" type="line"/>
			<point x="1056" y="690" type="line"/>
			<point x="942" y="690" type="line"/>
			<point x="674" y="88" type="line"/>
			<point x="661" y="680" type="line"/>
			<point x="510" y="680" type="line"/>
			<point x="242" y="91" type="line"/>
			<point x="237" y="690" type="line"/>
			<point x="116" y="690" type="line"/>
			<point x="148" y="0" type="line"/>
			<point x="294" y="0" type="line"/>
			<point x="564" y="588" type="line"/>
			<point x="577" y="0" type="line"/>
		</contour>
		<contour>
			<point x="488" y="839" type="line"/>
			<point x="465" y="733" type="line"/>
			<point x="573" y="733" type="line"/>
			<point x="596" y="839" type="line"/>
		</contour>
		<contour>
			<point x="643" y="839" type="line"/>
			<point x="620" y="733" type="line"/>
			<point x="728" y="733" type="line"/>
			<point x="751" y="839" type="line"/>
		</contour>
	</outline>
</glyph>
<glyph name="quoteleft" format="2">
	<advance width="266"/>
	<unicode hex="2018"/>
	<note>
		quoteleft
	</note>
	<outline>
		<contour>
			<point x="253" y="735" type="line"/>
			<point x="102" y="484" type="line"/>
			<point x="99" y="474" type="line"/>
			<point x="211" y="474" type="line"/>
			<point x="345" y="735" type="line"/>
		</contour>
	</outline>
</glyph>
<glyph name="quoteright" format="2">
	<advance width="266"/>
	<unicode hex="2019"/>
	<note>
		quoteright
	</note>
	<outline>
		<contour>
			<point x="157" y="474" type="line"/>
			<point x="309" y="725" type="line"/>
			<point x="311" y="735" type="line"/>
			<point x="199" y="735" type="line"/>
			<point x="65" y="474" type="line"/>
		</contour>
	</outline>
</glyph>
<glyph name="quotedblright" format="2">
	<advance width="453"/>
	<unicode hex="201D"/>
	<note>
		quotedblright
	</note>
	<outline>
		<contour>
			<point x="157" y="474" type="line"/>
			<point x="309" y="725" type="line"/>
			<point x="311" y="735" type="line"/>
			<point x="199" y="735" type="line"/>
			<point x="65" y="474" type="line"/>
		</contour>
		<contour>
			<point x="345" y="474" type="line"/>
			<point x="496" y="725" type="line"/>
			<point x="498" y="735" type="line"/>
			<point x="387" y="735" type="line"/>
			<point x="252" y="474" type="line"/>
		</contour>
	</outline>
</glyph>
<glyph name="dagger" format="2">
	<advance width="555"/>
	<unicode hex="2020"/>
	<note>
		dagger
	</note>
	<outline>
		<contour>
			<point x="347" y="372" type="line"/>
			<point x="525" y="365" type="line"/>
			<point x="546" y="461" type="line"/>
			<point x="365" y="455" type="line"/>
			<point x="426" y="690" type="line"/>
			<point x="309" y="690" type="line"/>
			<point x="270" y="455" type="line"/>
			<point x="93" y="461" type="line"/>
			<point x="72" y="365" type="line"/>
			<point x="254" y="371" type="line"/>
			<point x="129" y="-160" type="line"/>
			<point x="246" y="-160" type="line"/>
		</contour>
	</outline>
</glyph>
<glyph name="daggerdbl" format="2">
	<advance width="555"/>
	<unicode hex="2021"/>
	<note>
		daggerdbl
	</note>
	<outline>
		<contour>
			<point x="301" y="158" type="line"/>
			<point x="347" y="372" type="line"/>
			<point x="525" y="365" type="line"/>
			<point x="546" y="461" type="line"/>
			<point x="365" y="455" type="line"/>
			<point x="426" y="690" type="line"/>
			<point x="309" y="690" type="line"/>
			<point x="270" y="455" type="line"/>
			<point x="93" y="461" type="line"/>
			<point x="72" y="365" type="line"/>
			<point x="254" y="371" type="line"/>
			<point x="208" y="159" type="line"/>
			<point x="30" y="165" type="line"/>
			<point x="9" y="69" type="line"/>
			<point x="190" y="75" type="line"/>
			<point x="129" y="-160" type="line"/>
			<point x="246" y="-160" type="line"/>
			<point x="285" y="75" type="line"/>
			<point x="462" y="69" type="line"/>
			<point x="483" y="165" type="line"/>
		</contour>
	</outline>
</glyph>
<glyph name="ellipsis" format="2">
	<advance width="672"/>
	<unicode hex="2026"/>
	<note>
		ellipsis
	</note>
	<outline>
		<contour>
			<point x="10" y="132" type="line"/>
			<point x="-21" y="-14" type="line"/>
			<point x="126" y="-14" type="line"/>
			<point x="157" y="132" type="line"/>
		</contour>
		<contour>
			<point x="230" y="132" type="line"/>
			<point x="199" y="-14" type="line"/>
			<point x="346" y="-14" type="line"/>
			<point x="377" y="132" type="line"/>
		</contour>
		<contour>
			<point x="450" y="132" type="line"/>
			<point x="419" y="-14" type="line"/>
			<point x="566" y="-14" type="line"/>
			<point x="597" y="132" type="line"/>
		</contour>
	</outline>
</glyph>
<glyph name="guilsinglleft" format="2">
	<advance width="405"/>
	<unicode hex="2039"/>
	<note>
		guilsinglleft
	</note>
	<outline>
		<contour>
			<point x="210" y="248" type="line"/>
			<point x="383" y="414" type="line"/>
			<point x="296" y="414" type="line"/>
			<point x="123" y="248" type="line"/>
			<point x="225" y="82" type="line"/>
			<point x="312" y="82" type="line"/>
		</contour>
	</outline>
</glyph>
<glyph name="guilsinglright" format="2">
	<advance width="396"/>
	<unicode hex="203A"/>
	<note>
		guilsinglright
	</note>
	<outline>
		<contour>
			<point x="102" y="82" type="line"/>
			<point x="274" y="248" type="line"/>
			<point x="173" y="414" type="line"/>
			<point x="86" y="414" type="line"/>
			<point x="187" y="248" type="line"/>
			<point x="15" y="82" type="line"/>
		</contour>
	</outline>
</glyph>
<glyph name="trademark" format="2">
	<advance width="539"/>
	<unicode hex="2122"/>
	<note>
		trademark
	</note>
	<outline>
		<contour>
			<point x="295" y="618" type="line"/>
			<point x="304" y="660" type="line"/>
			<point x="105" y="660" type="line"/>
			<point x="96" y="618" type="line"/>
			<point x="169" y="618" type="line"/>
			<point x="135" y="456" type="line"/>
			<point x="188" y="456" type="line"/>
			<point x="222" y="618" type="line"/>
		</contour>
		<contour>
			<point x="522" y="456" type="line"/>
			<point x="565" y="659" type="line"/>
			<point x="488" y="659" type="line"/>
			<point x="416" y="508" type="line"/>
			<point x="407" y="659" type="line"/>
			<point x="328" y="659" type="line"/>
			<point x="285" y="456" type="line"/>
			<point x="338" y="456" type="line"/>
			<point x="367" y="597" type="line"/>
			<point x="376" y="460" type="line"/>
			<point x="431" y="460" type="line"/>
			<point x="501" y="598" type="line"/>
			<point x="469" y="456" type="line"/>
		</contour>
	</outline>
</glyph>
<glyph name="emptyset" format="2">
	<advance width="838"/>
	<unicode hex="2205"/>
	<note>
		emptyset
	</note>
	<outline>
		<contour>
			<point x="793" y="604" type="curve"/>
			<point x="891" y="685" type="line"/>
			<point x="853" y="733" type="line"/>
			<point x="756" y="653" type="line"/>
			<point x="701" y="713"/>
			<point x="620" y="749"/>
			<point x="522" y="749" type="curve" smooth="yes"/>
			<point x="306" y="749"/>
			<point x="96" y="574"/>
			<point x="49" y="355" type="curve" smooth="yes"/>
			<point x="29" y="258"/>
			<point x="44" y="169"/>
			<point x="86" y="100" type="curve"/>
			<point x="-16" y="16" type="line"/>
			<point x="22" y="-33" type="line"/>
			<point x="125" y="52" type="line"/>
			<point x="180" y="-5"/>
			<point x="259" y="-39"/>
			<point x="354" y="-39" type="curve" smooth="yes"/>
			<point x="570" y="-39"/>
			<point x="781" y="136"/>
			<point x="827" y="355" type="curve" smooth="yes"/>
			<point x="847" y="450"/>
			<point x="834" y="536"/>
		</contour>
		<contour>
			<point x="123" y="355" type="curve" smooth="yes"/>
			<point x="162" y="536"/>
			<point x="331" y="681"/>
			<point x="507" y="681" type="curve" smooth="yes"/>
			<point x="586" y="681"/>
			<point x="651" y="652"/>
			<point x="696" y="603" type="curve"/>
			<point x="148" y="151" type="line"/>
			<point x="117" y="207"/>
			<point x="107" y="277"/>
		</contour>
		<contour>
			<point x="369" y="29" type="curve" smooth="yes"/>
			<point x="292" y="29"/>
			<point x="229" y="56"/>
			<point x="184" y="102" type="curve"/>
			<point x="731" y="553" type="line"/>
			<point x="760" y="498"/>
			<point x="769" y="430"/>
			<point x="753" y="355" type="curve" smooth="yes"/>
			<point x="714" y="173"/>
			<point x="545" y="29"/>
		</contour>
	</outline>
</glyph>
<glyph name="product" format="2">
	<advance width="601"/>
	<unicode hex="220F"/>
	<note>
		product
	</note>
	<outline>
		<contour>
			<point x="580" y="603" type="line"/>
			<point x="640" y="603" type="line"/>
			<point x="658" y="690" type="line"/>
			<point x="123" y="690" type="line"/>
			<point x="105" y="603" type="line"/>
			<point x="165" y="603" type="line"/>
			<point x="13" y="-110" type="line"/>
			<point x="122" y="-110" type="line"/>
			<point x="274" y="603" type="line"/>
			<point x="471" y="603" type="line"/>
			<point x="319" y="-110" type="line"/>
			<point x="428" y="-110" type="line"/>
		</contour>
	</outline>
</glyph>
<glyph name="radical" format="2">
	<advance width="601"/>
	<unicode hex="221A"/>
	<note>
		radical
	</note>
	<outline>
		<contour>
			<point x="259" y="-160" type="line"/>
			<point x="675" y="780" type="line"/>
			<point x="602" y="780" type="line"/>
			<point x="232" y="-74" type="line"/>
			<point x="199" y="310" type="line"/>
			<point x="74" y="310" type="line"/>
			<point x="60" y="246" type="line"/>
			<point x="130" y="246" type="line"/>
			<point x="171" y="-160" type="line"/>
		</contour>
	</outline>
</glyph>
<glyph name="infinity" format="2">
	<advance width="995"/>
	<unicode hex="221E"/>
	<note>
		infinity
	</note>
	<outline>
		<contour>
			<point x="779" y="544" type="curve" smooth="yes"/>
			<point x="675" y="544"/>
			<point x="602" y="499"/>
			<point x="530" y="396" type="curve"/>
			<point x="503" y="499"/>
			<point x="434" y="544"/>
			<point x="337" y="544" type="curve" smooth="yes"/>
			<point x="170" y="544"/>
			<point x="62" y="421"/>
			<point x="29" y="265" type="curve" smooth="yes"/>
			<point x="-4" y="110"/>
			<point x="52" y="-14"/>
			<point x="216" y="-14" type="curve" smooth="yes"/>
			<point x="320" y="-14"/>
			<point x="394" y="31"/>
			<point x="466" y="134" type="curve"/>
			<point x="493" y="31"/>
			<point x="561" y="-14"/>
			<point x="659" y="-14" type="curve" smooth="yes"/>
			<point x="825" y="-14"/>
			<point x="934" y="110"/>
			<point x="967" y="265" type="curve" smooth="yes"/>
			<point x="1000" y="421"/>
			<point x="943" y="544"/>
		</contour>
		<contour>
			<point x="238" y="66" type="curve" smooth="yes"/>
			<point x="159" y="66"/>
			<point x="120" y="147"/>
			<point x="145" y="265" type="curve" smooth="yes"/>
			<point x="170" y="383"/>
			<point x="243" y="464"/>
			<point x="322" y="464" type="curve" smooth="yes"/>
			<point x="392" y="464"/>
			<point x="434" y="410"/>
			<point x="429" y="265" type="curve"/>
			<point x="381" y="121"/>
			<point x="308" y="66"/>
		</contour>
		<contour>
			<point x="673" y="66" type="curve" smooth="yes"/>
			<point x="603" y="66"/>
			<point x="562" y="121"/>
			<point x="567" y="265" type="curve"/>
			<point x="615" y="409"/>
			<point x="687" y="464"/>
			<point x="757" y="464" type="curve" smooth="yes"/>
			<point x="837" y="464"/>
			<point x="875" y="383"/>
			<point x="850" y="265" type="curve" smooth="yes"/>
			<point x="825" y="147"/>
			<point x="753" y="66"/>
		</contour>
	</outline>
</glyph>
<glyph name="integral" format="2">
	<advance width="600"/>
	<unicode hex="222B"/>
	<note>
		integral
	</note>
	<outline>
		<contour>
			<point x="453" y="754" type="curve" smooth="yes"/>
			<point x="370" y="754"/>
			<point x="296" y="686"/>
			<point x="272" y="572" type="curve" smooth="yes"/>
			<point x="258" y="505"/>
			<point x="257" y="435"/>
			<point x="269" y="290" type="curve" smooth="yes"/>
			<point x="284" y="123"/>
			<point x="280" y="75"/>
			<point x="267" y="18" type="curve" smooth="yes"/>
			<point x="252" y="-57"/>
			<point x="211" y="-94"/>
			<point x="169" y="-94" type="curve" smooth="yes"/>
			<point x="145" y="-94"/>
			<point x="130" y="-90"/>
			<point x="112" y="-75" type="curve"/>
			<point x="83" y="-138" type="line"/>
			<point x="106" y="-156"/>
			<point x="128" y="-160"/>
			<point x="161" y="-160" type="curve" smooth="yes"/>
			<point x="244" y="-160"/>
			<point x="317" y="-92"/>
			<point x="342" y="23" type="curve" smooth="yes"/>
			<point x="356" y="89"/>
			<point x="356" y="159"/>
			<point x="344" y="304" type="curve" smooth="yes"/>
			<point x="330" y="471"/>
			<point x="334" y="520"/>
			<point x="346" y="577" type="curve" smooth="yes"/>
			<point x="362" y="651"/>
			<point x="403" y="688"/>
			<point x="445" y="688" type="curve" smooth="yes"/>
			<point x="469" y="688"/>
			<point x="484" y="684"/>
			<point x="502" y="669" type="curve"/>
			<point x="530" y="732" type="line"/>
			<point x="508" y="750"/>
			<point x="486" y="754"/>
		</contour>
	</outline>
</glyph>
<glyph name="approxequal" format="2">
	<advance width="601"/>
	<unicode hex="2248"/>
	<note>
		approxequal
	</note>
	<outline>
		<contour>
			<point x="235" y="453" type="curve" smooth="yes"/>
			<point x="182" y="453"/>
			<point x="140" y="431"/>
			<point x="94" y="376" type="curve"/>
			<point x="131" y="332" type="line"/>
			<point x="160" y="366"/>
			<point x="186" y="381"/>
			<point x="217" y="381" type="curve" smooth="yes"/>
			<point x="245" y="381"/>
			<point x="266" y="368"/>
			<point x="303" y="346" type="curve" smooth="yes"/>
			<point x="350" y="317"/>
			<point x="373" y="305"/>
			<point x="413" y="305" type="curve" smooth="yes"/>
			<point x="467" y="305"/>
			<point x="509" y="329"/>
			<point x="555" y="384" type="curve"/>
			<point x="517" y="425" type="line"/>
			<point x="488" y="392"/>
			<point x="463" y="377"/>
			<point x="432" y="377" type="curve" smooth="yes"/>
			<point x="404" y="377"/>
			<point x="382" y="389"/>
			<point x="344" y="412" type="curve" smooth="yes"/>
			<point x="298" y="440"/>
			<point x="275" y="453"/>
		</contour>
		<contour>
			<point x="199" y="283" type="curve" smooth="yes"/>
			<point x="146" y="283"/>
			<point x="104" y="261"/>
			<point x="57" y="206" type="curve"/>
			<point x="95" y="162" type="line"/>
			<point x="124" y="196"/>
			<point x="150" y="211"/>
			<point x="181" y="211" type="curve" smooth="yes"/>
			<point x="209" y="211"/>
			<point x="230" y="198"/>
			<point x="267" y="176" type="curve" smooth="yes"/>
			<point x="314" y="147"/>
			<point x="336" y="135"/>
			<point x="376" y="135" type="curve" smooth="yes"/>
			<point x="430" y="135"/>
			<point x="472" y="159"/>
			<point x="519" y="214" type="curve"/>
			<point x="481" y="255" type="line"/>
			<point x="452" y="222"/>
			<point x="427" y="207"/>
			<point x="396" y="207" type="curve" smooth="yes"/>
			<point x="368" y="207"/>
			<point x="346" y="219"/>
			<point x="308" y="242" type="curve" smooth="yes"/>
			<point x="262" y="270"/>
			<point x="239" y="283"/>
		</contour>
	</outline>
</glyph>
<glyph name="notequal" format="2">
	<advance width="601"/>
	<unicode hex="2260"/>
	<note>
		notequal
	</note>
	<outline>
		<contour>
			<point x="297" y="248" type="line"/>
			<point x="401" y="384" type="line"/>
			<point x="544" y="384" type="line"/>
			<point x="558" y="448" type="line"/>
			<point x="451" y="448" type="line"/>
			<point x="523" y="541" type="line"/>
			<point x="447" y="541" type="line"/>
			<point x="375" y="448" type="line"/>
			<point x="121" y="448" type="line"/>
			<point x="107" y="384" type="line"/>
			<point x="325" y="384" type="line"/>
			<point x="221" y="248" type="line"/>
			<point x="78" y="248" type="line"/>
			<point x="65" y="184" type="line"/>
			<point x="172" y="184" type="line"/>
			<point x="100" y="91" type="line"/>
			<point x="176" y="91" type="line"/>
			<point x="248" y="184" type="line"/>
			<point x="502" y="184" type="line"/>
			<point x="515" y="248" type="line"/>
		</contour>
	</outline>
</glyph>
<glyph name="fi" format="2">
	<advance width="558"/>
	<unicode hex="FB01"/>
	<note>
		fi
	</note>
	<outline>
		<contour>
			<point x="430" y="0" type="line"/>
			<point x="542" y="527" type="line"/>
			<point x="243" y="527" type="line"/>
			<point x="247" y="545" type="line" smooth="yes"/>
			<point x="249" y="559"/>
			<point x="255" y="581"/>
			<point x="260" y="595" type="curve" smooth="yes"/>
			<point x="281" y="654"/>
			<point x="330" y="676"/>
			<point x="462" y="666" type="curve"/>
			<point x="480" y="748" type="line"/>
			<point x="460" y="752"/>
			<point x="439" y="754"/>
			<point x="412" y="754" type="curve" smooth="yes"/>
			<point x="259" y="754"/>
			<point x="182" y="699"/>
			<point x="151" y="601" type="curve" smooth="yes"/>
			<point x="146" y="583"/>
			<point x="140" y="558"/>
			<point x="136" y="539" type="curve" smooth="yes"/>
			<point x="134" y="527" type="line"/>
			<point x="77" y="527" type="line"/>
			<point x="60" y="450" type="line"/>
			<point x="117" y="450" type="line"/>
			<point x="22" y="0" type="line"/>
			<point x="131" y="0" type="line"/>
			<point x="226" y="450" type="line"/>
			<point x="416" y="450" type="line"/>
			<point x="321" y="0" type="line"/>
		</contour>
	</outline>
</glyph>
<glyph name="uF1110" format="2">
	<advance width="894"/>
	<unicode hex="F1110"/>
	<outline>
		<contour>
			<point x="325" y="77" type="line"/>
			<point x="319" y="0" type="line"/>
			<point x="428" y="0" type="line"/>
			<point x="432" y="59"/>
			<point x="438" y="95"/>
			<point x="446" y="135" type="curve" smooth="yes"/>
			<point x="468" y="235" type="line"/>
			<point x="469" y="235" type="line"/>
			<point x="850" y="235" type="line"/>
			<point x="856" y="254"/>
			<point x="859" y="269"/>
			<point x="861" y="279" type="curve" smooth="yes"/>
			<point x="893" y="429"/>
			<point x="835" y="545"/>
			<point x="681" y="545" type="curve" smooth="yes"/>
			<point x="610" y="545"/>
			<point x="543" y="521"/>
			<point x="489" y="478" type="curve"/>
			<point x="469" y="520"/>
			<point x="421" y="545"/>
			<point x="331" y="545" type="curve" smooth="yes"/>
			<point x="210" y="545"/>
			<point x="108" y="479"/>
			<point x="77" y="363" type="curve"/>
			<point x="187" y="363" type="line"/>
			<point x="207" y="429"/>
			<point x="248" y="465"/>
			<point x="312" y="465" type="curve" smooth="yes"/>
			<point x="375" y="465"/>
			<point x="395" y="435"/>
			<point x="389" y="392" type="curve" smooth="yes"/>
			<point x="387" y="372"/>
			<point x="383" y="354"/>
			<point x="379" y="334" type="curve" smooth="yes"/>
			<point x="376" y="321" type="line"/>
			<point x="342" y="321" type="line" smooth="yes"/>
			<point x="141" y="321"/>
			<point x="33" y="257"/>
			<point x="8" y="139" type="curve" smooth="yes"/>
			<point x="-13" y="40"/>
			<point x="53" y="-14"/>
			<point x="147" y="-14" type="curve" smooth="yes"/>
			<point x="197" y="-14"/>
			<point x="245" y="-5"/>
			<point x="286" y="20" type="curve"/>
		</contour>
		<contour>
			<point x="126" y="148" type="curve" smooth="yes"/>
			<point x="143" y="229"/>
			<point x="234" y="258"/>
			<point x="360" y="248" type="curve"/>
			<point x="350" y="199" type="line" smooth="yes"/>
			<point x="332" y="113"/>
			<point x="273" y="66"/>
			<point x="204" y="66" type="curve" smooth="yes"/>
			<point x="146" y="66"/>
			<point x="114" y="92"/>
		</contour>
		<contour>
			<point x="486" y="312" type="line"/>
			<point x="520" y="414"/>
			<point x="585" y="465"/>
			<point x="660" y="465" type="curve" smooth="yes"/>
			<point x="737" y="465"/>
			<point x="768" y="410"/>
			<point x="755" y="312" type="curve"/>
		</contour>
	</outline>
</glyph>
<glyph name="uF1440" format="2">
	<advance width="1240"/>
	<unicode hex="F1440"/>
	<outline>
		<contour>
			<point x="472" y="704" type="curve" smooth="yes"/>
			<point x="278" y="704"/>
			<point x="111" y="559"/>
			<point x="65" y="342" type="curve" smooth="yes"/>
			<point x="21" y="132"/>
			<point x="111" y="-14"/>
			<point x="308" y="-14" type="curve" smooth="yes"/>
			<point x="426" y="-14"/>
			<point x="519" y="30"/>
			<point x="582" y="98" type="curve"/>
			<point x="622" y="27"/>
			<point x="701" y="-14"/>
			<point x="815" y="-14" type="curve" smooth="yes"/>
			<point x="841" y="-14"/>
			<point x="864" y="-12"/>
			<point x="887" y="-7" type="curve" smooth="yes"/>
			<point x="916" y="-1"/>
			<point x="934" y="2"/>
			<point x="962" y="2" type="curve" smooth="yes"/>
			<point x="1000" y="2"/>
			<point x="1029" y="-7"/>
			<point x="1087" y="-51" type="curve"/>
			<point x="1161" y="22" type="line"/>
			<point x="1127" y="57"/>
			<point x="1092" y="79"/>
			<point x="1049" y="87" type="curve"/>
			<point x="1139" y="144"/>
			<point x="1200" y="238"/>
			<point x="1223" y="345" type="curve" smooth="yes"/>
			<point x="1268" y="559"/>
			<point x="1178" y="704"/>
			<point x="967" y="704" type="curve" smooth="yes"/>
			<point x="856" y="704"/>
			<point x="764" y="663"/>
			<point x="693" y="594" type="curve"/>
			<point x="662" y="661"/>
			<point x="590" y="704"/>
		</contour>
		<contour>
			<point x="185" y="347" type="curve" smooth="yes"/>
			<point x="220" y="510"/>
			<point x="324" y="620"/>
			<point x="452" y="620" type="curve" smooth="yes"/>
			<point x="556" y="620"/>
			<point x="601" y="561"/>
			<point x="600" y="468" type="curve" smooth="yes"/>
			<point x="600" y="458" type="line"/>
			<point x="709" y="458" type="line"/>
			<point x="759" y="559"/>
			<point x="848" y="620"/>
			<point x="949" y="620" type="curve" smooth="yes"/>
			<point x="1083" y="620"/>
			<point x="1142" y="517"/>
			<point x="1105" y="345" type="curve" smooth="yes"/>
			<point x="1069" y="174"/>
			<point x="967" y="70"/>
			<point x="833" y="70" type="curve" smooth="yes"/>
			<point x="729" y="70"/>
			<point x="661" y="128"/>
			<point x="656" y="234" type="curve"/>
			<point x="547" y="234" type="line"/>
			<point x="543" y="224" type="line" smooth="yes"/>
			<point x="505" y="131"/>
			<point x="435" y="70"/>
			<point x="331" y="70" type="curve" smooth="yes"/>
			<point x="209" y="70"/>
			<point x="149" y="176"/>
		</contour>
	</outline>
</glyph>
<glyph name="uF1510" format="2">
	<advance width="944"/>
	<unicode hex="F1510"/>
	<outline>
		<contour>
			<point x="346" y="545" type="curve" smooth="yes"/>
			<point x="207" y="545"/>
			<point x="67" y="444"/>
			<point x="29" y="263" type="curve" smooth="yes"/>
			<point x="-12" y="74"/>
			<point x="75" y="-14"/>
			<point x="214" y="-14" type="curve" smooth="yes"/>
			<point x="339" y="-14"/>
			<point x="444" y="49"/>
			<point x="496" y="176" type="curve"/>
			<point x="384" y="176" type="line"/>
			<point x="353" y="104"/>
			<point x="300" y="66"/>
			<point x="237" y="66" type="curve" smooth="yes"/>
			<point x="163" y="66"/>
			<point x="116" y="127"/>
			<point x="146" y="271" type="curve" smooth="yes"/>
			<point x="175" y="404"/>
			<point x="249" y="465"/>
			<point x="326" y="465" type="curve" smooth="yes"/>
			<point x="391" y="465"/>
			<point x="426" y="428"/>
			<point x="424" y="347" type="curve"/>
			<point x="535" y="347" type="line"/>
			<point x="536" y="348" type="line"/>
			<point x="546" y="362"/>
			<point x="626" y="462"/>
			<point x="697" y="464" type="curve" smooth="yes"/>
			<point x="773" y="465"/>
			<point x="795" y="422"/>
			<point x="788" y="362" type="curve" smooth="yes"/>
			<point x="784" y="335"/>
			<point x="779" y="312"/>
			<point x="774" y="287" type="curve" smooth="yes"/>
			<point x="713" y="0" type="line"/>
			<point x="823" y="0" type="line"/>
			<point x="886" y="299" type="line" smooth="yes"/>
			<point x="895" y="342"/>
			<point x="899" y="366"/>
			<point x="903" y="393" type="curve" smooth="yes"/>
			<point x="913" y="486"/>
			<point x="861" y="545"/>
			<point x="747" y="545" type="curve" smooth="yes"/>
			<point x="694" y="545"/>
			<point x="653" y="536"/>
			<point x="604" y="504" type="curve"/>
			<point x="555" y="443" type="line"/>
			<point x="618" y="740" type="line"/>
			<point x="508" y="740" type="line"/>
			<point x="461" y="518" type="line"/>
			<point x="430" y="535"/>
			<point x="393" y="545"/>
		</contour>
	</outline>
</glyph>
<glyph name="uF1710" format="2">
	<advance width="981"/>
	<unicode hex="F1710"/>
	<outline>
		<contour>
			<point x="501" y="0" type="line"/>
			<point x="551" y="235" type="line"/>
			<point x="937" y="235" type="line"/>
			<point x="943" y="254"/>
			<point x="946" y="269"/>
			<point x="948" y="279" type="curve" smooth="yes"/>
			<point x="980" y="429"/>
			<point x="922" y="545"/>
			<point x="768" y="545" type="curve" smooth="yes"/>
			<point x="710" y="545"/>
			<point x="654" y="529"/>
			<point x="607" y="499" type="curve"/>
			<point x="657" y="735" type="line"/>
			<point x="547" y="735" type="line"/>
			<point x="488" y="459" type="line"/>
			<point x="465" y="512" type="line"/>
			<point x="442" y="533"/>
			<point x="390" y="545"/>
			<point x="346" y="545" type="curve" smooth="yes"/>
			<point x="209" y="545"/>
			<point x="69" y="451"/>
			<point x="27" y="257" type="curve" smooth="yes"/>
			<point x="-6" y="101"/>
			<point x="57" y="-14"/>
			<point x="209" y="-14" type="curve" smooth="yes"/>
			<point x="263" y="-14"/>
			<point x="321" y="2"/>
			<point x="356" y="26" type="curve"/>
			<point x="409" y="84" type="line"/>
			<point x="391" y="0" type="line"/>
		</contour>
		<contour>
			<point x="145" y="266" type="curve" smooth="yes"/>
			<point x="173" y="398"/>
			<point x="254" y="465"/>
			<point x="341" y="465" type="curve" smooth="yes"/>
			<point x="412" y="465"/>
			<point x="479" y="417"/>
			<point x="452" y="288" type="curve" smooth="yes"/>
			<point x="446" y="260" type="line" smooth="yes"/>
			<point x="416" y="118"/>
			<point x="334" y="66"/>
			<point x="251" y="66" type="curve" smooth="yes"/>
			<point x="156" y="66"/>
			<point x="121" y="151"/>
		</contour>
		<contour>
			<point x="573" y="312" type="line"/>
			<point x="607" y="414"/>
			<point x="672" y="465"/>
			<point x="747" y="465" type="curve" smooth="yes"/>
			<point x="824" y="465"/>
			<point x="855" y="410"/>
			<point x="842" y="312" type="curve"/>
		</contour>
	</outline>
</glyph>
<glyph name="uF1850" format="2">
	<advance width="1004"/>
	<unicode hex="F1850"/>
	<outline>
		<contour>
			<point x="795" y="592" type="curve" smooth="yes"/>
			<point x="666" y="592"/>
			<point x="541" y="517"/>
			<point x="515" y="395" type="curve" smooth="yes"/>
			<point x="513" y="389" type="line"/>
			<point x="231" y="389" type="line"/>
			<point x="277" y="603" type="line"/>
			<point x="634" y="603" type="line"/>
			<point x="652" y="690" type="line"/>
			<point x="185" y="690" type="line"/>
			<point x="39" y="0" type="line"/>
			<point x="425" y="0" type="line"/>
			<point x="448" y="-82"/>
			<point x="526" y="-126"/>
			<point x="647" y="-126" type="curve" smooth="yes"/>
			<point x="781" y="-126"/>
			<point x="908" y="-50"/>
			<point x="935" y="75" type="curve" smooth="yes"/>
			<point x="959" y="190"/>
			<point x="901" y="255"/>
			<point x="756" y="290" type="curve" smooth="yes"/>
			<point x="655" y="315"/>
			<point x="620" y="346"/>
			<point x="634" y="413" type="curve" smooth="yes"/>
			<point x="648" y="478"/>
			<point x="706" y="508"/>
			<point x="771" y="508" type="curve" smooth="yes"/>
			<point x="851" y="508"/>
			<point x="887" y="461"/>
			<point x="878" y="382" type="curve"/>
			<point x="992" y="382" type="line"/>
			<point x="1003" y="502"/>
			<point x="948" y="592"/>
		</contour>
		<contour>
			<point x="167" y="88" type="line"/>
			<point x="213" y="302" type="line"/>
			<point x="519" y="302" type="line"/>
			<point x="541" y="246"/>
			<point x="605" y="216"/>
			<point x="690" y="195" type="curve" smooth="yes"/>
			<point x="797" y="169"/>
			<point x="831" y="132"/>
			<point x="815" y="60" type="curve" smooth="yes"/>
			<point x="802" y="-3"/>
			<point x="737" y="-42"/>
			<point x="665" y="-42" type="curve" smooth="yes"/>
			<point x="585" y="-42"/>
			<point x="535" y="1"/>
			<point x="534" y="84" type="curve"/>
			<point x="534" y="88" type="line"/>
		</contour>
	</outline>
</glyph>
<glyph name="uF1910" format="2">
	<advance width="915"/>
	<unicode hex="F1910"/>
	<outline>
		<contour>
			<point x="328" y="465" type="curve" smooth="yes"/>
			<point x="405" y="465"/>
			<point x="436" y="410"/>
			<point x="423" y="312" type="curve"/>
			<point x="154" y="312" type="line"/>
			<point x="188" y="414"/>
			<point x="253" y="465"/>
		</contour>
		<contour>
			<point x="29" y="264" type="curve" smooth="yes"/>
			<point x="-11" y="76"/>
			<point x="77" y="-14"/>
			<point x="219" y="-14" type="curve" smooth="yes"/>
			<point x="335" y="-14"/>
			<point x="448" y="46"/>
			<point x="498" y="172" type="curve"/>
			<point x="387" y="172" type="line"/>
			<point x="362" y="105"/>
			<point x="304" y="66"/>
			<point x="240" y="66" type="curve" smooth="yes"/>
			<point x="168" y="66"/>
			<point x="119" y="108"/>
			<point x="137" y="235" type="curve"/>
			<point x="571" y="235" type="line" smooth="yes"/>
			<point x="621" y="235"/>
			<point x="668" y="244"/>
			<point x="709" y="269" type="curve"/>
			<point x="748" y="326" type="line"/>
			<point x="742" y="249" type="line"/>
			<point x="851" y="249" type="line"/>
			<point x="855" y="308"/>
			<point x="861" y="344"/>
			<point x="869" y="384" type="curve" smooth="yes"/>
			<point x="909" y="571" type="line" smooth="yes"/>
			<point x="914" y="596"/>
			<point x="919" y="624"/>
			<point x="922" y="646" type="curve" smooth="yes"/>
			<point x="932" y="736"/>
			<point x="890" y="794"/>
			<point x="753" y="794" type="curve" smooth="yes"/>
			<point x="632" y="794"/>
			<point x="531" y="728"/>
			<point x="500" y="612" type="curve"/>
			<point x="610" y="612" type="line"/>
			<point x="630" y="678"/>
			<point x="670" y="714"/>
			<point x="734" y="714" type="curve" smooth="yes"/>
			<point x="797" y="714"/>
			<point x="818" y="684"/>
			<point x="812" y="641" type="curve" smooth="yes"/>
			<point x="810" y="621"/>
			<point x="806" y="603"/>
			<point x="802" y="583" type="curve" smooth="yes"/>
			<point x="799" y="570" type="line"/>
			<point x="765" y="570" type="line" smooth="yes"/>
			<point x="635" y="570"/>
			<point x="544" y="543"/>
			<point x="489" y="493" type="curve"/>
			<point x="458" y="526"/>
			<point x="412" y="545"/>
			<point x="349" y="545" type="curve" smooth="yes"/>
			<point x="196" y="545"/>
			<point x="64" y="432"/>
		</contour>
		<contour>
			<point x="549" y="394" type="curve" smooth="yes"/>
			<point x="567" y="475"/>
			<point x="657" y="504"/>
			<point x="784" y="494" type="curve"/>
			<point x="773" y="445" type="line" smooth="yes"/>
			<point x="755" y="359"/>
			<point x="696" y="312"/>
			<point x="627" y="312" type="curve" smooth="yes"/>
			<point x="569" y="312"/>
			<point x="538" y="338"/>
		</contour>
	</outline>
</glyph>
<glyph name="uF1920" format="2">
	<advance width="944"/>
	<unicode hex="F1920"/>
	<outline>
		<contour>
			<point x="311" y="578" type="line"/>
			<point x="377" y="578" type="line"/>
			<point x="504" y="692" type="line"/>
			<point x="404" y="692" type="line"/>
		</contour>
		<contour>
			<point x="29" y="264" type="curve" smooth="yes"/>
			<point x="-11" y="76"/>
			<point x="77" y="-14"/>
			<point x="219" y="-14" type="curve" smooth="yes"/>
			<point x="335" y="-14"/>
			<point x="448" y="46"/>
			<point x="498" y="172" type="curve"/>
			<point x="387" y="172" type="line"/>
			<point x="362" y="105"/>
			<point x="304" y="66"/>
			<point x="240" y="66" type="curve" smooth="yes"/>
			<point x="168" y="66"/>
			<point x="119" y="108"/>
			<point x="137" y="235" type="curve"/>
			<point x="518" y="235" type="line"/>
			<point x="519" y="235" type="line"/>
			<point x="900" y="235" type="line"/>
			<point x="906" y="254"/>
			<point x="909" y="269"/>
			<point x="911" y="279" type="curve" smooth="yes"/>
			<point x="943" y="429"/>
			<point x="885" y="545"/>
			<point x="731" y="545" type="curve" smooth="yes"/>
			<point x="649" y="545"/>
			<point x="573" y="513"/>
			<point x="515" y="457" type="curve"/>
			<point x="486" y="511"/>
			<point x="432" y="545"/>
			<point x="349" y="545" type="curve" smooth="yes"/>
			<point x="196" y="545"/>
			<point x="64" y="432"/>
		</contour>
		<contour>
			<point x="154" y="312" type="line"/>
			<point x="188" y="414"/>
			<point x="253" y="465"/>
			<point x="328" y="465" type="curve" smooth="yes"/>
			<point x="405" y="465"/>
			<point x="436" y="410"/>
			<point x="423" y="312" type="curve"/>
		</contour>
		<contour>
			<point x="536" y="312" type="line"/>
			<point x="570" y="414"/>
			<point x="635" y="465"/>
			<point x="710" y="465" type="curve" smooth="yes"/>
			<point x="787" y="465"/>
			<point x="818" y="410"/>
			<point x="805" y="312" type="curve"/>
		</contour>
	</outline>
</glyph>
<glyph name="uF1A00" format="2">
	<advance width="1376"/>
	<unicode hex="F1A00"/>
	<outline>
		<contour>
			<point x="516" y="0" type="line"/>
			<point x="534" y="88" type="line"/>
			<point x="167" y="88" type="line"/>
			<point x="213" y="302" type="line"/>
			<point x="542" y="302" type="line"/>
			<point x="560" y="389" type="line"/>
			<point x="231" y="389" type="line"/>
			<point x="277" y="603" type="line"/>
			<point x="634" y="603" type="line"/>
			<point x="652" y="690" type="line"/>
			<point x="185" y="690" type="line"/>
			<point x="39" y="0" type="line"/>
		</contour>
		<contour>
			<point x="315" y="758" type="line"/>
			<point x="570" y="758" type="line"/>
			<point x="583" y="821" type="line"/>
			<point x="328" y="821" type="line"/>
		</contour>
		<contour>
			<point x="701" y="603" type="line"/>
			<point x="942" y="603" type="line"/>
			<point x="814" y="0" type="line"/>
			<point x="750" y="-302" type="line"/>
			<point x="1227" y="-302" type="line"/>
			<point x="1246" y="-214" type="line"/>
			<point x="879" y="-214" type="line"/>
			<point x="925" y="0" type="line"/>
			<point x="1254" y="0" type="line"/>
			<point x="1272" y="87" type="line"/>
			<point x="943" y="87" type="line"/>
			<point x="989" y="301" type="line"/>
			<point x="1346" y="301" type="line"/>
			<point x="1364" y="388" type="line"/>
			<point x="1005" y="388" type="line"/>
			<point x="1051" y="603" type="line"/>
			<point x="1292" y="603" type="line"/>
			<point x="1310" y="690" type="line"/>
			<point x="719" y="690" type="line"/>
		</contour>
	</outline>
</glyph>
<glyph name="uF2030" format="2">
	<advance width="1385"/>
	<unicode hex="F2030"/>
	<outline>
		<contour>
			<point x="231" y="389" type="line"/>
			<point x="277" y="603" type="line"/>
			<point x="633" y="603" type="line"/>
			<point x="505" y="0" type="line"/>
			<point x="615" y="0" type="line"/>
			<point x="679" y="302" type="line"/>
			<point x="888" y="302" type="line"/>
			<point x="824" y="0" type="line"/>
			<point x="1301" y="0" type="line"/>
			<point x="1319" y="88" type="line"/>
			<point x="952" y="88" type="line"/>
			<point x="998" y="302" type="line"/>
			<point x="1327" y="302" type="line"/>
			<point x="1345" y="389" type="line"/>
			<point x="1016" y="389" type="line"/>
			<point x="1062" y="603" type="line"/>
			<point x="1419" y="603" type="line"/>
			<point x="1437" y="690" type="line"/>
			<point x="185" y="690" type="line"/>
			<point x="39" y="0" type="line"/>
			<point x="149" y="0" type="line"/>
			<point x="213" y="302" type="line"/>
			<point x="532" y="302" type="line"/>
			<point x="550" y="389" type="line"/>
		</contour>
		<contour>
			<point x="697" y="389" type="line"/>
			<point x="743" y="603" type="line"/>
			<point x="952" y="603" type="line"/>
			<point x="906" y="389" type="line"/>
		</contour>
	</outline>
</glyph>
<glyph name="uF2050" format="2">
	<advance width="1063"/>
	<unicode hex="F2050"/>
	<outline>
		<contour>
			<point x="231" y="389" type="line"/>
			<point x="277" y="603" type="line"/>
			<point x="545" y="603" type="line"/>
			<point x="628" y="0" type="line"/>
			<point x="770" y="0" type="line"/>
			<point x="1164" y="690" type="line"/>
			<point x="1047" y="690" type="line"/>
			<point x="719" y="84" type="line"/>
			<point x="652" y="690" type="line"/>
			<point x="185" y="690" type="line"/>
			<point x="39" y="0" type="line"/>
			<point x="149" y="0" type="line"/>
			<point x="213" y="302" type="line"/>
			<point x="532" y="302" type="line"/>
			<point x="550" y="389" type="line"/>
		</contour>
	</outline>
</glyph>
<glyph name="uF2150" format="2">
	<advance width="577"/>
	<unicode hex="F2150"/>
	<outline>
		<contour>
			<point x="265" y="618" type="curve" smooth="yes"/>
			<point x="280" y="662"/>
			<point x="328" y="678"/>
			<point x="390" y="666" type="curve"/>
			<point x="408" y="748" type="line"/>
			<point x="391" y="752"/>
			<point x="370" y="754"/>
			<point x="348" y="754" type="curve" smooth="yes"/>
			<point x="248" y="754"/>
			<point x="183" y="706"/>
			<point x="156" y="624" type="curve" smooth="yes"/>
			<point x="150" y="606"/>
			<point x="145" y="580"/>
			<point x="141" y="561" type="curve" smooth="yes"/>
			<point x="134" y="527" type="line"/>
			<point x="77" y="527" type="line"/>
			<point x="60" y="450" type="line"/>
			<point x="117" y="450" type="line"/>
			<point x="187" y="0" type="line"/>
			<point x="315" y="0" type="line"/>
			<point x="631" y="531" type="line"/>
			<point x="514" y="531" type="line"/>
			<point x="271" y="81" type="line"/>
			<point x="226" y="450" type="line"/>
			<point x="335" y="450" type="line"/>
			<point x="352" y="527" type="line"/>
			<point x="243" y="527" type="line"/>
			<point x="251" y="567" type="line" smooth="yes"/>
			<point x="254" y="582"/>
			<point x="260" y="604"/>
		</contour>
	</outline>
</glyph>
<glyph name="uF2610" format="2">
	<advance width="882"/>
	<unicode hex="F2610"/>
	<outline>
		<contour>
			<point x="798" y="0" type="line"/>
			<point x="816" y="88" type="line"/>
			<point x="449" y="88" type="line"/>
			<point x="495" y="302" type="line"/>
			<point x="824" y="302" type="line"/>
			<point x="842" y="389" type="line"/>
			<point x="513" y="389" type="line"/>
			<point x="559" y="603" type="line"/>
			<point x="916" y="603" type="line"/>
			<point x="934" y="690" type="line"/>
			<point x="467" y="690" type="line"/>
			<point x="321" y="0" type="line"/>
		</contour>
		<contour>
			<point x="72" y="159" type="line"/>
			<point x="182" y="159" type="line"/>
			<point x="295" y="690" type="line"/>
			<point x="185" y="690" type="line"/>
		</contour>
		<contour>
			<point x="225" y="875" type="line"/>
			<point x="198" y="748" type="line"/>
			<point x="309" y="748" type="line"/>
			<point x="336" y="875" type="line"/>
		</contour>
	</outline>
</glyph>
<glyph name="uF2640" format="2">
	<advance width="867"/>
	<unicode hex="F2640"/>
	<outline>
		<contour>
			<point x="795" y="0" type="line"/>
			<point x="814" y="91" type="line"/>
			<point x="447" y="91" type="line"/>
			<point x="574" y="690" type="line"/>
			<point x="464" y="690" type="line"/>
			<point x="318" y="0" type="line"/>
		</contour>
		<contour>
			<point x="73" y="160" type="line"/>
			<point x="183" y="160" type="line"/>
			<point x="296" y="691" type="line"/>
			<point x="186" y="691" type="line"/>
		</contour>
		<contour>
			<point x="225" y="876" type="line"/>
			<point x="198" y="749" type="line"/>
			<point x="309" y="749" type="line"/>
			<point x="336" y="876" type="line"/>
		</contour>
	</outline>
</glyph>
<glyph name="uF2710" format="2">
	<advance width="602"/>
	<unicode hex="F2710"/>
	<outline>
		<contour>
			<point x="13" y="0" type="line"/>
			<point x="123" y="0" type="line"/>
			<point x="173" y="236" type="line"/>
			<point x="177" y="235" type="line"/>
			<point x="558" y="235" type="line"/>
			<point x="564" y="254"/>
			<point x="567" y="269"/>
			<point x="569" y="279" type="curve" smooth="yes"/>
			<point x="601" y="429"/>
			<point x="543" y="545"/>
			<point x="389" y="545" type="curve" smooth="yes"/>
			<point x="331" y="545"/>
			<point x="276" y="529"/>
			<point x="229" y="500" type="curve"/>
			<point x="236" y="531" type="line"/>
			<point x="126" y="531" type="line"/>
		</contour>
		<contour>
			<point x="138" y="589" type="line"/>
			<point x="249" y="589" type="line"/>
			<point x="276" y="716" type="line"/>
			<point x="165" y="716" type="line"/>
		</contour>
		<contour>
			<point x="194" y="312" type="line"/>
			<point x="228" y="414"/>
			<point x="293" y="465"/>
			<point x="368" y="465" type="curve" smooth="yes"/>
			<point x="445" y="465"/>
			<point x="476" y="410"/>
			<point x="463" y="312" type="curve"/>
		</contour>
	</outline>
</glyph>
<glyph name="uF2740" format="2">
	<advance width="445"/>
	<unicode hex="F2740"/>
	<outline>
		<contour>
			<point x="13" y="0" type="line"/>
			<point x="123" y="0" type="line"/>
			<point x="236" y="531" type="line"/>
			<point x="126" y="531" type="line"/>
		</contour>
		<contour>
			<point x="165" y="716" type="line"/>
			<point x="138" y="589" type="line"/>
			<point x="249" y="589" type="line"/>
			<point x="276" y="716" type="line"/>
		</contour>
		<contour>
			<point x="291" y="158" type="curve" smooth="yes"/>
			<point x="413" y="731" type="line"/>
			<point x="521" y="731" type="line"/>
			<point x="399" y="155" type="line" smooth="yes"/>
			<point x="392" y="123"/>
			<point x="387" y="99"/>
			<point x="381" y="79" type="curve" smooth="yes"/>
			<point x="364" y="11"/>
			<point x="321" y="-10"/>
			<point x="264" y="-10" type="curve" smooth="yes"/>
			<point x="239" y="-10"/>
			<point x="215" y="-8"/>
			<point x="194" y="-5" type="curve"/>
			<point x="210" y="72" type="line"/>
			<point x="255" y="68"/>
			<point x="272" y="78"/>
			<point x="280" y="108" type="curve" smooth="yes"/>
			<point x="284" y="124"/>
			<point x="287" y="140"/>
		</contour>
	</outline>
</glyph>
<glyph name="uF3310" format="2">
	<advance width="598"/>
	<unicode hex="F3310"/>
	<outline>
		<contour>
			<point x="153" y="162" type="curve" smooth="yes"/>
			<point x="168" y="233" type="line"/>
			<point x="554" y="235" type="line"/>
			<point x="560" y="254"/>
			<point x="563" y="269"/>
			<point x="565" y="279" type="curve" smooth="yes"/>
			<point x="597" y="429"/>
			<point x="539" y="545"/>
			<point x="385" y="545" type="curve" smooth="yes"/>
			<point x="327" y="545"/>
			<point x="272" y="529"/>
			<point x="225" y="500" type="curve"/>
			<point x="275" y="735" type="line"/>
			<point x="165" y="735" type="line"/>
			<point x="42" y="159" type="line" smooth="yes"/>
			<point x="36" y="127"/>
			<point x="31" y="103"/>
			<point x="27" y="83" type="curve" smooth="yes"/>
			<point x="17" y="15"/>
			<point x="51" y="-6"/>
			<point x="109" y="-6" type="curve" smooth="yes"/>
			<point x="134" y="-6"/>
			<point x="160" y="-4"/>
			<point x="182" y="-1" type="curve"/>
			<point x="199" y="76" type="line"/>
			<point x="151" y="72"/>
			<point x="139" y="82"/>
			<point x="143" y="112" type="curve" smooth="yes"/>
			<point x="146" y="128"/>
			<point x="149" y="144"/>
		</contour>
		<contour>
			<point x="190" y="312" type="line"/>
			<point x="224" y="414"/>
			<point x="289" y="465"/>
			<point x="364" y="465" type="curve" smooth="yes"/>
			<point x="441" y="465"/>
			<point x="472" y="410"/>
			<point x="459" y="312" type="curve"/>
		</contour>
	</outline>
</glyph>
<glyph name="uF3350" format="2">
	<advance width="609"/>
	<unicode hex="F3350"/>
	<outline>
		<contour>
			<point x="481" y="0" type="line"/>
			<point x="594" y="531" type="line"/>
			<point x="485" y="531" type="line"/>
			<point x="431" y="281" type="line" smooth="yes"/>
			<point x="399" y="127"/>
			<point x="328" y="68"/>
			<point x="251" y="68" type="curve" smooth="yes"/>
			<point x="183" y="68"/>
			<point x="142" y="103"/>
			<point x="156" y="176" type="curve" smooth="yes"/>
			<point x="275" y="735" type="line"/>
			<point x="165" y="735" type="line"/>
			<point x="42" y="159" type="line" smooth="yes"/>
			<point x="36" y="127"/>
			<point x="35" y="87"/>
			<point x="41" y="68" type="curve" smooth="yes"/>
			<point x="63" y="0"/>
			<point x="140" y="-14"/>
			<point x="198" y="-14" type="curve" smooth="yes"/>
			<point x="251" y="-14"/>
			<point x="292" y="-5"/>
			<point x="340" y="25" type="curve"/>
			<point x="391" y="91" type="line"/>
			<point x="372" y="0" type="line"/>
		</contour>
	</outline>
</glyph>
<glyph name="uF3510" format="2">
	<advance width="1266"/>
	<unicode hex="F3510"/>
	<outline>
		<contour>
			<point x="1058" y="545" type="curve" smooth="yes"/>
			<point x="1004" y="545"/>
			<point x="945" y="530"/>
			<point x="910" y="505" type="curve" smooth="yes"/>
			<point x="842" y="452" type="line"/>
			<point x="831" y="507"/>
			<point x="787" y="545"/>
			<point x="707" y="545" type="curve" smooth="yes"/>
			<point x="660" y="545"/>
			<point x="621" y="536"/>
			<point x="587" y="514" type="curve"/>
			<point x="523" y="444" type="line"/>
			<point x="516" y="503"/>
			<point x="472" y="545"/>
			<point x="388" y="545" type="curve" smooth="yes"/>
			<point x="340" y="545"/>
			<point x="301" y="536"/>
			<point x="268" y="514" type="curve"/>
			<point x="219" y="452" type="line"/>
			<point x="236" y="531" type="line"/>
			<point x="126" y="531" type="line"/>
			<point x="13" y="0" type="line"/>
			<point x="123" y="0" type="line"/>
			<point x="179" y="267" type="line" smooth="yes"/>
			<point x="210" y="411"/>
			<point x="263" y="464"/>
			<point x="328" y="464" type="curve" smooth="yes"/>
			<point x="385" y="464"/>
			<point x="413" y="434"/>
			<point x="409" y="377" type="curve" smooth="yes"/>
			<point x="406" y="350"/>
			<point x="401" y="321"/>
			<point x="392" y="281" type="curve" smooth="yes"/>
			<point x="333" y="0" type="line"/>
			<point x="442" y="0" type="line"/>
			<point x="498" y="267" type="line" smooth="yes"/>
			<point x="529" y="411"/>
			<point x="583" y="464"/>
			<point x="647" y="464" type="curve" smooth="yes"/>
			<point x="704" y="464"/>
			<point x="733" y="434"/>
			<point x="728" y="377" type="curve" smooth="yes"/>
			<point x="725" y="350"/>
			<point x="720" y="321"/>
			<point x="711" y="281" type="curve" smooth="yes"/>
			<point x="652" y="0" type="line"/>
			<point x="653" y="0" type="line"/>
			<point x="611" y="-196" type="line"/>
			<point x="721" y="-196" type="line"/>
			<point x="778" y="72" type="line"/>
			<point x="802" y="19" type="line"/>
			<point x="824" y="-2"/>
			<point x="877" y="-14"/>
			<point x="921" y="-14" type="curve" smooth="yes"/>
			<point x="1058" y="-14"/>
			<point x="1198" y="80"/>
			<point x="1239" y="275" type="curve" smooth="yes"/>
			<point x="1272" y="430"/>
			<point x="1210" y="545"/>
		</contour>
		<contour>
			<point x="815" y="244" type="curve" smooth="yes"/>
			<point x="820" y="271" type="line" smooth="yes"/>
			<point x="850" y="413"/>
			<point x="933" y="465"/>
			<point x="1015" y="465" type="curve" smooth="yes"/>
			<point x="1111" y="465"/>
			<point x="1145" y="380"/>
			<point x="1121" y="265" type="curve" smooth="yes"/>
			<point x="1093" y="133"/>
			<point x="1013" y="66"/>
			<point x="925" y="66" type="curve" smooth="yes"/>
			<point x="855" y="66"/>
			<point x="787" y="114"/>
		</contour>
	</outline>
</glyph>
<glyph name="uF3620" format="2">
	<advance width="1064"/>
	<unicode hex="F3620"/>
	<outline>
		<contour>
			<point x="451" y="0" type="line"/>
			<point x="980" y="0" type="line"/>
			<point x="998" y="88" type="line"/>
			<point x="631" y="88" type="line"/>
			<point x="677" y="302" type="line"/>
			<point x="1006" y="302" type="line"/>
			<point x="1024" y="389" type="line"/>
			<point x="695" y="389" type="line"/>
			<point x="741" y="603" type="line"/>
			<point x="1098" y="603" type="line"/>
			<point x="1116" y="690" type="line"/>
			<point x="646" y="690" type="line"/>
			<point x="576" y="358" type="line" smooth="yes"/>
			<point x="561" y="287"/>
			<point x="542" y="195"/>
			<point x="528" y="117" type="curve"/>
			<point x="340" y="690" type="line"/>
			<point x="185" y="690" type="line"/>
			<point x="39" y="0" type="line"/>
			<point x="149" y="0" type="line"/>
			<point x="219" y="330" type="line" smooth="yes"/>
			<point x="234" y="401"/>
			<point x="252" y="490"/>
			<point x="266" y="569" type="curve"/>
		</contour>
	</outline>
</glyph>
<glyph name="uF3650" format="2">
	<advance width="1526"/>
	<unicode hex="F3650"/>
	<outline>
		<contour>
			<point x="451" y="0" type="line"/>
			<point x="609" y="0" type="line"/>
			<point x="762" y="726" type="line"/>
			<point x="952" y="185" type="line"/>
			<point x="1481" y="185" type="line"/>
			<point x="1500" y="273" type="line"/>
			<point x="1133" y="273" type="line"/>
			<point x="1178" y="487" type="line"/>
			<point x="1507" y="487" type="line"/>
			<point x="1526" y="574" type="line"/>
			<point x="1197" y="574" type="line"/>
			<point x="1242" y="788" type="line"/>
			<point x="1599" y="788" type="line"/>
			<point x="1618" y="875" type="line"/>
			<point x="1148" y="875" type="line"/>
			<point x="1077" y="543" type="line" smooth="yes"/>
			<point x="1062" y="472"/>
			<point x="1043" y="380"/>
			<point x="1029" y="302" type="curve"/>
			<point x="842" y="875" type="line"/>
			<point x="687" y="875" type="line"/>
			<point x="646" y="690" type="line"/>
			<point x="576" y="358" type="line" smooth="yes"/>
			<point x="561" y="287"/>
			<point x="542" y="195"/>
			<point x="528" y="117" type="curve"/>
			<point x="340" y="690" type="line"/>
			<point x="185" y="690" type="line"/>
			<point x="39" y="0" type="line"/>
			<point x="149" y="0" type="line"/>
			<point x="219" y="330" type="line" smooth="yes"/>
			<point x="234" y="401"/>
			<point x="252" y="490"/>
			<point x="266" y="569" type="curve"/>
		</contour>
	</outline>
</glyph>
<glyph name="uF3870" format="2">
	<advance width="787"/>
	<unicode hex="F3870"/>
	<outline>
		<contour>
			<point x="475" y="704" type="curve" smooth="yes"/>
			<point x="263" y="704"/>
			<point x="111" y="559"/>
			<point x="66" y="345" type="curve" smooth="yes"/>
			<point x="21" y="132"/>
			<point x="111" y="-14"/>
			<point x="323" y="-14" type="curve" smooth="yes"/>
			<point x="534" y="-14"/>
			<point x="686" y="132"/>
			<point x="731" y="345" type="curve" smooth="yes"/>
			<point x="805" y="690" type="line"/>
			<point x="695" y="690" type="line"/>
			<point x="682" y="627" type="line"/>
			<point x="637" y="676"/>
			<point x="568" y="704"/>
		</contour>
		<contour>
			<point x="184" y="345" type="curve" smooth="yes"/>
			<point x="221" y="517"/>
			<point x="322" y="620"/>
			<point x="457" y="620" type="curve" smooth="yes"/>
			<point x="591" y="620"/>
			<point x="650" y="517"/>
			<point x="613" y="345" type="curve" smooth="yes"/>
			<point x="577" y="174"/>
			<point x="475" y="70"/>
			<point x="341" y="70" type="curve" smooth="yes"/>
			<point x="206" y="70"/>
			<point x="148" y="174"/>
		</contour>
		<contour>
			<point x="627" y="733" type="line"/>
			<point x="735" y="733" type="line"/>
			<point x="758" y="839" type="line"/>
			<point x="650" y="839" type="line"/>
		</contour>
		<contour>
			<point x="782" y="733" type="line"/>
			<point x="890" y="733" type="line"/>
			<point x="913" y="839" type="line"/>
			<point x="805" y="839" type="line"/>
		</contour>
	</outline>
</glyph>
<glyph name="uF3970" format="2">
	<advance width="640"/>
	<unicode hex="F3970"/>
	<outline>
		<contour>
			<point x="358" y="545" type="curve" smooth="yes"/>
			<point x="179" y="545"/>
			<point x="62" y="421"/>
			<point x="29" y="266" type="curve" smooth="yes"/>
			<point x="-4" y="111"/>
			<point x="60" y="-14"/>
			<point x="239" y="-14" type="curve" smooth="yes"/>
			<point x="417" y="-14"/>
			<point x="534" y="111"/>
			<point x="567" y="266" type="curve" smooth="yes"/>
			<point x="625" y="531" type="line"/>
			<point x="515" y="531" type="line"/>
			<point x="508" y="500" type="line"/>
			<point x="472" y="528"/>
			<point x="423" y="545"/>
		</contour>
		<contour>
			<point x="145" y="266" type="curve" smooth="yes"/>
			<point x="171" y="386"/>
			<point x="244" y="465"/>
			<point x="341" y="465" type="curve" smooth="yes"/>
			<point x="437" y="465"/>
			<point x="476" y="386"/>
			<point x="450" y="266" type="curve" smooth="yes"/>
			<point x="425" y="146"/>
			<point x="352" y="66"/>
			<point x="256" y="66" type="curve" smooth="yes"/>
			<point x="159" y="66"/>
			<point x="120" y="146"/>
		</contour>
		<contour>
			<point x="450" y="582" type="line"/>
			<point x="558" y="582" type="line"/>
			<point x="581" y="688" type="line"/>
			<point x="473" y="688" type="line"/>
		</contour>
		<contour>
			<point x="605" y="582" type="line"/>
			<point x="713" y="582" type="line"/>
			<point x="736" y="688" type="line"/>
			<point x="628" y="688" type="line"/>
		</contour>
	</outline>
</glyph>
<glyph name="uF4110" format="2">
	<advance width="1253"/>
	<unicode hex="F4110"/>
	<outline>
		<contour>
			<point x="418" y="545" type="curve" smooth="yes"/>
			<point x="364" y="545"/>
			<point x="305" y="530"/>
			<point x="270" y="505" type="curve"/>
			<point x="218" y="448" type="line"/>
			<point x="236" y="531" type="line"/>
			<point x="126" y="531" type="line"/>
			<point x="-29" y="-196" type="line"/>
			<point x="81" y="-196" type="line"/>
			<point x="138" y="72" type="line"/>
			<point x="162" y="19" type="line"/>
			<point x="184" y="-2"/>
			<point x="237" y="-14"/>
			<point x="281" y="-14" type="curve" smooth="yes"/>
			<point x="418" y="-14"/>
			<point x="558" y="80"/>
			<point x="599" y="275" type="curve" smooth="yes"/>
			<point x="610" y="324"/>
			<point x="610" y="369"/>
			<point x="602" y="407" type="curve"/>
			<point x="629" y="447"/>
			<point x="662" y="464"/>
			<point x="698" y="464" type="curve" smooth="yes"/>
			<point x="755" y="464"/>
			<point x="783" y="434"/>
			<point x="779" y="377" type="curve" smooth="yes"/>
			<point x="776" y="350"/>
			<point x="771" y="321"/>
			<point x="762" y="281" type="curve" smooth="yes"/>
			<point x="703" y="0" type="line"/>
			<point x="812" y="0" type="line"/>
			<point x="868" y="267" type="line" smooth="yes"/>
			<point x="899" y="411"/>
			<point x="953" y="464"/>
			<point x="1017" y="464" type="curve" smooth="yes"/>
			<point x="1074" y="464"/>
			<point x="1103" y="434"/>
			<point x="1098" y="377" type="curve" smooth="yes"/>
			<point x="1095" y="350"/>
			<point x="1090" y="321"/>
			<point x="1081" y="281" type="curve" smooth="yes"/>
			<point x="1022" y="0" type="line"/>
			<point x="1132" y="0" type="line"/>
			<point x="1200" y="321" type="line" smooth="yes"/>
			<point x="1209" y="364"/>
			<point x="1213" y="388"/>
			<point x="1215" y="415" type="curve" smooth="yes"/>
			<point x="1218" y="488"/>
			<point x="1175" y="545"/>
			<point x="1077" y="545" type="curve" smooth="yes"/>
			<point x="1030" y="545"/>
			<point x="991" y="536"/>
			<point x="957" y="514" type="curve"/>
			<point x="893" y="444" type="line"/>
			<point x="886" y="503"/>
			<point x="842" y="545"/>
			<point x="758" y="545" type="curve" smooth="yes"/>
			<point x="710" y="545"/>
			<point x="671" y="536"/>
			<point x="638" y="514" type="curve"/>
			<point x="589" y="452" type="line"/>
			<point x="588" y="449" type="line"/>
			<point x="561" y="509"/>
			<point x="504" y="545"/>
		</contour>
		<contour>
			<point x="175" y="244" type="curve" smooth="yes"/>
			<point x="180" y="271" type="line" smooth="yes"/>
			<point x="210" y="413"/>
			<point x="293" y="465"/>
			<point x="375" y="465" type="curve" smooth="yes"/>
			<point x="471" y="465"/>
			<point x="505" y="380"/>
			<point x="481" y="265" type="curve" smooth="yes"/>
			<point x="453" y="133"/>
			<point x="373" y="66"/>
			<point x="285" y="66" type="curve" smooth="yes"/>
			<point x="215" y="66"/>
			<point x="147" y="114"/>
		</contour>
	</outline>
</glyph>
<glyph name="uF4410" format="2">
	<advance width="912"/>
	<unicode hex="F4410"/>
	<outline>
		<contour>
			<point x="552" y="178" type="curve" smooth="yes"/>
			<point x="557" y="227"/>
			<point x="553" y="271"/>
			<point x="532" y="302" type="curve"/>
			<point x="854" y="302" type="line"/>
			<point x="872" y="389" type="line"/>
			<point x="588" y="389" type="line"/>
			<point x="619" y="417"/>
			<point x="643" y="454"/>
			<point x="653" y="502" type="curve" smooth="yes"/>
			<point x="662" y="543"/>
			<point x="660" y="577"/>
			<point x="650" y="603" type="curve"/>
			<point x="946" y="603" type="line"/>
			<point x="964" y="690" type="line"/>
			<point x="185" y="690" type="line"/>
			<point x="39" y="0" type="line"/>
			<point x="149" y="0" type="line"/>
			<point x="210" y="288" type="line"/>
			<point x="317" y="288" type="line" smooth="yes"/>
			<point x="334" y="288"/>
			<point x="351" y="288"/>
			<point x="368" y="287" type="curve" smooth="yes"/>
			<point x="430" y="283"/>
			<point x="447" y="237"/>
			<point x="441" y="164" type="curve" smooth="yes"/>
			<point x="432" y="88"/>
			<point x="432" y="45"/>
			<point x="441" y="0" type="curve"/>
			<point x="828" y="0" type="line"/>
			<point x="846" y="88" type="line"/>
			<point x="544" y="88" type="line"/>
			<point x="545" y="113"/>
			<point x="547" y="143"/>
		</contour>
		<contour>
			<point x="228" y="373" type="line"/>
			<point x="277" y="603" type="line"/>
			<point x="399" y="603" type="line" smooth="yes"/>
			<point x="427" y="603"/>
			<point x="445" y="602"/>
			<point x="462" y="599" type="curve" smooth="yes"/>
			<point x="519" y="591"/>
			<point x="550" y="561"/>
			<point x="534" y="488" type="curve" smooth="yes"/>
			<point x="519" y="415"/>
			<point x="467" y="381"/>
			<point x="405" y="375" type="curve" smooth="yes"/>
			<point x="388" y="373"/>
			<point x="371" y="373"/>
			<point x="343" y="373" type="curve" smooth="yes"/>
		</contour>
	</outline>
</glyph>
<glyph name="uF4490" format="2">
	<advance width="1779"/>
	<unicode hex="F4490"/>
	<outline>
		<contour>
			<point x="552" y="178" type="curve" smooth="yes"/>
			<point x="560" y="250"/>
			<point x="547" y="310"/>
			<point x="490" y="337" type="curve"/>
			<point x="568" y="359"/>
			<point x="634" y="412"/>
			<point x="653" y="502" type="curve" smooth="yes"/>
			<point x="678" y="620"/>
			<point x="615" y="673"/>
			<point x="517" y="686" type="curve" smooth="yes"/>
			<point x="485" y="690"/>
			<point x="460" y="690"/>
			<point x="423" y="690" type="curve" smooth="yes"/>
			<point x="185" y="690" type="line"/>
			<point x="39" y="0" type="line"/>
			<point x="149" y="0" type="line"/>
			<point x="210" y="288" type="line"/>
			<point x="317" y="288" type="line" smooth="yes"/>
			<point x="334" y="288"/>
			<point x="351" y="288"/>
			<point x="368" y="287" type="curve" smooth="yes"/>
			<point x="430" y="283"/>
			<point x="447" y="237"/>
			<point x="441" y="164" type="curve" smooth="yes"/>
			<point x="432" y="88"/>
			<point x="432" y="45"/>
			<point x="441" y="0" type="curve"/>
			<point x="562" y="0" type="line"/>
			<point x="542" y="38"/>
			<point x="541" y="91"/>
		</contour>
		<contour>
			<point x="228" y="373" type="line"/>
			<point x="277" y="603" type="line"/>
			<point x="399" y="603" type="line" smooth="yes"/>
			<point x="427" y="603"/>
			<point x="445" y="602"/>
			<point x="462" y="599" type="curve" smooth="yes"/>
			<point x="519" y="591"/>
			<point x="550" y="561"/>
			<point x="534" y="488" type="curve" smooth="yes"/>
			<point x="519" y="415"/>
			<point x="467" y="381"/>
			<point x="405" y="375" type="curve" smooth="yes"/>
			<point x="388" y="373"/>
			<point x="371" y="373"/>
			<point x="343" y="373" type="curve" smooth="yes"/>
		</contour>
		<contour>
			<point x="744" y="661" type="line"/>
			<point x="854" y="661" type="line"/>
			<point x="877" y="770" type="line"/>
			<point x="767" y="770" type="line"/>
		</contour>
		<contour>
			<point x="790" y="342" type="curve" smooth="yes"/>
			<point x="746" y="132"/>
			<point x="836" y="-14"/>
			<point x="1033" y="-14" type="curve" smooth="yes"/>
			<point x="1176" y="-14"/>
			<point x="1283" y="51"/>
			<point x="1341" y="145" type="curve"/>
			<point x="1718" y="145" type="line"/>
			<point x="1737" y="234" type="line"/>
			<point x="1381" y="234" type="line"/>
			<point x="1272" y="234" type="line"/>
			<point x="1268" y="224" type="line" smooth="yes"/>
			<point x="1230" y="131"/>
			<point x="1160" y="70"/>
			<point x="1056" y="70" type="curve" smooth="yes"/>
			<point x="934" y="70"/>
			<point x="874" y="176"/>
			<point x="910" y="347" type="curve" smooth="yes"/>
			<point x="945" y="510"/>
			<point x="1049" y="620"/>
			<point x="1177" y="620" type="curve" smooth="yes"/>
			<point x="1281" y="620"/>
			<point x="1326" y="561"/>
			<point x="1325" y="468" type="curve" smooth="yes"/>
			<point x="1325" y="458" type="line"/>
			<point x="1764" y="458" type="line"/>
			<point x="1783" y="545" type="line"/>
			<point x="1454" y="545" type="line"/>
			<point x="1499" y="759" type="line"/>
			<point x="1856" y="759" type="line"/>
			<point x="1874" y="846" type="line"/>
			<point x="1407" y="846" type="line"/>
			<point x="1367" y="657" type="line"/>
			<point x="1329" y="687"/>
			<point x="1272" y="704"/>
			<point x="1197" y="704" type="curve" smooth="yes"/>
			<point x="1003" y="704"/>
			<point x="836" y="559"/>
		</contour>
	</outline>
</glyph>
<glyph name="uF45C0" format="2">
	<advance width="522"/>
	<unicode hex="F45C0"/>
	<outline>
		<contour>
			<point x="365" y="544" type="curve" smooth="yes"/>
			<point x="338" y="544"/>
			<point x="305" y="533"/>
			<point x="277" y="514" type="curve"/>
			<point x="216" y="441" type="line"/>
			<point x="236" y="531" type="line"/>
			<point x="126" y="531" type="line"/>
			<point x="13" y="0" type="line" smooth="yes"/>
			<point x="-12" y="-120"/>
			<point x="78" y="-173"/>
			<point x="196" y="-173" type="curve" smooth="yes"/>
			<point x="312" y="-173"/>
			<point x="414" y="-122"/>
			<point x="436" y="-19" type="curve" smooth="yes"/>
			<point x="456" y="75"/>
			<point x="404" y="121"/>
			<point x="295" y="151" type="curve" smooth="yes"/>
			<point x="220" y="172"/>
			<point x="185" y="192"/>
			<point x="196" y="240" type="curve" smooth="yes"/>
			<point x="204" y="280"/>
			<point x="235" y="309"/>
			<point x="287" y="309" type="curve" smooth="yes"/>
			<point x="341" y="309"/>
			<point x="367" y="276"/>
			<point x="366" y="220" type="curve"/>
			<point x="478" y="220" type="line"/>
			<point x="487" y="317"/>
			<point x="434" y="386"/>
			<point x="312" y="386" type="curve" smooth="yes"/>
			<point x="278" y="386"/>
			<point x="246" y="381"/>
			<point x="218" y="371" type="curve"/>
			<point x="254" y="432"/>
			<point x="313" y="457"/>
			<point x="383" y="452" type="curve"/>
			<point x="401" y="538" type="line"/>
			<point x="391" y="542"/>
			<point x="380" y="544"/>
		</contour>
		<contour>
			<point x="123" y="0" type="curve" smooth="yes"/>
			<point x="143" y="96" type="line"/>
			<point x="164" y="85"/>
			<point x="190" y="76"/>
			<point x="217" y="68" type="curve" smooth="yes"/>
			<point x="302" y="44"/>
			<point x="333" y="19"/>
			<point x="323" y="-27" type="curve" smooth="yes"/>
			<point x="313" y="-73"/>
			<point x="267" y="-95"/>
			<point x="216" y="-95" type="curve" smooth="yes"/>
			<point x="161" y="-95"/>
			<point x="108" y="-68"/>
		</contour>
	</outline>
</glyph>
<glyph name="uF4640" format="2">
	<advance width="949"/>
	<unicode hex="F4640"/>
	<outline>
		<contour>
			<point x="409" y="704" type="curve" smooth="yes"/>
			<point x="280" y="704"/>
			<point x="155" y="629"/>
			<point x="129" y="507" type="curve" smooth="yes"/>
			<point x="104" y="387"/>
			<point x="181" y="338"/>
			<point x="305" y="307" type="curve" smooth="yes"/>
			<point x="411" y="281"/>
			<point x="432" y="244"/>
			<point x="416" y="172" type="curve" smooth="yes"/>
			<point x="403" y="109"/>
			<point x="352" y="70"/>
			<point x="280" y="70" type="curve" smooth="yes"/>
			<point x="199" y="70"/>
			<point x="148" y="115"/>
			<point x="148" y="200" type="curve"/>
			<point x="34" y="200" type="line"/>
			<point x="19" y="61"/>
			<point x="104" y="-14"/>
			<point x="262" y="-14" type="curve" smooth="yes"/>
			<point x="308" y="-14"/>
			<point x="352" y="-5"/>
			<point x="390" y="12" type="curve"/>
			<point x="347" y="-193" type="line"/>
			<point x="824" y="-193" type="line"/>
			<point x="842" y="-105" type="line"/>
			<point x="475" y="-105" type="line"/>
			<point x="521" y="109" type="line"/>
			<point x="850" y="109" type="line"/>
			<point x="868" y="196" type="line"/>
			<point x="539" y="196" type="line"/>
			<point x="585" y="410" type="line"/>
			<point x="942" y="410" type="line"/>
			<point x="960" y="497" type="line"/>
			<point x="607" y="497" type="line"/>
			<point x="617" y="615"/>
			<point x="561" y="704"/>
		</contour>
		<contour>
			<point x="249" y="525" type="curve" smooth="yes"/>
			<point x="263" y="590"/>
			<point x="320" y="620"/>
			<point x="385" y="620" type="curve" smooth="yes"/>
			<point x="465" y="620"/>
			<point x="501" y="573"/>
			<point x="493" y="494" type="curve"/>
			<point x="466" y="367" type="line"/>
			<point x="441" y="381"/>
			<point x="409" y="393"/>
			<point x="371" y="402" type="curve" smooth="yes"/>
			<point x="269" y="427"/>
			<point x="235" y="458"/>
		</contour>
	</outline>
</glyph>
<glyph name="uF46E0" format="2">
	<advance width="1738"/>
	<unicode hex="F46E0"/>
	<outline>
		<contour>
			<point x="409" y="704" type="curve" smooth="yes"/>
			<point x="280" y="704"/>
			<point x="155" y="629"/>
			<point x="129" y="507" type="curve" smooth="yes"/>
			<point x="104" y="387"/>
			<point x="181" y="338"/>
			<point x="305" y="307" type="curve" smooth="yes"/>
			<point x="411" y="281"/>
			<point x="446" y="244"/>
			<point x="430" y="172" type="curve" smooth="yes"/>
			<point x="417" y="109"/>
			<point x="352" y="70"/>
			<point x="280" y="70" type="curve" smooth="yes"/>
			<point x="199" y="70"/>
			<point x="148" y="115"/>
			<point x="148" y="200" type="curve"/>
			<point x="34" y="200" type="line"/>
			<point x="19" y="61"/>
			<point x="104" y="-14"/>
			<point x="262" y="-14" type="curve" smooth="yes"/>
			<point x="396" y="-14"/>
			<point x="523" y="62"/>
			<point x="549" y="187" type="curve" smooth="yes"/>
			<point x="574" y="302"/>
			<point x="516" y="367"/>
			<point x="371" y="402" type="curve" smooth="yes"/>
			<point x="269" y="427"/>
			<point x="235" y="458"/>
			<point x="249" y="525" type="curve" smooth="yes"/>
			<point x="263" y="590"/>
			<point x="320" y="620"/>
			<point x="385" y="620" type="curve" smooth="yes"/>
			<point x="465" y="620"/>
			<point x="501" y="573"/>
			<point x="493" y="494" type="curve"/>
			<point x="607" y="494" type="line"/>
			<point x="618" y="614"/>
			<point x="562" y="704"/>
		</contour>
		<contour>
			<point x="696" y="603" type="line"/>
			<point x="937" y="603" type="line"/>
			<point x="745" y="-300" type="line"/>
			<point x="1222" y="-300" type="line"/>
			<point x="1241" y="-212" type="line"/>
			<point x="874" y="-212" type="line"/>
			<point x="919" y="2" type="line"/>
			<point x="1158" y="2" type="line"/>
			<point x="1181" y="-82"/>
			<point x="1260" y="-126"/>
			<point x="1381" y="-126" type="curve" smooth="yes"/>
			<point x="1515" y="-126"/>
			<point x="1642" y="-50"/>
			<point x="1669" y="75" type="curve" smooth="yes"/>
			<point x="1693" y="190"/>
			<point x="1635" y="255"/>
			<point x="1490" y="290" type="curve" smooth="yes"/>
			<point x="1389" y="315"/>
			<point x="1354" y="346"/>
			<point x="1368" y="413" type="curve" smooth="yes"/>
			<point x="1382" y="478"/>
			<point x="1440" y="508"/>
			<point x="1505" y="508" type="curve" smooth="yes"/>
			<point x="1585" y="508"/>
			<point x="1621" y="461"/>
			<point x="1612" y="382" type="curve"/>
			<point x="1726" y="382" type="line"/>
			<point x="1737" y="502"/>
			<point x="1682" y="592"/>
			<point x="1529" y="592" type="curve" smooth="yes"/>
			<point x="1400" y="592"/>
			<point x="1275" y="517"/>
			<point x="1249" y="395" type="curve" smooth="yes"/>
			<point x="1248" y="390" type="line"/>
			<point x="1001" y="390" type="line"/>
			<point x="1046" y="603" type="line"/>
			<point x="1287" y="603" type="line"/>
			<point x="1305" y="690" type="line"/>
			<point x="714" y="690" type="line"/>
		</contour>
		<contour>
			<point x="938" y="89" type="line"/>
			<point x="983" y="303" type="line"/>
			<point x="1252" y="303" type="line"/>
			<point x="1275" y="247"/>
			<point x="1338" y="216"/>
			<point x="1424" y="195" type="curve" smooth="yes"/>
			<point x="1531" y="169"/>
			<point x="1565" y="132"/>
			<point x="1549" y="60" type="curve" smooth="yes"/>
			<point x="1536" y="-3"/>
			<point x="1471" y="-42"/>
			<point x="1399" y="-42" type="curve" smooth="yes"/>
			<point x="1318" y="-42"/>
			<point x="1267" y="3"/>
			<point x="1267" y="88" type="curve"/>
			<point x="1266" y="88" type="line"/>
			<point x="1267" y="89" type="line"/>
		</contour>
	</outline>
</glyph>
<glyph name="uF4810" format="2">
	<advance width="776"/>
	<unicode hex="F4810"/>
	<outline>
		<contour>
			<point x="451" y="603" type="line"/>
			<point x="692" y="603" type="line"/>
			<point x="710" y="690" type="line"/>
			<point x="119" y="690" type="line"/>
			<point x="101" y="603" type="line"/>
			<point x="342" y="603" type="line"/>
			<point x="214" y="0" type="line"/>
			<point x="151" y="-298" type="line"/>
			<point x="628" y="-298" type="line"/>
			<point x="647" y="-210" type="line"/>
			<point x="280" y="-210" type="line"/>
			<point x="326" y="4" type="line"/>
			<point x="655" y="4" type="line"/>
			<point x="673" y="91" type="line"/>
			<point x="344" y="91" type="line"/>
			<point x="390" y="305" type="line"/>
			<point x="747" y="305" type="line"/>
			<point x="765" y="392" type="line"/>
			<point x="406" y="392" type="line"/>
		</contour>
	</outline>
</glyph>
<glyph name="uF4910" format="2">
	<advance width="830"/>
	<unicode hex="F4910"/>
	<outline>
		<contour>
			<point x="180" y="172" type="curve" smooth="yes"/>
			<point x="239" y="450" type="line"/>
			<point x="831" y="450" type="line"/>
			<point x="837" y="469"/>
			<point x="841" y="484"/>
			<point x="843" y="494" type="curve" smooth="yes"/>
			<point x="875" y="644"/>
			<point x="816" y="760"/>
			<point x="662" y="760" type="curve" smooth="yes"/>
			<point x="524" y="760"/>
			<point x="405" y="668"/>
			<point x="356" y="527" type="curve"/>
			<point x="256" y="527" type="line"/>
			<point x="283" y="654" type="line"/>
			<point x="174" y="654" type="line"/>
			<point x="147" y="527" type="line"/>
			<point x="72" y="527" type="line"/>
			<point x="55" y="450" type="line"/>
			<point x="130" y="450" type="line"/>
			<point x="69" y="162" type="line" smooth="yes"/>
			<point x="63" y="132"/>
			<point x="58" y="109"/>
			<point x="55" y="91" type="curve" smooth="yes"/>
			<point x="45" y="21"/>
			<point x="75" y="-10"/>
			<point x="158" y="-10" type="curve" smooth="yes"/>
			<point x="185" y="-10"/>
			<point x="211" y="-8"/>
			<point x="240" y="-4" type="curve"/>
			<point x="256" y="72" type="line"/>
			<point x="182" y="65"/>
			<point x="165" y="76"/>
			<point x="172" y="128" type="curve" smooth="yes"/>
			<point x="174" y="142"/>
			<point x="176" y="154"/>
		</contour>
		<contour>
			<point x="468" y="527" type="line"/>
			<point x="501" y="629"/>
			<point x="566" y="680"/>
			<point x="641" y="680" type="curve" smooth="yes"/>
			<point x="718" y="680"/>
			<point x="750" y="625"/>
			<point x="737" y="527" type="curve"/>
		</contour>
	</outline>
</glyph>
<glyph name="uF5010" format="2">
	<advance width="1024"/>
	<unicode hex="F5010"/>
	<outline>
		<contour>
			<point x="984" y="209" type="line"/>
			<point x="1003" y="297" type="line"/>
			<point x="636" y="297" type="line"/>
			<point x="681" y="511" type="line"/>
			<point x="1010" y="511" type="line"/>
			<point x="1029" y="598" type="line"/>
			<point x="700" y="598" type="line"/>
			<point x="745" y="812" type="line"/>
			<point x="1102" y="812" type="line"/>
			<point x="1121" y="899" type="line"/>
			<point x="654" y="899" type="line"/>
			<point x="509" y="219" type="line"/>
			<point x="506" y="209" type="line" smooth="yes"/>
			<point x="481" y="126"/>
			<point x="417" y="70"/>
			<point x="317" y="70" type="curve" smooth="yes"/>
			<point x="218" y="70"/>
			<point x="176" y="126"/>
			<point x="187" y="209" type="curve" smooth="yes"/>
			<point x="188" y="225"/>
			<point x="193" y="244"/>
			<point x="197" y="265" type="curve" smooth="yes"/>
			<point x="287" y="690" type="line"/>
			<point x="178" y="690" type="line"/>
			<point x="88" y="267" type="line" smooth="yes"/>
			<point x="83" y="242"/>
			<point x="79" y="222"/>
			<point x="75" y="196" type="curve" smooth="yes"/>
			<point x="60" y="81"/>
			<point x="119" y="-14"/>
			<point x="299" y="-14" type="curve" smooth="yes"/>
			<point x="479" y="-14"/>
			<point x="578" y="81"/>
			<point x="612" y="196" type="curve" smooth="yes"/>
			<point x="613" y="200"/>
			<point x="615" y="205"/>
			<point x="616" y="209" type="curve"/>
		</contour>
	</outline>
</glyph>
